<?xml version="1.0" encoding="UTF-8" standalone="no"?>
<!DOCTYPE svg PUBLIC "-//W3C//DTD SVG 1.1//EN"
 "http://www.w3.org/Graphics/SVG/1.1/DTD/svg11.dtd">
<!-- Generated by graphviz version 2.36.0 (20140111.2315)
 -->
<!-- Title: %3 Pages: 1 -->
<svg width="304pt" height="116pt"
 viewBox="0.00 0.00 304.00 116.00" xmlns="http://www.w3.org/2000/svg" xmlns:xlink="http://www.w3.org/1999/xlink">
<g id="graph0" class="graph" transform="scale(1 1) rotate(0) translate(4 112)">
<title>%3</title>
<!-- inputs -->
<g id="node1" class="node"><title>inputs</title>
<ellipse fill="none" stroke="black" cx="31" cy="-90" rx="31.5903" ry="18"/>
<text text-anchor="middle" x="31" y="-85.8" font-family="Times,serif" font-size="14.00">inputs</text>
</g>
<!-- component -->
<g id="node2" class="node"><title>component</title>
<polygon fill="none" stroke="black" points="177.155,-36 98.8446,-36 98.8446,-0 177.155,-0 177.155,-36"/>
<text text-anchor="middle" x="138" y="-13.8" font-family="Times,serif" font-size="14.00">component</text>
</g>
<!-- inputs&#45;&gt;component -->
<g id="edge1" class="edge"><title>inputs&#45;&gt;component</title>
<path fill="none" stroke="black" d="M50.8751,-75.9976C65.4914,-66.4356 85.7385,-53.1898 103.036,-41.8737"/>
<polygon fill="black" stroke="black" points="105.315,-44.5653 111.767,-36.1617 101.483,-38.7075 105.315,-44.5653"/>
</g>
<!-- dependencies -->
<g id="node3" class="node"><title>dependencies</title>
<ellipse fill="none" stroke="black" cx="138" cy="-90" rx="57.6091" ry="18"/>
<text text-anchor="middle" x="138" y="-85.8" font-family="Times,serif" font-size="14.00">dependencies</text>
</g>
<!-- dependencies&#45;&gt;component -->
<g id="edge2" class="edge"><title>dependencies&#45;&gt;component</title>
<path fill="none" stroke="black" d="M138,-71.6966C138,-63.9827 138,-54.7125 138,-46.1124"/>
<polygon fill="black" stroke="black" points="141.5,-46.1043 138,-36.1043 134.5,-46.1044 141.5,-46.1043"/>
</g>
<!-- elements -->
<g id="node4" class="node"><title>elements</title>
<ellipse fill="none" stroke="black" cx="255" cy="-90" rx="41.3072" ry="18"/>
<text text-anchor="middle" x="255" y="-85.8" font-family="Times,serif" font-size="14.00">elements</text>
</g>
<!-- elements&#45;&gt;component -->
<g id="edge3" class="edge"><title>elements&#45;&gt;component</title>
<path fill="none" stroke="black" d="M231.605,-75.0027C215.558,-65.4022 193.92,-52.4562 175.49,-41.4297"/>
<polygon fill="black" stroke="black" points="177.117,-38.3247 166.738,-36.194 173.523,-44.3317 177.117,-38.3247"/>
</g>
</g>
</svg>
