<?xml version="1.0" encoding="UTF-8" standalone="no"?>
<!DOCTYPE svg PUBLIC "-//W3C//DTD SVG 1.1//EN"
 "http://www.w3.org/Graphics/SVG/1.1/DTD/svg11.dtd">
<!-- Generated by graphviz version 2.36.0 (20140111.2315)
 -->
<!-- Title: %3 Pages: 1 -->
<svg width="655pt" height="136pt"
 viewBox="0.00 0.00 655.00 136.00" xmlns="http://www.w3.org/2000/svg" xmlns:xlink="http://www.w3.org/1999/xlink">
<g id="graph0" class="graph" transform="scale(1 1) rotate(0) translate(4 132)">
<title>%3</title>
<g id="clust1" class="cluster"><title>cluster_buildstep</title>
<polygon fill="none" stroke="black" points="86,-8 86,-120 367,-120 367,-8 86,-8"/>
<text text-anchor="middle" x="226.5" y="-104.8" font-family="Times,serif" font-size="14.00">build step</text>
</g>
<g id="clust2" class="cluster"><title>cluster_transpiler</title>
<polygon fill="none" stroke="black" points="94,-16 94,-90 210,-90 210,-16 94,-16"/>
<text text-anchor="middle" x="152" y="-74.8" font-family="Times,serif" font-size="14.00">typescript/babel/..</text>
</g>
<g id="clust3" class="cluster"><title>cluster_bundler</title>
<polygon fill="none" stroke="black" points="246,-16 246,-90 359,-90 359,-16 246,-16"/>
<text text-anchor="middle" x="302.5" y="-74.8" font-family="Times,serif" font-size="14.00">webpack/rollup/..</text>
</g>
<g id="clust4" class="cluster"><title>cluster_browser</title>
<polygon fill="none" stroke="black" points="375,-8 375,-120 639,-120 639,-8 375,-8"/>
<text text-anchor="middle" x="507" y="-104.8" font-family="Times,serif" font-size="14.00">browser</text>
</g>
<g id="clust5" class="cluster"><title>cluster_angular</title>
<polygon fill="none" stroke="black" points="383,-16 383,-90 549,-90 549,-16 383,-16"/>
<text text-anchor="middle" x="466" y="-74.8" font-family="Times,serif" font-size="14.00">angular bootstrap</text>
</g>
<!-- transpiler -->
<g id="node1" class="node"><title>transpiler</title>
<ellipse fill="none" stroke="black" cx="152" cy="-42" rx="43.506" ry="18"/>
<text text-anchor="middle" x="152" y="-37.8" font-family="Times,serif" font-size="14.00">transpiler</text>
</g>
<!-- bundler -->
<g id="node2" class="node"><title>bundler</title>
<ellipse fill="none" stroke="black" cx="302" cy="-42" rx="37.2421" ry="18"/>
<text text-anchor="middle" x="302" y="-37.8" font-family="Times,serif" font-size="14.00">bundler</text>
</g>
<!-- transpiler&#45;&gt;bundler -->
<g id="edge2" class="edge"><title>transpiler&#45;&gt;bundler</title>
<path fill="none" stroke="black" d="M195.808,-42C214.248,-42 235.851,-42 254.667,-42"/>
<polygon fill="black" stroke="black" points="254.795,-45.5001 264.795,-42 254.795,-38.5001 254.795,-45.5001"/>
</g>
<!-- templateCompiler -->
<g id="node3" class="node"><title>templateCompiler</title>
<ellipse fill="none" stroke="black" cx="466" cy="-42" rx="74.8857" ry="18"/>
<text text-anchor="middle" x="466" y="-37.8" font-family="Times,serif" font-size="14.00">compile templates</text>
</g>
<!-- bundler&#45;&gt;templateCompiler -->
<g id="edge3" class="edge"><title>bundler&#45;&gt;templateCompiler</title>
<path fill="none" stroke="black" d="M339.356,-42C351.862,-42 366.433,-42 381.131,-42"/>
<polygon fill="black" stroke="black" points="381.302,-45.5001 391.302,-42 381.302,-38.5001 381.302,-45.5001"/>
</g>
<!-- run -->
<g id="node4" class="node"><title>run</title>
<ellipse fill="none" stroke="black" cx="604" cy="-42" rx="27" ry="18"/>
<text text-anchor="middle" x="604" y="-37.8" font-family="Times,serif" font-size="14.00">run</text>
</g>
<!-- templateCompiler&#45;&gt;run -->
<g id="edge4" class="edge"><title>templateCompiler&#45;&gt;run</title>
<path fill="none" stroke="black" d="M540.97,-42C549.893,-42 558.679,-42 566.705,-42"/>
<polygon fill="black" stroke="black" points="566.767,-45.5001 576.767,-42 566.766,-38.5001 566.767,-45.5001"/>
</g>
<!-- source -->
<g id="node5" class="node"><title>source</title>
<ellipse fill="none" stroke="black" cx="33" cy="-42" rx="33.3752" ry="18"/>
<text text-anchor="middle" x="33" y="-37.8" font-family="Times,serif" font-size="14.00">source</text>
</g>
<!-- source&#45;&gt;transpiler -->
<g id="edge1" class="edge"><title>source&#45;&gt;transpiler</title>
<path fill="none" stroke="black" d="M66.2805,-42C76.122,-42 87.2118,-42 98.0456,-42"/>
<polygon fill="black" stroke="black" points="98.3051,-45.5001 108.305,-42 98.3051,-38.5001 98.3051,-45.5001"/>
</g>
</g>
</svg>
