<?xml version="1.0" encoding="UTF-8" standalone="no"?>
<!DOCTYPE svg PUBLIC "-//W3C//DTD SVG 1.1//EN"
 "http://www.w3.org/Graphics/SVG/1.1/DTD/svg11.dtd">
<!-- Generated by graphviz version 2.36.0 (20140111.2315)
 -->
<!-- Title: %3 Pages: 1 -->
<svg width="742pt" height="98pt"
 viewBox="0.00 0.00 742.00 98.00" xmlns="http://www.w3.org/2000/svg" xmlns:xlink="http://www.w3.org/1999/xlink">
<g id="graph0" class="graph" transform="scale(1 1) rotate(0) translate(4 94)">
<title>%3</title>
<!-- source -->
<g id="node1" class="node"><title>source</title>
<ellipse fill="none" stroke="black" cx="57" cy="-72" rx="33.3752" ry="18"/>
<text text-anchor="middle" x="57" y="-67.8" font-family="Times,serif" font-size="14.00">source</text>
</g>
<!-- transpiler -->
<g id="node2" class="node"><title>transpiler</title>
<ellipse fill="none" stroke="black" cx="212" cy="-72" rx="43.506" ry="18"/>
<text text-anchor="middle" x="212" y="-67.8" font-family="Times,serif" font-size="14.00">transpiler</text>
</g>
<!-- source&#45;&gt;transpiler -->
<g id="edge1" class="edge"><title>source&#45;&gt;transpiler</title>
<path fill="none" stroke="black" d="M90.4474,-72C110.149,-72 135.764,-72 158.313,-72"/>
<polygon fill="black" stroke="black" points="158.425,-75.5001 168.425,-72 158.425,-68.5001 158.425,-75.5001"/>
</g>
<!-- sourcefoo -->
<g id="node6" class="node"><title>sourcefoo</title>
<polygon fill="none" stroke="black" points="113.754,-36 0.245828,-36 0.245828,-0 113.754,-0 113.754,-36"/>
<text text-anchor="middle" x="57" y="-20.8" font-family="Times,serif" font-size="14.00">Your source files,</text>
<text text-anchor="middle" x="57" y="-6.8" font-family="Times,serif" font-size="14.00">with 1 entry file</text>
</g>
<!-- source&#45;&gt;sourcefoo -->
<g id="edge5" class="edge"><title>source&#45;&gt;sourcefoo</title>
<path fill="none" stroke="black" d="M57,-53.7902C57,-47.907 57,-42.0238 57,-36.1406"/>
</g>
<!-- bundler -->
<g id="node3" class="node"><title>bundler</title>
<ellipse fill="none" stroke="black" cx="359" cy="-72" rx="37.2421" ry="18"/>
<text text-anchor="middle" x="359" y="-67.8" font-family="Times,serif" font-size="14.00">bundler</text>
</g>
<!-- transpiler&#45;&gt;bundler -->
<g id="edge2" class="edge"><title>transpiler&#45;&gt;bundler</title>
<path fill="none" stroke="black" d="M255.721,-72C273.179,-72 293.425,-72 311.275,-72"/>
<polygon fill="black" stroke="black" points="311.469,-75.5001 321.469,-72 311.469,-68.5001 311.469,-75.5001"/>
</g>
<!-- transpilerfoo -->
<g id="node7" class="node"><title>transpilerfoo</title>
<polygon fill="none" stroke="black" points="274.474,-36 149.526,-36 149.526,-0 274.474,-0 274.474,-36"/>
<text text-anchor="middle" x="212" y="-20.8" font-family="Times,serif" font-size="14.00">transforming</text>
<text text-anchor="middle" x="212" y="-6.8" font-family="Times,serif" font-size="14.00">from typescript/es6</text>
</g>
<!-- transpiler&#45;&gt;transpilerfoo -->
<g id="edge6" class="edge"><title>transpiler&#45;&gt;transpilerfoo</title>
<path fill="none" stroke="black" d="M212,-53.7902C212,-47.907 212,-42.0238 212,-36.1406"/>
</g>
<!-- templateCompiler -->
<g id="node4" class="node"><title>templateCompiler</title>
<ellipse fill="none" stroke="black" cx="519" cy="-72" rx="74.8857" ry="18"/>
<text text-anchor="middle" x="519" y="-67.8" font-family="Times,serif" font-size="14.00">compile templates</text>
</g>
<!-- bundler&#45;&gt;templateCompiler -->
<g id="edge3" class="edge"><title>bundler&#45;&gt;templateCompiler</title>
<path fill="none" stroke="black" d="M396.248,-72C407.647,-72 420.744,-72 434.03,-72"/>
<polygon fill="black" stroke="black" points="434.201,-75.5001 444.201,-72 434.201,-68.5001 434.201,-75.5001"/>
</g>
<!-- bundlerfoo -->
<g id="node8" class="node"><title>bundlerfoo</title>
<polygon fill="none" stroke="black" points="407.513,-36 310.487,-36 310.487,-0 407.513,-0 407.513,-36"/>
<text text-anchor="middle" x="359" y="-20.8" font-family="Times,serif" font-size="14.00">walk the tree,</text>
<text text-anchor="middle" x="359" y="-6.8" font-family="Times,serif" font-size="14.00">merge to 1 file</text>
</g>
<!-- bundler&#45;&gt;bundlerfoo -->
<g id="edge7" class="edge"><title>bundler&#45;&gt;bundlerfoo</title>
<path fill="none" stroke="black" d="M359,-53.7902C359,-47.907 359,-42.0238 359,-36.1406"/>
</g>
<!-- run -->
<g id="node5" class="node"><title>run</title>
<ellipse fill="none" stroke="black" cx="682" cy="-72" rx="27" ry="18"/>
<text text-anchor="middle" x="682" y="-67.8" font-family="Times,serif" font-size="14.00">run</text>
</g>
<!-- templateCompiler&#45;&gt;run -->
<g id="edge4" class="edge"><title>templateCompiler&#45;&gt;run</title>
<path fill="none" stroke="black" d="M593.903,-72C611.464,-72 629.447,-72 644.478,-72"/>
<polygon fill="black" stroke="black" points="644.853,-75.5001 654.853,-72 644.853,-68.5001 644.853,-75.5001"/>
</g>
<!-- templateCompilerfoo -->
<g id="node9" class="node"><title>templateCompilerfoo</title>
<polygon fill="none" stroke="black" points="578.524,-36 459.476,-36 459.476,-0 578.524,-0 578.524,-36"/>
<text text-anchor="middle" x="519" y="-20.8" font-family="Times,serif" font-size="14.00">compile the</text>
<text text-anchor="middle" x="519" y="-6.8" font-family="Times,serif" font-size="14.00">Angular templates</text>
</g>
<!-- templateCompiler&#45;&gt;templateCompilerfoo -->
<g id="edge8" class="edge"><title>templateCompiler&#45;&gt;templateCompilerfoo</title>
<path fill="none" stroke="black" d="M519,-53.7902C519,-47.907 519,-42.0238 519,-36.1406"/>
</g>
<!-- runfoo -->
<g id="node10" class="node"><title>runfoo</title>
<polygon fill="none" stroke="black" points="733.967,-36 630.033,-36 630.033,-0 733.967,-0 733.967,-36"/>
<text text-anchor="middle" x="682" y="-20.8" font-family="Times,serif" font-size="14.00">interact with</text>
<text text-anchor="middle" x="682" y="-6.8" font-family="Times,serif" font-size="14.00">the application!</text>
</g>
<!-- run&#45;&gt;runfoo -->
<g id="edge9" class="edge"><title>run&#45;&gt;runfoo</title>
<path fill="none" stroke="black" d="M682,-53.7902C682,-47.907 682,-42.0238 682,-36.1406"/>
</g>
</g>
</svg>
