<?xml version="1.0" encoding="UTF-8" standalone="no"?>
<!DOCTYPE svg PUBLIC "-//W3C//DTD SVG 1.1//EN"
 "http://www.w3.org/Graphics/SVG/1.1/DTD/svg11.dtd">
<!-- Generated by graphviz version 2.36.0 (20140111.2315)
 -->
<!-- Title: %3 Pages: 1 -->
<svg width="600pt" height="136pt"
 viewBox="0.00 0.00 600.00 136.00" xmlns="http://www.w3.org/2000/svg" xmlns:xlink="http://www.w3.org/1999/xlink">
<g id="graph0" class="graph" transform="scale(1 1) rotate(0) translate(4 132)">
<title>%3</title>
<g id="clust1" class="cluster"><title>cluster_browser</title>
<polygon fill="none" stroke="black" points="86,-8 86,-120 584,-120 584,-8 86,-8"/>
<text text-anchor="middle" x="335" y="-104.8" font-family="Times,serif" font-size="14.00">browser</text>
</g>
<g id="clust2" class="cluster"><title>cluster_systemjs</title>
<polygon fill="none" stroke="black" points="94,-16 94,-90 308,-90 308,-16 94,-16"/>
<text text-anchor="middle" x="201" y="-74.8" font-family="Times,serif" font-size="14.00">system js</text>
</g>
<g id="clust3" class="cluster"><title>cluster_angular</title>
<polygon fill="none" stroke="black" points="328,-16 328,-90 494,-90 494,-16 328,-16"/>
<text text-anchor="middle" x="411" y="-74.8" font-family="Times,serif" font-size="14.00">angular bootstrap</text>
</g>
<!-- transpiler -->
<g id="node1" class="node"><title>transpiler</title>
<ellipse fill="none" stroke="black" cx="146" cy="-42" rx="43.506" ry="18"/>
<text text-anchor="middle" x="146" y="-37.8" font-family="Times,serif" font-size="14.00">transpiler</text>
</g>
<!-- bundler -->
<g id="node2" class="node"><title>bundler</title>
<ellipse fill="none" stroke="black" cx="263" cy="-42" rx="37.2421" ry="18"/>
<text text-anchor="middle" x="263" y="-37.8" font-family="Times,serif" font-size="14.00">bundler</text>
</g>
<!-- transpiler&#45;&gt;bundler -->
<g id="edge2" class="edge"><title>transpiler&#45;&gt;bundler</title>
<path fill="none" stroke="black" d="M189.822,-42C198.175,-42 206.972,-42 215.44,-42"/>
<polygon fill="black" stroke="black" points="215.554,-45.5001 225.554,-42 215.554,-38.5001 215.554,-45.5001"/>
</g>
<!-- templateCompiler -->
<g id="node3" class="node"><title>templateCompiler</title>
<ellipse fill="none" stroke="black" cx="411" cy="-42" rx="74.8857" ry="18"/>
<text text-anchor="middle" x="411" y="-37.8" font-family="Times,serif" font-size="14.00">compile templates</text>
</g>
<!-- bundler&#45;&gt;templateCompiler -->
<g id="edge3" class="edge"><title>bundler&#45;&gt;templateCompiler</title>
<path fill="none" stroke="black" d="M300.465,-42C308.382,-42 317.07,-42 325.983,-42"/>
<polygon fill="black" stroke="black" points="326.112,-45.5001 336.112,-42 326.112,-38.5001 326.112,-45.5001"/>
</g>
<!-- run -->
<g id="node4" class="node"><title>run</title>
<ellipse fill="none" stroke="black" cx="549" cy="-42" rx="27" ry="18"/>
<text text-anchor="middle" x="549" y="-37.8" font-family="Times,serif" font-size="14.00">run</text>
</g>
<!-- templateCompiler&#45;&gt;run -->
<g id="edge4" class="edge"><title>templateCompiler&#45;&gt;run</title>
<path fill="none" stroke="black" d="M485.97,-42C494.893,-42 503.679,-42 511.705,-42"/>
<polygon fill="black" stroke="black" points="511.767,-45.5001 521.767,-42 511.766,-38.5001 511.767,-45.5001"/>
</g>
<!-- source -->
<g id="node5" class="node"><title>source</title>
<ellipse fill="none" stroke="black" cx="33" cy="-42" rx="33.3752" ry="18"/>
<text text-anchor="middle" x="33" y="-37.8" font-family="Times,serif" font-size="14.00">source</text>
</g>
<!-- source&#45;&gt;transpiler -->
<g id="edge1" class="edge"><title>source&#45;&gt;transpiler</title>
<path fill="none" stroke="black" d="M66.4042,-42C74.499,-42 83.3916,-42 92.1937,-42"/>
<polygon fill="black" stroke="black" points="92.4317,-45.5001 102.432,-42 92.4317,-38.5001 92.4317,-45.5001"/>
</g>
</g>
</svg>
