<?xml version="1.0" encoding="UTF-8" standalone="no"?>
<!DOCTYPE svg PUBLIC "-//W3C//DTD SVG 1.1//EN"
 "http://www.w3.org/Graphics/SVG/1.1/DTD/svg11.dtd">
<!-- Generated by graphviz version 2.36.0 (20140111.2315)
 -->
<!-- Title: %3 Pages: 1 -->
<svg width="584pt" height="44pt"
 viewBox="0.00 0.00 584.00 44.00" xmlns="http://www.w3.org/2000/svg" xmlns:xlink="http://www.w3.org/1999/xlink">
<g id="graph0" class="graph" transform="scale(1 1) rotate(0) translate(4 40)">
<title>%3</title>
<!-- source -->
<g id="node1" class="node"><title>source</title>
<ellipse fill="none" stroke="black" cx="33" cy="-18" rx="33.3752" ry="18"/>
<text text-anchor="middle" x="33" y="-13.8" font-family="Times,serif" font-size="14.00">source</text>
</g>
<!-- transpiler -->
<g id="node2" class="node"><title>transpiler</title>
<ellipse fill="none" stroke="black" cx="146" cy="-18" rx="43.506" ry="18"/>
<text text-anchor="middle" x="146" y="-13.8" font-family="Times,serif" font-size="14.00">transpiler</text>
</g>
<!-- source&#45;&gt;transpiler -->
<g id="edge1" class="edge"><title>source&#45;&gt;transpiler</title>
<path fill="none" stroke="black" d="M66.4042,-18C74.499,-18 83.3916,-18 92.1937,-18"/>
<polygon fill="black" stroke="black" points="92.4317,-21.5001 102.432,-18 92.4317,-14.5001 92.4317,-21.5001"/>
</g>
<!-- bundler -->
<g id="node3" class="node"><title>bundler</title>
<ellipse fill="none" stroke="black" cx="263" cy="-18" rx="37.2421" ry="18"/>
<text text-anchor="middle" x="263" y="-13.8" font-family="Times,serif" font-size="14.00">bundler</text>
</g>
<!-- transpiler&#45;&gt;bundler -->
<g id="edge2" class="edge"><title>transpiler&#45;&gt;bundler</title>
<path fill="none" stroke="black" d="M189.822,-18C198.175,-18 206.972,-18 215.44,-18"/>
<polygon fill="black" stroke="black" points="215.554,-21.5001 225.554,-18 215.554,-14.5001 215.554,-21.5001"/>
</g>
<!-- templateCompiler -->
<g id="node4" class="node"><title>templateCompiler</title>
<ellipse fill="none" stroke="black" cx="411" cy="-18" rx="74.8857" ry="18"/>
<text text-anchor="middle" x="411" y="-13.8" font-family="Times,serif" font-size="14.00">compile templates</text>
</g>
<!-- bundler&#45;&gt;templateCompiler -->
<g id="edge3" class="edge"><title>bundler&#45;&gt;templateCompiler</title>
<path fill="none" stroke="black" d="M300.465,-18C308.382,-18 317.07,-18 325.983,-18"/>
<polygon fill="black" stroke="black" points="326.112,-21.5001 336.112,-18 326.112,-14.5001 326.112,-21.5001"/>
</g>
<!-- run -->
<g id="node5" class="node"><title>run</title>
<ellipse fill="none" stroke="black" cx="549" cy="-18" rx="27" ry="18"/>
<text text-anchor="middle" x="549" y="-13.8" font-family="Times,serif" font-size="14.00">run</text>
</g>
<!-- templateCompiler&#45;&gt;run -->
<g id="edge4" class="edge"><title>templateCompiler&#45;&gt;run</title>
<path fill="none" stroke="black" d="M485.97,-18C494.893,-18 503.679,-18 511.705,-18"/>
<polygon fill="black" stroke="black" points="511.767,-21.5001 521.767,-18 511.766,-14.5001 511.767,-21.5001"/>
</g>
</g>
</svg>
