<?xml version="1.0" encoding="UTF-8" standalone="no"?>
<!DOCTYPE svg PUBLIC "-//W3C//DTD SVG 1.1//EN"
 "http://www.w3.org/Graphics/SVG/1.1/DTD/svg11.dtd">
<!-- Generated by graphviz version 2.36.0 (20140111.2315)
 -->
<!-- Title: %3 Pages: 1 -->
<svg width="759pt" height="136pt"
 viewBox="0.00 0.00 759.00 136.00" xmlns="http://www.w3.org/2000/svg" xmlns:xlink="http://www.w3.org/1999/xlink">
<g id="graph0" class="graph" transform="scale(1 1) rotate(0) translate(4 132)">
<title>%3</title>
<g id="clust1" class="cluster"><title>cluster_buildstep</title>
<polygon fill="none" stroke="black" points="86,-8 86,-120 467,-120 467,-8 86,-8"/>
<text text-anchor="middle" x="276.5" y="-104.8" font-family="Times,serif" font-size="14.00">build step</text>
</g>
<g id="clust2" class="cluster"><title>cluster_transpiler</title>
<polygon fill="none" stroke="black" points="94,-16 94,-90 210,-90 210,-16 94,-16"/>
<text text-anchor="middle" x="152" y="-74.8" font-family="Times,serif" font-size="14.00">typescript/babel/..</text>
</g>
<g id="clust3" class="cluster"><title>cluster_bundler</title>
<polygon fill="none" stroke="black" points="246,-16 246,-90 359,-90 359,-16 246,-16"/>
<text text-anchor="middle" x="302.5" y="-74.8" font-family="Times,serif" font-size="14.00">webpack/rollup/..</text>
</g>
<g id="clust4" class="cluster"><title>cluster_browser</title>
<polygon fill="none" stroke="black" points="479,-8 479,-120 743,-120 743,-8 479,-8"/>
<text text-anchor="middle" x="611" y="-104.8" font-family="Times,serif" font-size="14.00">browser</text>
</g>
<g id="clust5" class="cluster"><title>cluster_angular</title>
<polygon fill="none" stroke="black" points="487,-16 487,-90 653,-90 653,-16 487,-16"/>
<text text-anchor="middle" x="570" y="-74.8" font-family="Times,serif" font-size="14.00">angular bootstrap</text>
</g>
<!-- transpiler -->
<g id="node1" class="node"><title>transpiler</title>
<ellipse fill="none" stroke="black" cx="152" cy="-42" rx="43.506" ry="18"/>
<text text-anchor="middle" x="152" y="-37.8" font-family="Times,serif" font-size="14.00">transpiler</text>
</g>
<!-- bundler -->
<g id="node2" class="node"><title>bundler</title>
<ellipse fill="none" stroke="black" cx="302" cy="-42" rx="37.2421" ry="18"/>
<text text-anchor="middle" x="302" y="-37.8" font-family="Times,serif" font-size="14.00">bundler</text>
</g>
<!-- transpiler&#45;&gt;bundler -->
<g id="edge2" class="edge"><title>transpiler&#45;&gt;bundler</title>
<path fill="none" stroke="black" d="M195.808,-42C214.248,-42 235.851,-42 254.667,-42"/>
<polygon fill="black" stroke="black" points="254.795,-45.5001 264.795,-42 254.795,-38.5001 254.795,-45.5001"/>
</g>
<!-- perf -->
<g id="node3" class="node"><title>perf</title>
<ellipse fill="none" stroke="black" stroke-dasharray="5,2" cx="427" cy="-42" rx="32.4324" ry="18"/>
<text text-anchor="middle" x="427" y="-37.8" font-family="Times,serif" font-size="14.00">shrink</text>
</g>
<!-- bundler&#45;&gt;perf -->
<g id="edge4" class="edge"><title>bundler&#45;&gt;perf</title>
<path fill="none" stroke="black" stroke-dasharray="5,2" d="M339.239,-42C353.38,-42 369.679,-42 384.305,-42"/>
<polygon fill="black" stroke="black" points="384.604,-45.5001 394.604,-42 384.604,-38.5001 384.604,-45.5001"/>
</g>
<!-- templateCompiler -->
<g id="node4" class="node"><title>templateCompiler</title>
<ellipse fill="none" stroke="black" cx="570" cy="-42" rx="74.8857" ry="18"/>
<text text-anchor="middle" x="570" y="-37.8" font-family="Times,serif" font-size="14.00">compile templates</text>
</g>
<!-- perf&#45;&gt;templateCompiler -->
<g id="edge5" class="edge"><title>perf&#45;&gt;templateCompiler</title>
<path fill="none" stroke="black" stroke-dasharray="5,2" d="M459.292,-42C467.074,-42 475.789,-42 484.816,-42"/>
<polygon fill="black" stroke="black" points="485.106,-45.5001 495.106,-42 485.106,-38.5001 485.106,-45.5001"/>
</g>
<!-- run -->
<g id="node5" class="node"><title>run</title>
<ellipse fill="none" stroke="black" cx="708" cy="-42" rx="27" ry="18"/>
<text text-anchor="middle" x="708" y="-37.8" font-family="Times,serif" font-size="14.00">run</text>
</g>
<!-- templateCompiler&#45;&gt;run -->
<g id="edge3" class="edge"><title>templateCompiler&#45;&gt;run</title>
<path fill="none" stroke="black" d="M644.97,-42C653.893,-42 662.679,-42 670.705,-42"/>
<polygon fill="black" stroke="black" points="670.767,-45.5001 680.767,-42 670.766,-38.5001 670.767,-45.5001"/>
</g>
<!-- source -->
<g id="node6" class="node"><title>source</title>
<ellipse fill="none" stroke="black" cx="33" cy="-42" rx="33.3752" ry="18"/>
<text text-anchor="middle" x="33" y="-37.8" font-family="Times,serif" font-size="14.00">source</text>
</g>
<!-- source&#45;&gt;transpiler -->
<g id="edge1" class="edge"><title>source&#45;&gt;transpiler</title>
<path fill="none" stroke="black" d="M66.2805,-42C76.122,-42 87.2118,-42 98.0456,-42"/>
<polygon fill="black" stroke="black" points="98.3051,-45.5001 108.305,-42 98.3051,-38.5001 98.3051,-45.5001"/>
</g>
</g>
</svg>
