<?xml version="1.0" encoding="UTF-8" standalone="no"?>
<!DOCTYPE svg PUBLIC "-//W3C//DTD SVG 1.1//EN"
 "http://www.w3.org/Graphics/SVG/1.1/DTD/svg11.dtd">
<!-- Generated by graphviz version 2.36.0 (20140111.2315)
 -->
<!-- Title: %3 Pages: 1 -->
<svg width="748pt" height="206pt"
 viewBox="0.00 0.00 748.00 206.00" xmlns="http://www.w3.org/2000/svg" xmlns:xlink="http://www.w3.org/1999/xlink">
<g id="graph0" class="graph" transform="scale(1 1) rotate(0) translate(4 202)">
<title>%3</title>
<!-- source -->
<g id="node1" class="node"><title>source</title>
<ellipse fill="none" stroke="black" stroke-dasharray="5,2" cx="60" cy="-180" rx="33.3752" ry="18"/>
<text text-anchor="middle" x="60" y="-175.8" font-family="Times,serif" font-size="14.00">source</text>
</g>
<!-- transpiler -->
<g id="node2" class="node"><title>transpiler</title>
<ellipse fill="none" stroke="black" stroke-dasharray="5,2" cx="218" cy="-180" rx="43.506" ry="18"/>
<text text-anchor="middle" x="218" y="-175.8" font-family="Times,serif" font-size="14.00">transpiler</text>
</g>
<!-- source&#45;&gt;transpiler -->
<g id="edge1" class="edge"><title>source&#45;&gt;transpiler</title>
<path fill="none" stroke="black" stroke-dasharray="5,2" d="M93.3233,-180C113.769,-180 140.68,-180 164.176,-180"/>
<polygon fill="black" stroke="black" points="164.351,-183.5 174.351,-180 164.351,-176.5 164.351,-183.5"/>
</g>
<!-- sourcefoo -->
<g id="node6" class="node"><title>sourcefoo</title>
<polygon fill="none" stroke="black" stroke-dasharray="5,2" points="119.797,-144 0.202953,-144 0.202953,-94 119.797,-94 119.797,-144"/>
<text text-anchor="middle" x="60" y="-128.8" font-family="Times,serif" font-size="14.00">Your source files</text>
<text text-anchor="middle" x="60" y="-114.8" font-family="Times,serif" font-size="14.00">&amp; npm packages</text>
<text text-anchor="middle" x="60" y="-100.8" font-family="Times,serif" font-size="14.00">with dependencies</text>
</g>
<!-- source&#45;&gt;sourcefoo -->
<g id="edge5" class="edge"><title>source&#45;&gt;sourcefoo</title>
<path fill="none" stroke="black" stroke-dasharray="5,2" d="M60,-161.85C60,-155.986 60,-150.122 60,-144.258"/>
</g>
<!-- bundler -->
<g id="node3" class="node"><title>bundler</title>
<ellipse fill="none" stroke="black" stroke-dasharray="5,2" cx="365" cy="-180" rx="37.2421" ry="18"/>
<text text-anchor="middle" x="365" y="-175.8" font-family="Times,serif" font-size="14.00">bundler</text>
</g>
<!-- transpiler&#45;&gt;bundler -->
<g id="edge2" class="edge"><title>transpiler&#45;&gt;bundler</title>
<path fill="none" stroke="black" stroke-dasharray="5,2" d="M261.721,-180C279.179,-180 299.425,-180 317.275,-180"/>
<polygon fill="black" stroke="black" points="317.469,-183.5 327.469,-180 317.469,-176.5 317.469,-183.5"/>
</g>
<!-- transpilerfoo -->
<g id="node7" class="node"><title>transpilerfoo</title>
<polygon fill="none" stroke="black" stroke-dasharray="5,2" points="280.474,-144 155.526,-144 155.526,-108 280.474,-108 280.474,-144"/>
<text text-anchor="middle" x="218" y="-128.8" font-family="Times,serif" font-size="14.00">translating</text>
<text text-anchor="middle" x="218" y="-114.8" font-family="Times,serif" font-size="14.00">from typescript/es6</text>
</g>
<!-- transpiler&#45;&gt;transpilerfoo -->
<g id="edge6" class="edge"><title>transpiler&#45;&gt;transpilerfoo</title>
<path fill="none" stroke="black" stroke-dasharray="5,2" d="M218,-161.79C218,-155.907 218,-150.024 218,-144.141"/>
</g>
<!-- templateCompiler -->
<g id="node4" class="node"><title>templateCompiler</title>
<ellipse fill="none" stroke="black" cx="525" cy="-180" rx="74.8857" ry="18"/>
<text text-anchor="middle" x="525" y="-175.8" font-family="Times,serif" font-size="14.00">compile templates</text>
</g>
<!-- bundler&#45;&gt;templateCompiler -->
<g id="edge3" class="edge"><title>bundler&#45;&gt;templateCompiler</title>
<path fill="none" stroke="black" stroke-dasharray="5,2" d="M402.248,-180C413.647,-180 426.744,-180 440.03,-180"/>
<polygon fill="black" stroke="black" points="440.201,-183.5 450.201,-180 440.201,-176.5 440.201,-183.5"/>
</g>
<!-- bundlerfoo -->
<g id="node8" class="node"><title>bundlerfoo</title>
<polygon fill="none" stroke="black" stroke-dasharray="5,2" points="413.513,-144 316.487,-144 316.487,-108 413.513,-108 413.513,-144"/>
<text text-anchor="middle" x="365" y="-128.8" font-family="Times,serif" font-size="14.00">walk the tree,</text>
<text text-anchor="middle" x="365" y="-114.8" font-family="Times,serif" font-size="14.00">merge to 1 file</text>
</g>
<!-- bundler&#45;&gt;bundlerfoo -->
<g id="edge7" class="edge"><title>bundler&#45;&gt;bundlerfoo</title>
<path fill="none" stroke="black" stroke-dasharray="5,2" d="M365,-161.79C365,-155.907 365,-150.024 365,-144.141"/>
</g>
<!-- run -->
<g id="node5" class="node"><title>run</title>
<ellipse fill="none" stroke="black" cx="688" cy="-180" rx="27" ry="18"/>
<text text-anchor="middle" x="688" y="-175.8" font-family="Times,serif" font-size="14.00">run</text>
</g>
<!-- templateCompiler&#45;&gt;run -->
<g id="edge4" class="edge"><title>templateCompiler&#45;&gt;run</title>
<path fill="none" stroke="black" d="M599.903,-180C617.464,-180 635.447,-180 650.478,-180"/>
<polygon fill="black" stroke="black" points="650.853,-183.5 660.853,-180 650.853,-176.5 650.853,-183.5"/>
</g>
<!-- templateCompilerfoo -->
<g id="node9" class="node"><title>templateCompilerfoo</title>
<polygon fill="none" stroke="black" points="584.524,-144 465.476,-144 465.476,-108 584.524,-108 584.524,-144"/>
<text text-anchor="middle" x="525" y="-128.8" font-family="Times,serif" font-size="14.00">compile the</text>
<text text-anchor="middle" x="525" y="-114.8" font-family="Times,serif" font-size="14.00">Angular templates</text>
</g>
<!-- templateCompiler&#45;&gt;templateCompilerfoo -->
<g id="edge8" class="edge"><title>templateCompiler&#45;&gt;templateCompilerfoo</title>
<path fill="none" stroke="black" d="M525,-161.79C525,-155.907 525,-150.024 525,-144.141"/>
</g>
<!-- runfoo -->
<g id="node10" class="node"><title>runfoo</title>
<polygon fill="none" stroke="black" points="739.967,-144 636.033,-144 636.033,-108 739.967,-108 739.967,-144"/>
<text text-anchor="middle" x="688" y="-128.8" font-family="Times,serif" font-size="14.00">interact with</text>
<text text-anchor="middle" x="688" y="-114.8" font-family="Times,serif" font-size="14.00">the application!</text>
</g>
<!-- run&#45;&gt;runfoo -->
<g id="edge9" class="edge"><title>run&#45;&gt;runfoo</title>
<path fill="none" stroke="black" d="M688,-161.79C688,-155.907 688,-150.024 688,-144.141"/>
</g>
<!-- source2 -->
<g id="node11" class="node"><title>source2</title>
<ellipse fill="none" stroke="black" cx="365" cy="-72" rx="33.3752" ry="18"/>
<text text-anchor="middle" x="365" y="-67.8" font-family="Times,serif" font-size="14.00">source</text>
</g>
<!-- source2&#45;&gt;templateCompiler -->
<g id="edge10" class="edge"><title>source2:e&#45;&gt;templateCompiler</title>
<path fill="none" stroke="black" d="M399,-72C441.541,-72 416.904,-126.271 450,-153 454.389,-156.544 459.284,-159.648 464.41,-162.36"/>
<polygon fill="black" stroke="black" points="463.289,-165.702 473.824,-166.83 466.292,-159.379 463.289,-165.702"/>
</g>
<!-- source2foo -->
<g id="node12" class="node"><title>source2foo</title>
<polygon fill="none" stroke="black" points="408.642,-36 321.358,-36 321.358,-0 408.642,-0 408.642,-36"/>
<text text-anchor="middle" x="365" y="-20.8" font-family="Times,serif" font-size="14.00">Single file</text>
<text text-anchor="middle" x="365" y="-6.8" font-family="Times,serif" font-size="14.00">es3/es5 code</text>
</g>
<!-- source2&#45;&gt;source2foo -->
<g id="edge11" class="edge"><title>source2&#45;&gt;source2foo</title>
<path fill="none" stroke="black" d="M365,-53.7902C365,-47.907 365,-42.0238 365,-36.1406"/>
</g>
<!-- scripts -->
<g id="node13" class="node"><title>scripts</title>
<ellipse fill="none" stroke="black" cx="525" cy="-72" rx="33.3925" ry="18"/>
<text text-anchor="middle" x="525" y="-67.8" font-family="Times,serif" font-size="14.00">scripts</text>
</g>
<!-- scripts&#45;&gt;templateCompiler -->
<g id="edge12" class="edge"><title>scripts&#45;&gt;templateCompiler</title>
<path fill="none" stroke="black" d="M491.944,-74.9406C470.604,-78.8026 444.561,-87.6759 432,-108 423.588,-121.61 423.588,-130.39 432,-144 437.587,-153.04 445.842,-159.815 455.164,-164.891"/>
<polygon fill="black" stroke="black" points="453.84,-168.137 464.376,-169.255 456.837,-161.811 453.84,-168.137"/>
</g>
<!-- scriptsfoo -->
<g id="node14" class="node"><title>scriptsfoo</title>
<polygon fill="none" stroke="black" points="579.68,-36 470.32,-36 470.32,-0 579.68,-0 579.68,-36"/>
<text text-anchor="middle" x="525" y="-20.8" font-family="Times,serif" font-size="14.00">Dependencies as</text>
<text text-anchor="middle" x="525" y="-6.8" font-family="Times,serif" font-size="14.00">script tags</text>
</g>
<!-- scripts&#45;&gt;scriptsfoo -->
<g id="edge13" class="edge"><title>scripts&#45;&gt;scriptsfoo</title>
<path fill="none" stroke="black" d="M525,-53.7902C525,-47.907 525,-42.0238 525,-36.1406"/>
</g>
</g>
</svg>
