<?xml version="1.0" encoding="UTF-8" standalone="no"?>
<!DOCTYPE svg PUBLIC "-//W3C//DTD SVG 1.1//EN"
 "http://www.w3.org/Graphics/SVG/1.1/DTD/svg11.dtd">
<!-- Generated by graphviz version 2.36.0 (20140111.2315)
 -->
<!-- Title: %3 Pages: 1 -->
<svg width="600pt" height="98pt"
 viewBox="0.00 0.00 600.00 98.00" xmlns="http://www.w3.org/2000/svg" xmlns:xlink="http://www.w3.org/1999/xlink">
<g id="graph0" class="graph" transform="scale(1 1) rotate(0) translate(4 94)">
<title>%3</title>
<g id="clust1" class="cluster"><title>cluster_buildstep</title>
<polygon fill="none" stroke="black" points="94,-8 94,-82 494,-82 494,-8 94,-8"/>
<text text-anchor="middle" x="294" y="-66.8" font-family="Times,serif" font-size="14.00">build step</text>
</g>
<g id="clust2" class="cluster"><title>cluster_browser</title>
<polygon fill="none" stroke="black" points="514,-8 514,-82 584,-82 584,-8 514,-8"/>
<text text-anchor="middle" x="549" y="-66.8" font-family="Times,serif" font-size="14.00">browser</text>
</g>
<!-- transpiler -->
<g id="node1" class="node"><title>transpiler</title>
<ellipse fill="none" stroke="black" cx="146" cy="-34" rx="43.506" ry="18"/>
<text text-anchor="middle" x="146" y="-29.8" font-family="Times,serif" font-size="14.00">transpiler</text>
</g>
<!-- bundler -->
<g id="node2" class="node"><title>bundler</title>
<ellipse fill="none" stroke="black" cx="263" cy="-34" rx="37.2421" ry="18"/>
<text text-anchor="middle" x="263" y="-29.8" font-family="Times,serif" font-size="14.00">bundler</text>
</g>
<!-- transpiler&#45;&gt;bundler -->
<g id="edge2" class="edge"><title>transpiler&#45;&gt;bundler</title>
<path fill="none" stroke="black" d="M189.822,-34C198.175,-34 206.972,-34 215.44,-34"/>
<polygon fill="black" stroke="black" points="215.554,-37.5001 225.554,-34 215.554,-30.5001 215.554,-37.5001"/>
</g>
<!-- templateCompiler -->
<g id="node3" class="node"><title>templateCompiler</title>
<ellipse fill="none" stroke="red" cx="411" cy="-34" rx="74.8857" ry="18"/>
<text text-anchor="middle" x="411" y="-29.8" font-family="Times,serif" font-size="14.00" fill="red">compile templates</text>
</g>
<!-- bundler&#45;&gt;templateCompiler -->
<g id="edge3" class="edge"><title>bundler&#45;&gt;templateCompiler</title>
<path fill="none" stroke="black" d="M300.465,-34C308.382,-34 317.07,-34 325.983,-34"/>
<polygon fill="black" stroke="black" points="326.112,-37.5001 336.112,-34 326.112,-30.5001 326.112,-37.5001"/>
</g>
<!-- run -->
<g id="node4" class="node"><title>run</title>
<ellipse fill="none" stroke="black" cx="549" cy="-34" rx="27" ry="18"/>
<text text-anchor="middle" x="549" y="-29.8" font-family="Times,serif" font-size="14.00">run</text>
</g>
<!-- templateCompiler&#45;&gt;run -->
<g id="edge4" class="edge"><title>templateCompiler&#45;&gt;run</title>
<path fill="none" stroke="black" d="M485.97,-34C494.893,-34 503.679,-34 511.705,-34"/>
<polygon fill="black" stroke="black" points="511.767,-37.5001 521.767,-34 511.766,-30.5001 511.767,-37.5001"/>
</g>
<!-- source -->
<g id="node5" class="node"><title>source</title>
<ellipse fill="none" stroke="black" cx="33" cy="-34" rx="33.3752" ry="18"/>
<text text-anchor="middle" x="33" y="-29.8" font-family="Times,serif" font-size="14.00">source</text>
</g>
<!-- source&#45;&gt;transpiler -->
<g id="edge1" class="edge"><title>source&#45;&gt;transpiler</title>
<path fill="none" stroke="black" d="M66.4042,-34C74.499,-34 83.3916,-34 92.1937,-34"/>
<polygon fill="black" stroke="black" points="92.4317,-37.5001 102.432,-34 92.4317,-30.5001 92.4317,-37.5001"/>
</g>
</g>
</svg>
