<?xml version="1.0" encoding="UTF-8" standalone="no"?>
<!DOCTYPE svg PUBLIC "-//W3C//DTD SVG 1.1//EN"
 "http://www.w3.org/Graphics/SVG/1.1/DTD/svg11.dtd">
<!-- Generated by graphviz version 2.36.0 (20140111.2315)
 -->
<!-- Title: %3 Pages: 1 -->
<svg width="614pt" height="65pt"
 viewBox="0.00 0.00 614.00 64.54" xmlns="http://www.w3.org/2000/svg" xmlns:xlink="http://www.w3.org/1999/xlink">
<g id="graph0" class="graph" transform="scale(1 1) rotate(0) translate(4 60.5391)">
<title>%3</title>
<!-- source -->
<g id="node1" class="node"><title>source</title>
<ellipse fill="none" stroke="black" cx="33" cy="-38.5391" rx="33.3752" ry="18"/>
<text text-anchor="middle" x="33" y="-34.3391" font-family="Times,serif" font-size="14.00">source</text>
</g>
<!-- transpiler -->
<g id="node2" class="node"><title>transpiler</title>
<ellipse fill="none" stroke="black" cx="148" cy="-38.5391" rx="43.506" ry="18"/>
<text text-anchor="middle" x="148" y="-34.3391" font-family="Times,serif" font-size="14.00">transpiler</text>
</g>
<!-- source&#45;&gt;transpiler -->
<g id="edge1" class="edge"><title>source&#45;&gt;transpiler</title>
<path fill="none" stroke="black" d="M66.3813,-38.5391C75.098,-38.5391 84.7576,-38.5391 94.2737,-38.5391"/>
<polygon fill="black" stroke="black" points="94.4922,-42.0392 104.492,-38.5391 94.4921,-35.0392 94.4922,-42.0392"/>
</g>
<!-- templateCompiler -->
<g id="node4" class="node"><title>templateCompiler</title>
<ellipse fill="none" stroke="black" cx="439" cy="-38.5391" rx="74.8857" ry="18"/>
<text text-anchor="middle" x="439" y="-34.3391" font-family="Times,serif" font-size="14.00">compile templates</text>
</g>
<!-- source&#45;&gt;templateCompiler -->
<g id="edge5" class="edge"><title>source&#45;&gt;templateCompiler</title>
<path fill="none" stroke="black" stroke-dasharray="5,2" d="M58.2958,-26.623C71.4745,-20.819 88.2493,-14.4715 104,-11.5391 201,6.51961 228.023,0.103859 326,-11.5391 344.18,-13.6996 363.679,-17.767 381.228,-22.1014"/>
<polygon fill="black" stroke="black" points="380.756,-25.593 391.311,-24.6719 382.486,-18.81 380.756,-25.593"/>
<text text-anchor="middle" x="222" y="-3.33913" font-family="Times,serif" font-size="14.00">ES3</text>
</g>
<!-- bundler -->
<g id="node3" class="node"><title>bundler</title>
<ellipse fill="none" stroke="black" cx="289" cy="-38.5391" rx="37.2421" ry="18"/>
<text text-anchor="middle" x="289" y="-34.3391" font-family="Times,serif" font-size="14.00">bundler</text>
</g>
<!-- transpiler&#45;&gt;bundler -->
<g id="edge2" class="edge"><title>transpiler&#45;&gt;bundler</title>
<path fill="none" stroke="black" d="M191.839,-38.5391C207.543,-38.5391 225.388,-38.5391 241.406,-38.5391"/>
<polygon fill="black" stroke="black" points="241.627,-42.0392 251.627,-38.5391 241.627,-35.0392 241.627,-42.0392"/>
</g>
<!-- bundler&#45;&gt;templateCompiler -->
<g id="edge3" class="edge"><title>bundler&#45;&gt;templateCompiler</title>
<path fill="none" stroke="black" d="M326.205,-38.5391C334.779,-38.5391 344.279,-38.5391 354.014,-38.5391"/>
<polygon fill="black" stroke="black" points="354.214,-42.0392 364.214,-38.5391 354.214,-35.0392 354.214,-42.0392"/>
</g>
<!-- run -->
<g id="node5" class="node"><title>run</title>
<ellipse fill="none" stroke="black" cx="579" cy="-38.5391" rx="27" ry="18"/>
<text text-anchor="middle" x="579" y="-34.3391" font-family="Times,serif" font-size="14.00">run</text>
</g>
<!-- templateCompiler&#45;&gt;run -->
<g id="edge4" class="edge"><title>templateCompiler&#45;&gt;run</title>
<path fill="none" stroke="black" d="M513.848,-38.5391C523.507,-38.5391 533.038,-38.5391 541.68,-38.5391"/>
<polygon fill="black" stroke="black" points="541.729,-42.0392 551.729,-38.5391 541.729,-35.0392 541.729,-42.0392"/>
</g>
</g>
</svg>
