<?xml version="1.0" encoding="UTF-8" standalone="no"?>
<!DOCTYPE svg PUBLIC "-//W3C//DTD SVG 1.1//EN"
 "http://www.w3.org/Graphics/SVG/1.1/DTD/svg11.dtd">
<!-- Generated by graphviz version 2.36.0 (20140111.2315)
 -->
<!-- Title: %3 Pages: 1 -->
<svg width="706pt" height="368pt"
 viewBox="0.00 0.00 706.00 368.00" xmlns="http://www.w3.org/2000/svg" xmlns:xlink="http://www.w3.org/1999/xlink">
<g id="graph0" class="graph" transform="scale(1 1) rotate(0) translate(4 364)">
<title>%3</title>
<!-- col0 -->
<g id="node1" class="node"><title>col0</title>
<ellipse fill="none" stroke="none" cx="27" cy="-18" rx="27" ry="18"/>
<text text-anchor="middle" x="27" y="-13.8" font-family="Times,serif" font-size="14.00" fill="#fffffe"> </text>
</g>
<!-- col1 -->
<g id="node2" class="node"><title>col1</title>
<ellipse fill="none" stroke="none" cx="120" cy="-18" rx="27" ry="18"/>
<text text-anchor="middle" x="120" y="-13.8" font-family="Times,serif" font-size="14.00" fill="#fffffe"> </text>
</g>
<!-- col0&#45;&gt;col1 -->
<g id="edge11" class="edge"><title>col0&#45;&gt;col1</title>
<path fill="none" stroke="none" d="M54.321,-18C63.1872,-18 73.2426,-18 82.7377,-18"/>
<polygon fill="none" stroke="none" points="82.7382,-21.5001 92.7382,-18 82.7381,-14.5001 82.7382,-21.5001"/>
</g>
<!-- col2 -->
<g id="node3" class="node"><title>col2</title>
<ellipse fill="none" stroke="none" cx="238" cy="-18" rx="27" ry="18"/>
<text text-anchor="middle" x="238" y="-13.8" font-family="Times,serif" font-size="14.00" fill="#fffffe"> </text>
</g>
<!-- col1&#45;&gt;col2 -->
<g id="edge12" class="edge"><title>col1&#45;&gt;col2</title>
<path fill="none" stroke="none" d="M147.033,-18C162.743,-18 183.003,-18 200.319,-18"/>
<polygon fill="none" stroke="none" points="200.653,-21.5001 210.653,-18 200.653,-14.5001 200.653,-21.5001"/>
</g>
<!-- col3 -->
<g id="node4" class="node"><title>col3</title>
<ellipse fill="none" stroke="none" cx="358" cy="-18" rx="27" ry="18"/>
<text text-anchor="middle" x="358" y="-13.8" font-family="Times,serif" font-size="14.00" fill="#fffffe"> </text>
</g>
<!-- col2&#45;&gt;col3 -->
<g id="edge13" class="edge"><title>col2&#45;&gt;col3</title>
<path fill="none" stroke="none" d="M265.188,-18C281.534,-18 302.808,-18 320.761,-18"/>
<polygon fill="none" stroke="none" points="320.885,-21.5001 330.885,-18 320.885,-14.5001 320.885,-21.5001"/>
</g>
<!-- col4 -->
<g id="node5" class="node"><title>col4</title>
<ellipse fill="none" stroke="none" cx="458" cy="-18" rx="27" ry="18"/>
<text text-anchor="middle" x="458" y="-13.8" font-family="Times,serif" font-size="14.00" fill="#fffffe"> </text>
</g>
<!-- col3&#45;&gt;col4 -->
<g id="edge14" class="edge"><title>col3&#45;&gt;col4</title>
<path fill="none" stroke="none" d="M385.005,-18C395.969,-18 408.92,-18 420.794,-18"/>
<polygon fill="none" stroke="none" points="420.874,-21.5001 430.874,-18 420.874,-14.5001 420.874,-21.5001"/>
</g>
<!-- col5 -->
<g id="node6" class="node"><title>col5</title>
<ellipse fill="none" stroke="none" cx="567" cy="-18" rx="27" ry="18"/>
<text text-anchor="middle" x="567" y="-13.8" font-family="Times,serif" font-size="14.00" fill="#fffffe"> </text>
</g>
<!-- col4&#45;&gt;col5 -->
<g id="edge15" class="edge"><title>col4&#45;&gt;col5</title>
<path fill="none" stroke="none" d="M485.175,-18C498.518,-18 514.96,-18 529.523,-18"/>
<polygon fill="none" stroke="none" points="529.724,-21.5001 539.724,-18 529.724,-14.5001 529.724,-21.5001"/>
</g>
<!-- col6 -->
<g id="node7" class="node"><title>col6</title>
<ellipse fill="none" stroke="none" cx="671" cy="-18" rx="27" ry="18"/>
<text text-anchor="middle" x="671" y="-13.8" font-family="Times,serif" font-size="14.00" fill="#fffffe"> </text>
</g>
<!-- col5&#45;&gt;col6 -->
<g id="edge16" class="edge"><title>col5&#45;&gt;col6</title>
<path fill="none" stroke="none" d="M594.003,-18C606.019,-18 620.494,-18 633.574,-18"/>
<polygon fill="none" stroke="none" points="633.69,-21.5001 643.69,-18 633.69,-14.5001 633.69,-21.5001"/>
</g>
<!-- row1start -->
<g id="node8" class="node"><title>row1start</title>
<ellipse fill="none" stroke="black" cx="27" cy="-342" rx="27" ry="18"/>
<text text-anchor="middle" x="27" y="-337.8" font-family="Times,serif" font-size="14.00">low</text>
</g>
<!-- row2start -->
<g id="node9" class="node"><title>row2start</title>
<ellipse fill="none" stroke="black" cx="27" cy="-288" rx="27" ry="18"/>
<text text-anchor="middle" x="27" y="-283.8" font-family="Times,serif" font-size="14.00">low</text>
</g>
<!-- row1start&#45;&gt;row2start -->
<g id="edge1" class="edge"><title>row1start&#45;&gt;row2start</title>
<path fill="none" stroke="none" d="M27,-323.79C27,-321.308 27,-318.826 27,-316.344"/>
<polygon fill="none" stroke="none" points="30.5001,-316.141 27,-306.141 23.5001,-316.141 30.5001,-316.141"/>
</g>
<!-- simplicity -->
<g id="node20" class="node"><title>simplicity</title>
<polygon fill="none" stroke="black" points="276.915,-360 199.085,-360 199.085,-324 276.915,-324 276.915,-360"/>
<text text-anchor="middle" x="238" y="-337.8" font-family="Times,serif" font-size="14.00">ease of use</text>
</g>
<!-- row1start&#45;&gt;simplicity -->
<g id="edge17" class="edge"><title>row1start&#45;&gt;simplicity</title>
<path fill="none" stroke="black" d="M54.0474,-342C90.5957,-342 157.316,-342 199.29,-342"/>
</g>
<!-- row3start -->
<g id="node10" class="node"><title>row3start</title>
<ellipse fill="none" stroke="black" cx="27" cy="-234" rx="27" ry="18"/>
<text text-anchor="middle" x="27" y="-229.8" font-family="Times,serif" font-size="14.00">low</text>
</g>
<!-- row2start&#45;&gt;row3start -->
<g id="edge2" class="edge"><title>row2start&#45;&gt;row3start</title>
<path fill="none" stroke="none" d="M27,-269.79C27,-267.308 27,-264.826 27,-262.344"/>
<polygon fill="none" stroke="none" points="30.5001,-262.141 27,-252.141 23.5001,-262.141 30.5001,-262.141"/>
</g>
<!-- maturity -->
<g id="node21" class="node"><title>maturity</title>
<polygon fill="none" stroke="black" points="389.936,-306 326.064,-306 326.064,-270 389.936,-270 389.936,-306"/>
<text text-anchor="middle" x="358" y="-283.8" font-family="Times,serif" font-size="14.00">maturity</text>
</g>
<!-- row2start&#45;&gt;maturity -->
<g id="edge19" class="edge"><title>row2start&#45;&gt;maturity</title>
<path fill="none" stroke="black" d="M54.0911,-288C114.125,-288 261.816,-288 326.181,-288"/>
</g>
<!-- row4start -->
<g id="node11" class="node"><title>row4start</title>
<ellipse fill="none" stroke="black" cx="27" cy="-180" rx="27" ry="18"/>
<text text-anchor="middle" x="27" y="-175.8" font-family="Times,serif" font-size="14.00">low</text>
</g>
<!-- row3start&#45;&gt;row4start -->
<g id="edge3" class="edge"><title>row3start&#45;&gt;row4start</title>
<path fill="none" stroke="none" d="M27,-215.79C27,-213.308 27,-210.826 27,-208.344"/>
<polygon fill="none" stroke="none" points="30.5001,-208.141 27,-198.141 23.5001,-208.141 30.5001,-208.141"/>
</g>
<!-- sexiness -->
<g id="node22" class="node"><title>sexiness</title>
<polygon fill="none" stroke="black" points="489.163,-252 426.837,-252 426.837,-216 489.163,-216 489.163,-252"/>
<text text-anchor="middle" x="458" y="-229.8" font-family="Times,serif" font-size="14.00">sexiness</text>
</g>
<!-- row3start&#45;&gt;sexiness -->
<g id="edge21" class="edge"><title>row3start&#45;&gt;sexiness</title>
<path fill="none" stroke="black" d="M54.1901,-234C129.504,-234 346.388,-234 426.655,-234"/>
</g>
<!-- row5start -->
<g id="node12" class="node"><title>row5start</title>
<ellipse fill="none" stroke="black" cx="27" cy="-126" rx="27" ry="18"/>
<text text-anchor="middle" x="27" y="-121.8" font-family="Times,serif" font-size="14.00">low</text>
</g>
<!-- row4start&#45;&gt;row5start -->
<g id="edge4" class="edge"><title>row4start&#45;&gt;row5start</title>
<path fill="none" stroke="none" d="M27,-161.79C27,-159.308 27,-156.826 27,-154.344"/>
<polygon fill="none" stroke="none" points="30.5001,-154.141 27,-144.141 23.5001,-154.141 30.5001,-154.141"/>
</g>
<!-- adaptability -->
<g id="node23" class="node"><title>adaptability</title>
<polygon fill="none" stroke="black" points="608.09,-198 525.91,-198 525.91,-162 608.09,-162 608.09,-198"/>
<text text-anchor="middle" x="567" y="-175.8" font-family="Times,serif" font-size="14.00">adaptability</text>
</g>
<!-- row4start&#45;&gt;adaptability -->
<g id="edge23" class="edge"><title>row4start&#45;&gt;adaptability</title>
<path fill="none" stroke="black" d="M54.0664,-180C93.6136,-180 171.143,-180 237,-180 237,-180 237,-180 359,-180 417.039,-180 484.232,-180 525.93,-180"/>
</g>
<!-- row6start -->
<g id="node13" class="node"><title>row6start</title>
<ellipse fill="none" stroke="black" cx="27" cy="-72" rx="27" ry="18"/>
<text text-anchor="middle" x="27" y="-67.8" font-family="Times,serif" font-size="14.00">low</text>
</g>
<!-- row5start&#45;&gt;row6start -->
<g id="edge5" class="edge"><title>row5start&#45;&gt;row6start</title>
<path fill="none" stroke="none" d="M27,-107.79C27,-105.308 27,-102.826 27,-100.344"/>
<polygon fill="none" stroke="none" points="30.5001,-100.141 27,-90.1406 23.5001,-100.141 30.5001,-100.141"/>
</g>
<!-- correspondence -->
<g id="node24" class="node"><title>correspondence</title>
<polygon fill="none" stroke="black" points="289.842,-144 186.158,-144 186.158,-108 289.842,-108 289.842,-144"/>
<text text-anchor="middle" x="238" y="-121.8" font-family="Times,serif" font-size="14.00">correspondence</text>
</g>
<!-- row5start&#45;&gt;correspondence -->
<g id="edge25" class="edge"><title>row5start&#45;&gt;correspondence</title>
<path fill="none" stroke="black" d="M54.0474,-126C86.8752,-126 144.045,-126 185.76,-126"/>
</g>
<!-- security -->
<g id="node25" class="node"><title>security</title>
<polygon fill="none" stroke="black" points="150.318,-90 89.6818,-90 89.6818,-54 150.318,-54 150.318,-90"/>
<text text-anchor="middle" x="120" y="-67.8" font-family="Times,serif" font-size="14.00">security</text>
</g>
<!-- row6start&#45;&gt;security -->
<g id="edge27" class="edge"><title>row6start&#45;&gt;security</title>
<path fill="none" stroke="black" d="M54.321,-72C65.3442,-72 78.2058,-72 89.5433,-72"/>
</g>
<!-- row1end -->
<g id="node14" class="node"><title>row1end</title>
<ellipse fill="none" stroke="black" cx="671" cy="-342" rx="27" ry="18"/>
<text text-anchor="middle" x="671" y="-337.8" font-family="Times,serif" font-size="14.00">high</text>
</g>
<!-- row2end -->
<g id="node15" class="node"><title>row2end</title>
<ellipse fill="none" stroke="black" cx="671" cy="-288" rx="27" ry="18"/>
<text text-anchor="middle" x="671" y="-283.8" font-family="Times,serif" font-size="14.00">high</text>
</g>
<!-- row1end&#45;&gt;row2end -->
<g id="edge6" class="edge"><title>row1end&#45;&gt;row2end</title>
<path fill="none" stroke="none" d="M671,-323.79C671,-321.308 671,-318.826 671,-316.344"/>
<polygon fill="none" stroke="none" points="674.5,-316.141 671,-306.141 667.5,-316.141 674.5,-316.141"/>
</g>
<!-- row3end -->
<g id="node16" class="node"><title>row3end</title>
<ellipse fill="none" stroke="black" cx="671" cy="-234" rx="27" ry="18"/>
<text text-anchor="middle" x="671" y="-229.8" font-family="Times,serif" font-size="14.00">high</text>
</g>
<!-- row2end&#45;&gt;row3end -->
<g id="edge7" class="edge"><title>row2end&#45;&gt;row3end</title>
<path fill="none" stroke="none" d="M671,-269.79C671,-267.308 671,-264.826 671,-262.344"/>
<polygon fill="none" stroke="none" points="674.5,-262.141 671,-252.141 667.5,-262.141 674.5,-262.141"/>
</g>
<!-- row4end -->
<g id="node17" class="node"><title>row4end</title>
<ellipse fill="none" stroke="black" cx="671" cy="-180" rx="27" ry="18"/>
<text text-anchor="middle" x="671" y="-175.8" font-family="Times,serif" font-size="14.00">high</text>
</g>
<!-- row3end&#45;&gt;row4end -->
<g id="edge8" class="edge"><title>row3end&#45;&gt;row4end</title>
<path fill="none" stroke="none" d="M671,-215.79C671,-213.308 671,-210.826 671,-208.344"/>
<polygon fill="none" stroke="none" points="674.5,-208.141 671,-198.141 667.5,-208.141 674.5,-208.141"/>
</g>
<!-- row5end -->
<g id="node18" class="node"><title>row5end</title>
<ellipse fill="none" stroke="black" cx="671" cy="-126" rx="27" ry="18"/>
<text text-anchor="middle" x="671" y="-121.8" font-family="Times,serif" font-size="14.00">high</text>
</g>
<!-- row4end&#45;&gt;row5end -->
<g id="edge9" class="edge"><title>row4end&#45;&gt;row5end</title>
<path fill="none" stroke="none" d="M671,-161.79C671,-159.308 671,-156.826 671,-154.344"/>
<polygon fill="none" stroke="none" points="674.5,-154.141 671,-144.141 667.5,-154.141 674.5,-154.141"/>
</g>
<!-- row6end -->
<g id="node19" class="node"><title>row6end</title>
<ellipse fill="none" stroke="black" cx="671" cy="-72" rx="27" ry="18"/>
<text text-anchor="middle" x="671" y="-67.8" font-family="Times,serif" font-size="14.00">high</text>
</g>
<!-- row5end&#45;&gt;row6end -->
<g id="edge10" class="edge"><title>row5end&#45;&gt;row6end</title>
<path fill="none" stroke="none" d="M671,-107.79C671,-105.308 671,-102.826 671,-100.344"/>
<polygon fill="none" stroke="none" points="674.5,-100.141 671,-90.1406 667.5,-100.141 674.5,-100.141"/>
</g>
<!-- simplicity&#45;&gt;row1end -->
<g id="edge18" class="edge"><title>simplicity&#45;&gt;row1end</title>
<path fill="none" stroke="black" d="M276.871,-342C362.734,-342 570.427,-342 643.795,-342"/>
</g>
<!-- maturity&#45;&gt;row2end -->
<g id="edge20" class="edge"><title>maturity&#45;&gt;row2end</title>
<path fill="none" stroke="black" d="M389.957,-288C451.106,-288 586.407,-288 643.627,-288"/>
</g>
<!-- sexiness&#45;&gt;row3end -->
<g id="edge22" class="edge"><title>sexiness&#45;&gt;row3end</title>
<path fill="none" stroke="black" d="M489.231,-234C530.71,-234 604.577,-234 643.816,-234"/>
</g>
<!-- adaptability&#45;&gt;row4end -->
<g id="edge24" class="edge"><title>adaptability&#45;&gt;row4end</title>
<path fill="none" stroke="black" d="M608.313,-180C620.23,-180 632.961,-180 643.745,-180"/>
</g>
<!-- correspondence&#45;&gt;row5end -->
<g id="edge26" class="edge"><title>correspondence&#45;&gt;row5end</title>
<path fill="none" stroke="black" d="M290.134,-126C382.56,-126 574.301,-126 643.976,-126"/>
</g>
<!-- security&#45;&gt;row6end -->
<g id="edge28" class="edge"><title>security&#45;&gt;row6end</title>
<path fill="none" stroke="black" d="M150.434,-72C195.09,-72 282.635,-72 357,-72 357,-72 357,-72 459,-72 525.487,-72 603.759,-72 643.684,-72"/>
</g>
</g>
</svg>
