<?xml version="1.0" encoding="UTF-8" standalone="no"?>
<!DOCTYPE svg PUBLIC "-//W3C//DTD SVG 1.1//EN"
 "http://www.w3.org/Graphics/SVG/1.1/DTD/svg11.dtd">
<!-- Generated by graphviz version 2.36.0 (20140111.2315)
 -->
<!-- Title: %3 Pages: 1 -->
<svg width="662pt" height="314pt"
 viewBox="0.00 0.00 662.00 314.00" xmlns="http://www.w3.org/2000/svg" xmlns:xlink="http://www.w3.org/1999/xlink">
<g id="graph0" class="graph" transform="scale(1 1) rotate(0) translate(4 310)">
<title>%3</title>
<!-- col0 -->
<g id="node1" class="node"><title>col0</title>
<ellipse fill="none" stroke="none" cx="27" cy="-18" rx="27" ry="18"/>
<text text-anchor="middle" x="27" y="-13.8" font-family="Times,serif" font-size="14.00" fill="#fffffe"> </text>
</g>
<!-- col1 -->
<g id="node2" class="node"><title>col1</title>
<ellipse fill="none" stroke="none" cx="117" cy="-18" rx="27" ry="18"/>
<text text-anchor="middle" x="117" y="-13.8" font-family="Times,serif" font-size="14.00" fill="#fffffe"> </text>
</g>
<!-- col0&#45;&gt;col1 -->
<g id="edge9" class="edge"><title>col0&#45;&gt;col1</title>
<path fill="none" stroke="none" d="M54.4029,-18C62.3932,-18 71.3106,-18 79.8241,-18"/>
<polygon fill="none" stroke="none" points="79.919,-21.5001 89.919,-18 79.919,-14.5001 79.919,-21.5001"/>
</g>
<!-- col2 -->
<g id="node3" class="node"><title>col2</title>
<ellipse fill="none" stroke="none" cx="207" cy="-18" rx="27" ry="18"/>
<text text-anchor="middle" x="207" y="-13.8" font-family="Times,serif" font-size="14.00" fill="#fffffe"> </text>
</g>
<!-- col1&#45;&gt;col2 -->
<g id="edge10" class="edge"><title>col1&#45;&gt;col2</title>
<path fill="none" stroke="none" d="M144.403,-18C152.393,-18 161.311,-18 169.824,-18"/>
<polygon fill="none" stroke="none" points="169.919,-21.5001 179.919,-18 169.919,-14.5001 169.919,-21.5001"/>
</g>
<!-- col3 -->
<g id="node4" class="node"><title>col3</title>
<ellipse fill="none" stroke="none" cx="314" cy="-18" rx="27" ry="18"/>
<text text-anchor="middle" x="314" y="-13.8" font-family="Times,serif" font-size="14.00" fill="#fffffe"> </text>
</g>
<!-- col2&#45;&gt;col3 -->
<g id="edge11" class="edge"><title>col2&#45;&gt;col3</title>
<path fill="none" stroke="none" d="M234.225,-18C247.004,-18 262.581,-18 276.499,-18"/>
<polygon fill="none" stroke="none" points="276.745,-21.5001 286.745,-18 276.745,-14.5001 276.745,-21.5001"/>
</g>
<!-- col4 -->
<g id="node5" class="node"><title>col4</title>
<ellipse fill="none" stroke="none" cx="434" cy="-18" rx="27" ry="18"/>
<text text-anchor="middle" x="434" y="-13.8" font-family="Times,serif" font-size="14.00" fill="#fffffe"> </text>
</g>
<!-- col3&#45;&gt;col4 -->
<g id="edge12" class="edge"><title>col3&#45;&gt;col4</title>
<path fill="none" stroke="none" d="M341.188,-18C357.534,-18 378.808,-18 396.761,-18"/>
<polygon fill="none" stroke="none" points="396.885,-21.5001 406.885,-18 396.885,-14.5001 396.885,-21.5001"/>
</g>
<!-- col5 -->
<g id="node6" class="node"><title>col5</title>
<ellipse fill="none" stroke="none" cx="537" cy="-18" rx="27" ry="18"/>
<text text-anchor="middle" x="537" y="-13.8" font-family="Times,serif" font-size="14.00" fill="#fffffe"> </text>
</g>
<!-- col4&#45;&gt;col5 -->
<g id="edge13" class="edge"><title>col4&#45;&gt;col5</title>
<path fill="none" stroke="none" d="M461.01,-18C472.7,-18 486.699,-18 499.421,-18"/>
<polygon fill="none" stroke="none" points="499.727,-21.5001 509.727,-18 499.727,-14.5001 499.727,-21.5001"/>
</g>
<!-- col6 -->
<g id="node7" class="node"><title>col6</title>
<ellipse fill="none" stroke="none" cx="627" cy="-18" rx="27" ry="18"/>
<text text-anchor="middle" x="627" y="-13.8" font-family="Times,serif" font-size="14.00" fill="#fffffe"> </text>
</g>
<!-- col5&#45;&gt;col6 -->
<g id="edge14" class="edge"><title>col5&#45;&gt;col6</title>
<path fill="none" stroke="none" d="M564.403,-18C572.393,-18 581.311,-18 589.824,-18"/>
<polygon fill="none" stroke="none" points="589.919,-21.5001 599.919,-18 589.919,-14.5001 589.919,-21.5001"/>
</g>
<!-- row7start -->
<g id="node8" class="node"><title>row7start</title>
<ellipse fill="none" stroke="black" cx="27" cy="-288" rx="27" ry="18"/>
<text text-anchor="middle" x="27" y="-283.8" font-family="Times,serif" font-size="14.00">low</text>
</g>
<!-- row8start -->
<g id="node9" class="node"><title>row8start</title>
<ellipse fill="none" stroke="black" cx="27" cy="-234" rx="27" ry="18"/>
<text text-anchor="middle" x="27" y="-229.8" font-family="Times,serif" font-size="14.00">low</text>
</g>
<!-- row7start&#45;&gt;row8start -->
<g id="edge1" class="edge"><title>row7start&#45;&gt;row8start</title>
<path fill="none" stroke="none" d="M27,-269.79C27,-267.308 27,-264.826 27,-262.344"/>
<polygon fill="none" stroke="none" points="30.5001,-262.141 27,-252.141 23.5001,-262.141 30.5001,-262.141"/>
</g>
<!-- price -->
<g id="node18" class="node"><title>price</title>
<polygon fill="none" stroke="black" points="234,-306 180,-306 180,-270 234,-270 234,-306"/>
<text text-anchor="middle" x="207" y="-283.8" font-family="Times,serif" font-size="14.00">price</text>
</g>
<!-- row7start&#45;&gt;price -->
<g id="edge15" class="edge"><title>row7start&#45;&gt;price</title>
<path fill="none" stroke="black" d="M54.2645,-288C88.0151,-288 146.256,-288 179.918,-288"/>
</g>
<!-- row9start -->
<g id="node10" class="node"><title>row9start</title>
<ellipse fill="none" stroke="black" cx="27" cy="-180" rx="27" ry="18"/>
<text text-anchor="middle" x="27" y="-175.8" font-family="Times,serif" font-size="14.00">low</text>
</g>
<!-- row8start&#45;&gt;row9start -->
<g id="edge2" class="edge"><title>row8start&#45;&gt;row9start</title>
<path fill="none" stroke="none" d="M27,-215.79C27,-213.308 27,-210.826 27,-208.344"/>
<polygon fill="none" stroke="none" points="30.5001,-208.141 27,-198.141 23.5001,-208.141 30.5001,-208.141"/>
</g>
<!-- autonomy -->
<g id="node19" class="node"><title>autonomy</title>
<polygon fill="none" stroke="black" points="349.993,-252 278.007,-252 278.007,-216 349.993,-216 349.993,-252"/>
<text text-anchor="middle" x="314" y="-229.8" font-family="Times,serif" font-size="14.00">autonomy</text>
</g>
<!-- row8start&#45;&gt;autonomy -->
<g id="edge17" class="edge"><title>row8start&#45;&gt;autonomy</title>
<path fill="none" stroke="black" d="M54.0474,-234C105.44,-234 219.924,-234 277.905,-234"/>
</g>
<!-- row10start -->
<g id="node11" class="node"><title>row10start</title>
<ellipse fill="none" stroke="black" cx="27" cy="-126" rx="27" ry="18"/>
<text text-anchor="middle" x="27" y="-121.8" font-family="Times,serif" font-size="14.00">low</text>
</g>
<!-- row9start&#45;&gt;row10start -->
<g id="edge3" class="edge"><title>row9start&#45;&gt;row10start</title>
<path fill="none" stroke="none" d="M27,-161.79C27,-159.308 27,-156.826 27,-154.344"/>
<polygon fill="none" stroke="none" points="30.5001,-154.141 27,-144.141 23.5001,-154.141 30.5001,-154.141"/>
</g>
<!-- maintenance -->
<g id="node20" class="node"><title>maintenance</title>
<polygon fill="none" stroke="black" points="473.459,-198 394.541,-198 394.541,-162 473.459,-162 473.459,-198"/>
<text text-anchor="middle" x="434" y="-182.8" font-family="Times,serif" font-size="14.00">life</text>
<text text-anchor="middle" x="434" y="-168.8" font-family="Times,serif" font-size="14.00">expectancy</text>
</g>
<!-- row9start&#45;&gt;maintenance -->
<g id="edge19" class="edge"><title>row9start&#45;&gt;maintenance</title>
<path fill="none" stroke="black" d="M54.2611,-180C123.762,-180 312.754,-180 394.485,-180"/>
</g>
<!-- row11start -->
<g id="node12" class="node"><title>row11start</title>
<ellipse fill="none" stroke="black" cx="27" cy="-72" rx="27" ry="18"/>
<text text-anchor="middle" x="27" y="-67.8" font-family="Times,serif" font-size="14.00">low</text>
</g>
<!-- row10start&#45;&gt;row11start -->
<g id="edge4" class="edge"><title>row10start&#45;&gt;row11start</title>
<path fill="none" stroke="none" d="M27,-107.79C27,-105.308 27,-102.826 27,-100.344"/>
<polygon fill="none" stroke="none" points="30.5001,-100.141 27,-90.1406 23.5001,-100.141 30.5001,-100.141"/>
</g>
<!-- knowledge -->
<g id="node21" class="node"><title>knowledge</title>
<polygon fill="none" stroke="black" points="472.929,-144 395.071,-144 395.071,-108 472.929,-108 472.929,-144"/>
<text text-anchor="middle" x="434" y="-128.8" font-family="Times,serif" font-size="14.00">existing</text>
<text text-anchor="middle" x="434" y="-114.8" font-family="Times,serif" font-size="14.00">knowledge</text>
</g>
<!-- row10start&#45;&gt;knowledge -->
<g id="edge21" class="edge"><title>row10start&#45;&gt;knowledge</title>
<path fill="none" stroke="black" d="M54.2611,-126C123.937,-126 313.708,-126 395.102,-126"/>
</g>
<!-- performance -->
<g id="node22" class="node"><title>performance</title>
<polygon fill="none" stroke="black" points="357.232,-90 270.768,-90 270.768,-54 357.232,-54 357.232,-90"/>
<text text-anchor="middle" x="314" y="-67.8" font-family="Times,serif" font-size="14.00">performance</text>
</g>
<!-- row11start&#45;&gt;performance -->
<g id="edge23" class="edge"><title>row11start&#45;&gt;performance</title>
<path fill="none" stroke="black" d="M54.0474,-72C103.379,-72 210.843,-72 270.664,-72"/>
</g>
<!-- row7end -->
<g id="node13" class="node"><title>row7end</title>
<ellipse fill="none" stroke="black" cx="627" cy="-288" rx="27" ry="18"/>
<text text-anchor="middle" x="627" y="-283.8" font-family="Times,serif" font-size="14.00">high</text>
</g>
<!-- row8end -->
<g id="node14" class="node"><title>row8end</title>
<ellipse fill="none" stroke="black" cx="627" cy="-234" rx="27" ry="18"/>
<text text-anchor="middle" x="627" y="-229.8" font-family="Times,serif" font-size="14.00">high</text>
</g>
<!-- row7end&#45;&gt;row8end -->
<g id="edge5" class="edge"><title>row7end&#45;&gt;row8end</title>
<path fill="none" stroke="none" d="M627,-269.79C627,-267.308 627,-264.826 627,-262.344"/>
<polygon fill="none" stroke="none" points="630.5,-262.141 627,-252.141 623.5,-262.141 630.5,-262.141"/>
</g>
<!-- row9end -->
<g id="node15" class="node"><title>row9end</title>
<ellipse fill="none" stroke="black" cx="627" cy="-180" rx="27" ry="18"/>
<text text-anchor="middle" x="627" y="-175.8" font-family="Times,serif" font-size="14.00">high</text>
</g>
<!-- row8end&#45;&gt;row9end -->
<g id="edge6" class="edge"><title>row8end&#45;&gt;row9end</title>
<path fill="none" stroke="none" d="M627,-215.79C627,-213.308 627,-210.826 627,-208.344"/>
<polygon fill="none" stroke="none" points="630.5,-208.141 627,-198.141 623.5,-208.141 630.5,-208.141"/>
</g>
<!-- row10end -->
<g id="node16" class="node"><title>row10end</title>
<ellipse fill="none" stroke="black" cx="627" cy="-126" rx="27" ry="18"/>
<text text-anchor="middle" x="627" y="-121.8" font-family="Times,serif" font-size="14.00">high</text>
</g>
<!-- row9end&#45;&gt;row10end -->
<g id="edge7" class="edge"><title>row9end&#45;&gt;row10end</title>
<path fill="none" stroke="none" d="M627,-161.79C627,-159.308 627,-156.826 627,-154.344"/>
<polygon fill="none" stroke="none" points="630.5,-154.141 627,-144.141 623.5,-154.141 630.5,-154.141"/>
</g>
<!-- row11end -->
<g id="node17" class="node"><title>row11end</title>
<ellipse fill="none" stroke="black" cx="627" cy="-72" rx="27" ry="18"/>
<text text-anchor="middle" x="627" y="-67.8" font-family="Times,serif" font-size="14.00">high</text>
</g>
<!-- row10end&#45;&gt;row11end -->
<g id="edge8" class="edge"><title>row10end&#45;&gt;row11end</title>
<path fill="none" stroke="none" d="M627,-107.79C627,-105.308 627,-102.826 627,-100.344"/>
<polygon fill="none" stroke="none" points="630.5,-100.141 627,-90.1406 623.5,-100.141 630.5,-100.141"/>
</g>
<!-- price&#45;&gt;row7end -->
<g id="edge16" class="edge"><title>price&#45;&gt;row7end</title>
<path fill="none" stroke="black" d="M234.148,-288C309.215,-288 524.807,-288 599.862,-288"/>
</g>
<!-- autonomy&#45;&gt;row8end -->
<g id="edge18" class="edge"><title>autonomy&#45;&gt;row8end</title>
<path fill="none" stroke="black" d="M350.071,-234C412.978,-234 543.638,-234 599.614,-234"/>
</g>
<!-- maintenance&#45;&gt;row9end -->
<g id="edge20" class="edge"><title>maintenance&#45;&gt;row9end</title>
<path fill="none" stroke="black" d="M473.652,-180C511.259,-180 567.357,-180 599.952,-180"/>
</g>
<!-- knowledge&#45;&gt;row10end -->
<g id="edge22" class="edge"><title>knowledge&#45;&gt;row10end</title>
<path fill="none" stroke="black" d="M472.735,-126C510.352,-126 567.12,-126 599.977,-126"/>
</g>
<!-- performance&#45;&gt;row11end -->
<g id="edge24" class="edge"><title>performance&#45;&gt;row11end</title>
<path fill="none" stroke="black" d="M357.267,-72C422.536,-72 545.938,-72 599.775,-72"/>
</g>
</g>
</svg>
