<?xml version="1.0" encoding="UTF-8" standalone="no"?>
<!DOCTYPE svg PUBLIC "-//W3C//DTD SVG 1.1//EN"
 "http://www.w3.org/Graphics/SVG/1.1/DTD/svg11.dtd">
<!-- Generated by graphviz version 2.36.0 (20140111.2315)
 -->
<!-- Title: %3 Pages: 1 -->
<svg width="764pt" height="638pt"
 viewBox="0.00 0.00 764.00 638.00" xmlns="http://www.w3.org/2000/svg" xmlns:xlink="http://www.w3.org/1999/xlink">
<g id="graph0" class="graph" transform="scale(1 1) rotate(0) translate(4 634)">
<title>%3</title>
<!-- col0 -->
<g id="node1" class="node"><title>col0</title>
<ellipse fill="none" stroke="none" cx="27" cy="-18" rx="27" ry="18"/>
<text text-anchor="middle" x="27" y="-13.8" font-family="Times,serif" font-size="14.00" fill="#fffffe"> </text>
</g>
<!-- col1 -->
<g id="node2" class="node"><title>col1</title>
<ellipse fill="none" stroke="none" cx="130" cy="-18" rx="27" ry="18"/>
<text text-anchor="middle" x="130" y="-13.8" font-family="Times,serif" font-size="14.00" fill="#fffffe"> </text>
</g>
<!-- col0&#45;&gt;col1 -->
<g id="edge21" class="edge"><title>col0&#45;&gt;col1</title>
<path fill="none" stroke="none" d="M54.01,-18C65.6997,-18 79.6994,-18 92.4207,-18"/>
<polygon fill="none" stroke="none" points="92.7271,-21.5001 102.727,-18 92.7271,-14.5001 92.7271,-21.5001"/>
</g>
<!-- col2 -->
<g id="node3" class="node"><title>col2</title>
<ellipse fill="none" stroke="none" cx="258" cy="-18" rx="27" ry="18"/>
<text text-anchor="middle" x="258" y="-13.8" font-family="Times,serif" font-size="14.00" fill="#fffffe"> </text>
</g>
<!-- col1&#45;&gt;col2 -->
<g id="edge22" class="edge"><title>col1&#45;&gt;col2</title>
<path fill="none" stroke="none" d="M157.107,-18C175.522,-18 200.43,-18 220.767,-18"/>
<polygon fill="none" stroke="none" points="220.926,-21.5001 230.926,-18 220.926,-14.5001 220.926,-21.5001"/>
</g>
<!-- col3 -->
<g id="node4" class="node"><title>col3</title>
<ellipse fill="none" stroke="none" cx="390" cy="-18" rx="27" ry="18"/>
<text text-anchor="middle" x="390" y="-13.8" font-family="Times,serif" font-size="14.00" fill="#fffffe"> </text>
</g>
<!-- col2&#45;&gt;col3 -->
<g id="edge23" class="edge"><title>col2&#45;&gt;col3</title>
<path fill="none" stroke="none" d="M285.307,-18C304.69,-18 331.29,-18 352.695,-18"/>
<polygon fill="none" stroke="none" points="352.732,-21.5001 362.732,-18 352.732,-14.5001 352.732,-21.5001"/>
</g>
<!-- col4 -->
<g id="node5" class="node"><title>col4</title>
<ellipse fill="none" stroke="none" cx="509" cy="-18" rx="27" ry="18"/>
<text text-anchor="middle" x="509" y="-13.8" font-family="Times,serif" font-size="14.00" fill="#fffffe"> </text>
</g>
<!-- col3&#45;&gt;col4 -->
<g id="edge24" class="edge"><title>col3&#45;&gt;col4</title>
<path fill="none" stroke="none" d="M417.257,-18C433.214,-18 453.826,-18 471.371,-18"/>
<polygon fill="none" stroke="none" points="471.831,-21.5001 481.831,-18 471.831,-14.5001 471.831,-21.5001"/>
</g>
<!-- col5 -->
<g id="node6" class="node"><title>col5</title>
<ellipse fill="none" stroke="none" cx="625" cy="-18" rx="27" ry="18"/>
<text text-anchor="middle" x="625" y="-13.8" font-family="Times,serif" font-size="14.00" fill="#fffffe"> </text>
</g>
<!-- col4&#45;&gt;col5 -->
<g id="edge25" class="edge"><title>col4&#45;&gt;col5</title>
<path fill="none" stroke="none" d="M536.154,-18C551.505,-18 571.128,-18 587.932,-18"/>
<polygon fill="none" stroke="none" points="587.968,-21.5001 597.968,-18 587.968,-14.5001 587.968,-21.5001"/>
</g>
<!-- col6 -->
<g id="node7" class="node"><title>col6</title>
<ellipse fill="none" stroke="none" cx="729" cy="-18" rx="27" ry="18"/>
<text text-anchor="middle" x="729" y="-13.8" font-family="Times,serif" font-size="14.00" fill="#fffffe"> </text>
</g>
<!-- col5&#45;&gt;col6 -->
<g id="edge26" class="edge"><title>col5&#45;&gt;col6</title>
<path fill="none" stroke="none" d="M652.003,-18C664.019,-18 678.494,-18 691.574,-18"/>
<polygon fill="none" stroke="none" points="691.69,-21.5001 701.69,-18 691.69,-14.5001 691.69,-21.5001"/>
</g>
<!-- row1start -->
<g id="node8" class="node"><title>row1start</title>
<ellipse fill="none" stroke="black" cx="27" cy="-612" rx="27" ry="18"/>
<text text-anchor="middle" x="27" y="-607.8" font-family="Times,serif" font-size="14.00">low</text>
</g>
<!-- row2start -->
<g id="node9" class="node"><title>row2start</title>
<ellipse fill="none" stroke="black" cx="27" cy="-558" rx="27" ry="18"/>
<text text-anchor="middle" x="27" y="-553.8" font-family="Times,serif" font-size="14.00">low</text>
</g>
<!-- row1start&#45;&gt;row2start -->
<g id="edge1" class="edge"><title>row1start&#45;&gt;row2start</title>
<path fill="none" stroke="none" d="M27,-593.79C27,-591.308 27,-588.826 27,-586.344"/>
<polygon fill="none" stroke="none" points="30.5001,-586.141 27,-576.141 23.5001,-586.141 30.5001,-586.141"/>
</g>
<!-- simplicity -->
<g id="node30" class="node"><title>simplicity</title>
<polygon fill="none" stroke="black" points="296.915,-630 219.085,-630 219.085,-594 296.915,-594 296.915,-630"/>
<text text-anchor="middle" x="258" y="-607.8" font-family="Times,serif" font-size="14.00">ease of use</text>
</g>
<!-- row1start&#45;&gt;simplicity -->
<g id="edge27" class="edge"><title>row1start&#45;&gt;simplicity</title>
<path fill="none" stroke="black" d="M54.2692,-612C94.6831,-612 172.307,-612 218.896,-612"/>
</g>
<!-- row3start -->
<g id="node10" class="node"><title>row3start</title>
<ellipse fill="none" stroke="black" cx="27" cy="-504" rx="27" ry="18"/>
<text text-anchor="middle" x="27" y="-499.8" font-family="Times,serif" font-size="14.00">low</text>
</g>
<!-- row2start&#45;&gt;row3start -->
<g id="edge2" class="edge"><title>row2start&#45;&gt;row3start</title>
<path fill="none" stroke="none" d="M27,-539.79C27,-537.308 27,-534.826 27,-532.344"/>
<polygon fill="none" stroke="none" points="30.5001,-532.141 27,-522.141 23.5001,-532.141 30.5001,-532.141"/>
</g>
<!-- maturity -->
<g id="node31" class="node"><title>maturity</title>
<polygon fill="none" stroke="black" points="421.936,-576 358.064,-576 358.064,-540 421.936,-540 421.936,-576"/>
<text text-anchor="middle" x="390" y="-553.8" font-family="Times,serif" font-size="14.00">maturity</text>
</g>
<!-- row2start&#45;&gt;maturity -->
<g id="edge29" class="edge"><title>row2start&#45;&gt;maturity</title>
<path fill="none" stroke="black" d="M54.253,-558C119.397,-558 288.22,-558 358.057,-558"/>
</g>
<!-- row4start -->
<g id="node11" class="node"><title>row4start</title>
<ellipse fill="none" stroke="black" cx="27" cy="-450" rx="27" ry="18"/>
<text text-anchor="middle" x="27" y="-445.8" font-family="Times,serif" font-size="14.00">low</text>
</g>
<!-- row3start&#45;&gt;row4start -->
<g id="edge3" class="edge"><title>row3start&#45;&gt;row4start</title>
<path fill="none" stroke="none" d="M27,-485.79C27,-483.308 27,-480.826 27,-478.344"/>
<polygon fill="none" stroke="none" points="30.5001,-478.141 27,-468.141 23.5001,-478.141 30.5001,-478.141"/>
</g>
<!-- sexiness -->
<g id="node32" class="node"><title>sexiness</title>
<polygon fill="none" stroke="black" points="540.163,-522 477.837,-522 477.837,-486 540.163,-486 540.163,-522"/>
<text text-anchor="middle" x="509" y="-499.8" font-family="Times,serif" font-size="14.00">sexiness</text>
</g>
<!-- row3start&#45;&gt;sexiness -->
<g id="edge31" class="edge"><title>row3start&#45;&gt;sexiness</title>
<path fill="none" stroke="black" d="M54.1478,-504C136.412,-504 389.681,-504 477.578,-504"/>
</g>
<!-- row5start -->
<g id="node12" class="node"><title>row5start</title>
<ellipse fill="none" stroke="black" cx="27" cy="-396" rx="27" ry="18"/>
<text text-anchor="middle" x="27" y="-391.8" font-family="Times,serif" font-size="14.00">low</text>
</g>
<!-- row4start&#45;&gt;row5start -->
<g id="edge4" class="edge"><title>row4start&#45;&gt;row5start</title>
<path fill="none" stroke="none" d="M27,-431.79C27,-429.308 27,-426.826 27,-424.344"/>
<polygon fill="none" stroke="none" points="30.5001,-424.141 27,-414.141 23.5001,-424.141 30.5001,-424.141"/>
</g>
<!-- adaptability -->
<g id="node33" class="node"><title>adaptability</title>
<polygon fill="none" stroke="black" points="666.09,-468 583.91,-468 583.91,-432 666.09,-432 666.09,-468"/>
<text text-anchor="middle" x="625" y="-445.8" font-family="Times,serif" font-size="14.00">adaptability</text>
</g>
<!-- row4start&#45;&gt;adaptability -->
<g id="edge33" class="edge"><title>row4start&#45;&gt;adaptability</title>
<path fill="none" stroke="black" d="M54.1008,-450C96.6114,-450 183.45,-450 257,-450 257,-450 257,-450 391,-450 458.554,-450 537.125,-450 583.591,-450"/>
</g>
<!-- row6start -->
<g id="node13" class="node"><title>row6start</title>
<ellipse fill="none" stroke="black" cx="27" cy="-342" rx="27" ry="18"/>
<text text-anchor="middle" x="27" y="-337.8" font-family="Times,serif" font-size="14.00">low</text>
</g>
<!-- row5start&#45;&gt;row6start -->
<g id="edge5" class="edge"><title>row5start&#45;&gt;row6start</title>
<path fill="none" stroke="none" d="M27,-377.79C27,-375.308 27,-372.826 27,-370.344"/>
<polygon fill="none" stroke="none" points="30.5001,-370.141 27,-360.141 23.5001,-370.141 30.5001,-370.141"/>
</g>
<!-- correspondence -->
<g id="node34" class="node"><title>correspondence</title>
<polygon fill="none" stroke="black" points="309.842,-414 206.158,-414 206.158,-378 309.842,-378 309.842,-414"/>
<text text-anchor="middle" x="258" y="-391.8" font-family="Times,serif" font-size="14.00">correspondence</text>
</g>
<!-- row5start&#45;&gt;correspondence -->
<g id="edge35" class="edge"><title>row5start&#45;&gt;correspondence</title>
<path fill="none" stroke="black" d="M54.2692,-396C91.1586,-396 159.051,-396 206.044,-396"/>
</g>
<!-- row7start -->
<g id="node14" class="node"><title>row7start</title>
<ellipse fill="none" stroke="black" cx="27" cy="-288" rx="27" ry="18"/>
<text text-anchor="middle" x="27" y="-283.8" font-family="Times,serif" font-size="14.00">low</text>
</g>
<!-- row6start&#45;&gt;row7start -->
<g id="edge6" class="edge"><title>row6start&#45;&gt;row7start</title>
<path fill="none" stroke="none" d="M27,-323.79C27,-321.308 27,-318.826 27,-316.344"/>
<polygon fill="none" stroke="none" points="30.5001,-316.141 27,-306.141 23.5001,-316.141 30.5001,-316.141"/>
</g>
<!-- security -->
<g id="node35" class="node"><title>security</title>
<polygon fill="none" stroke="black" points="420.318,-360 359.682,-360 359.682,-324 420.318,-324 420.318,-360"/>
<text text-anchor="middle" x="390" y="-337.8" font-family="Times,serif" font-size="14.00">security</text>
</g>
<!-- row6start&#45;&gt;security -->
<g id="edge37" class="edge"><title>row6start&#45;&gt;security</title>
<path fill="none" stroke="black" d="M54.253,-342C119.883,-342 290.749,-342 359.606,-342"/>
</g>
<!-- row8start -->
<g id="node15" class="node"><title>row8start</title>
<ellipse fill="none" stroke="black" cx="27" cy="-234" rx="27" ry="18"/>
<text text-anchor="middle" x="27" y="-229.8" font-family="Times,serif" font-size="14.00">low</text>
</g>
<!-- row7start&#45;&gt;row8start -->
<g id="edge7" class="edge"><title>row7start&#45;&gt;row8start</title>
<path fill="none" stroke="none" d="M27,-269.79C27,-267.308 27,-264.826 27,-262.344"/>
<polygon fill="none" stroke="none" points="30.5001,-262.141 27,-252.141 23.5001,-262.141 30.5001,-262.141"/>
</g>
<!-- price -->
<g id="node36" class="node"><title>price</title>
<polygon fill="none" stroke="black" points="536,-306 482,-306 482,-270 536,-270 536,-306"/>
<text text-anchor="middle" x="509" y="-283.8" font-family="Times,serif" font-size="14.00">price</text>
</g>
<!-- row7start&#45;&gt;price -->
<g id="edge39" class="edge"><title>row7start&#45;&gt;price</title>
<path fill="none" stroke="black" d="M54.1478,-288C137.782,-288 398.161,-288 481.829,-288"/>
</g>
<!-- row9start -->
<g id="node16" class="node"><title>row9start</title>
<ellipse fill="none" stroke="black" cx="27" cy="-180" rx="27" ry="18"/>
<text text-anchor="middle" x="27" y="-175.8" font-family="Times,serif" font-size="14.00">low</text>
</g>
<!-- row8start&#45;&gt;row9start -->
<g id="edge8" class="edge"><title>row8start&#45;&gt;row9start</title>
<path fill="none" stroke="none" d="M27,-215.79C27,-213.308 27,-210.826 27,-208.344"/>
<polygon fill="none" stroke="none" points="30.5001,-208.141 27,-198.141 23.5001,-208.141 30.5001,-208.141"/>
</g>
<!-- autonomy -->
<g id="node37" class="node"><title>autonomy</title>
<polygon fill="none" stroke="black" points="660.993,-252 589.007,-252 589.007,-216 660.993,-216 660.993,-252"/>
<text text-anchor="middle" x="625" y="-229.8" font-family="Times,serif" font-size="14.00">autonomy</text>
</g>
<!-- row8start&#45;&gt;autonomy -->
<g id="edge41" class="edge"><title>row8start&#45;&gt;autonomy</title>
<path fill="none" stroke="black" d="M54.1008,-234C96.6114,-234 183.45,-234 257,-234 257,-234 257,-234 391,-234 461.183,-234 543.258,-234 588.868,-234"/>
</g>
<!-- row10start -->
<g id="node17" class="node"><title>row10start</title>
<ellipse fill="none" stroke="black" cx="27" cy="-126" rx="27" ry="18"/>
<text text-anchor="middle" x="27" y="-121.8" font-family="Times,serif" font-size="14.00">low</text>
</g>
<!-- row9start&#45;&gt;row10start -->
<g id="edge9" class="edge"><title>row9start&#45;&gt;row10start</title>
<path fill="none" stroke="none" d="M27,-161.79C27,-159.308 27,-156.826 27,-154.344"/>
<polygon fill="none" stroke="none" points="30.5001,-154.141 27,-144.141 23.5001,-154.141 30.5001,-154.141"/>
</g>
<!-- maintenance -->
<g id="node38" class="node"><title>maintenance</title>
<polygon fill="none" stroke="black" points="169.459,-198 90.541,-198 90.541,-162 169.459,-162 169.459,-198"/>
<text text-anchor="middle" x="130" y="-182.8" font-family="Times,serif" font-size="14.00">life</text>
<text text-anchor="middle" x="130" y="-168.8" font-family="Times,serif" font-size="14.00">expectancy</text>
</g>
<!-- row9start&#45;&gt;maintenance -->
<g id="edge43" class="edge"><title>row9start&#45;&gt;maintenance</title>
<path fill="none" stroke="black" d="M54.01,-180C65.1152,-180 78.3052,-180 90.5033,-180"/>
</g>
<!-- row11start -->
<g id="node18" class="node"><title>row11start</title>
<ellipse fill="none" stroke="black" cx="27" cy="-72" rx="27" ry="18"/>
<text text-anchor="middle" x="27" y="-67.8" font-family="Times,serif" font-size="14.00">low</text>
</g>
<!-- row10start&#45;&gt;row11start -->
<g id="edge10" class="edge"><title>row10start&#45;&gt;row11start</title>
<path fill="none" stroke="none" d="M27,-107.79C27,-105.308 27,-102.826 27,-100.344"/>
<polygon fill="none" stroke="none" points="30.5001,-100.141 27,-90.1406 23.5001,-100.141 30.5001,-100.141"/>
</g>
<!-- knowledge -->
<g id="node39" class="node"><title>knowledge</title>
<polygon fill="none" stroke="black" points="547.929,-144 470.071,-144 470.071,-108 547.929,-108 547.929,-144"/>
<text text-anchor="middle" x="509" y="-128.8" font-family="Times,serif" font-size="14.00">existing</text>
<text text-anchor="middle" x="509" y="-114.8" font-family="Times,serif" font-size="14.00">knowledge</text>
</g>
<!-- row10start&#45;&gt;knowledge -->
<g id="edge45" class="edge"><title>row10start&#45;&gt;knowledge</title>
<path fill="none" stroke="black" d="M54.1478,-126C134.163,-126 375.956,-126 470.002,-126"/>
</g>
<!-- performance -->
<g id="node40" class="node"><title>performance</title>
<polygon fill="none" stroke="black" points="433.232,-90 346.768,-90 346.768,-54 433.232,-54 433.232,-90"/>
<text text-anchor="middle" x="390" y="-67.8" font-family="Times,serif" font-size="14.00">performance</text>
</g>
<!-- row11start&#45;&gt;performance -->
<g id="edge47" class="edge"><title>row11start&#45;&gt;performance</title>
<path fill="none" stroke="black" d="M54.253,-72C116.07,-72 271.251,-72 346.613,-72"/>
</g>
<!-- row1end -->
<g id="node19" class="node"><title>row1end</title>
<ellipse fill="none" stroke="black" cx="729" cy="-612" rx="27" ry="18"/>
<text text-anchor="middle" x="729" y="-607.8" font-family="Times,serif" font-size="14.00">high</text>
</g>
<!-- row2end -->
<g id="node20" class="node"><title>row2end</title>
<ellipse fill="none" stroke="black" cx="729" cy="-558" rx="27" ry="18"/>
<text text-anchor="middle" x="729" y="-553.8" font-family="Times,serif" font-size="14.00">high</text>
</g>
<!-- row1end&#45;&gt;row2end -->
<g id="edge11" class="edge"><title>row1end&#45;&gt;row2end</title>
<path fill="none" stroke="none" d="M729,-593.79C729,-591.308 729,-588.826 729,-586.344"/>
<polygon fill="none" stroke="none" points="732.5,-586.141 729,-576.141 725.5,-586.141 732.5,-586.141"/>
</g>
<!-- row3end -->
<g id="node21" class="node"><title>row3end</title>
<ellipse fill="none" stroke="black" cx="729" cy="-504" rx="27" ry="18"/>
<text text-anchor="middle" x="729" y="-499.8" font-family="Times,serif" font-size="14.00">high</text>
</g>
<!-- row2end&#45;&gt;row3end -->
<g id="edge12" class="edge"><title>row2end&#45;&gt;row3end</title>
<path fill="none" stroke="none" d="M729,-539.79C729,-537.308 729,-534.826 729,-532.344"/>
<polygon fill="none" stroke="none" points="732.5,-532.141 729,-522.141 725.5,-532.141 732.5,-532.141"/>
</g>
<!-- row4end -->
<g id="node22" class="node"><title>row4end</title>
<ellipse fill="none" stroke="black" cx="729" cy="-450" rx="27" ry="18"/>
<text text-anchor="middle" x="729" y="-445.8" font-family="Times,serif" font-size="14.00">high</text>
</g>
<!-- row3end&#45;&gt;row4end -->
<g id="edge13" class="edge"><title>row3end&#45;&gt;row4end</title>
<path fill="none" stroke="none" d="M729,-485.79C729,-483.308 729,-480.826 729,-478.344"/>
<polygon fill="none" stroke="none" points="732.5,-478.141 729,-468.141 725.5,-478.141 732.5,-478.141"/>
</g>
<!-- row5end -->
<g id="node23" class="node"><title>row5end</title>
<ellipse fill="none" stroke="black" cx="729" cy="-396" rx="27" ry="18"/>
<text text-anchor="middle" x="729" y="-391.8" font-family="Times,serif" font-size="14.00">high</text>
</g>
<!-- row4end&#45;&gt;row5end -->
<g id="edge14" class="edge"><title>row4end&#45;&gt;row5end</title>
<path fill="none" stroke="none" d="M729,-431.79C729,-429.308 729,-426.826 729,-424.344"/>
<polygon fill="none" stroke="none" points="732.5,-424.141 729,-414.141 725.5,-424.141 732.5,-424.141"/>
</g>
<!-- row6end -->
<g id="node24" class="node"><title>row6end</title>
<ellipse fill="none" stroke="black" cx="729" cy="-342" rx="27" ry="18"/>
<text text-anchor="middle" x="729" y="-337.8" font-family="Times,serif" font-size="14.00">high</text>
</g>
<!-- row5end&#45;&gt;row6end -->
<g id="edge15" class="edge"><title>row5end&#45;&gt;row6end</title>
<path fill="none" stroke="none" d="M729,-377.79C729,-375.308 729,-372.826 729,-370.344"/>
<polygon fill="none" stroke="none" points="732.5,-370.141 729,-360.141 725.5,-370.141 732.5,-370.141"/>
</g>
<!-- row7end -->
<g id="node25" class="node"><title>row7end</title>
<ellipse fill="none" stroke="black" cx="729" cy="-288" rx="27" ry="18"/>
<text text-anchor="middle" x="729" y="-283.8" font-family="Times,serif" font-size="14.00">high</text>
</g>
<!-- row6end&#45;&gt;row7end -->
<g id="edge16" class="edge"><title>row6end&#45;&gt;row7end</title>
<path fill="none" stroke="none" d="M729,-323.79C729,-321.308 729,-318.826 729,-316.344"/>
<polygon fill="none" stroke="none" points="732.5,-316.141 729,-306.141 725.5,-316.141 732.5,-316.141"/>
</g>
<!-- row8end -->
<g id="node26" class="node"><title>row8end</title>
<ellipse fill="none" stroke="black" cx="729" cy="-234" rx="27" ry="18"/>
<text text-anchor="middle" x="729" y="-229.8" font-family="Times,serif" font-size="14.00">high</text>
</g>
<!-- row7end&#45;&gt;row8end -->
<g id="edge17" class="edge"><title>row7end&#45;&gt;row8end</title>
<path fill="none" stroke="none" d="M729,-269.79C729,-267.308 729,-264.826 729,-262.344"/>
<polygon fill="none" stroke="none" points="732.5,-262.141 729,-252.141 725.5,-262.141 732.5,-262.141"/>
</g>
<!-- row9end -->
<g id="node27" class="node"><title>row9end</title>
<ellipse fill="none" stroke="black" cx="729" cy="-180" rx="27" ry="18"/>
<text text-anchor="middle" x="729" y="-175.8" font-family="Times,serif" font-size="14.00">high</text>
</g>
<!-- row8end&#45;&gt;row9end -->
<g id="edge18" class="edge"><title>row8end&#45;&gt;row9end</title>
<path fill="none" stroke="none" d="M729,-215.79C729,-213.308 729,-210.826 729,-208.344"/>
<polygon fill="none" stroke="none" points="732.5,-208.141 729,-198.141 725.5,-208.141 732.5,-208.141"/>
</g>
<!-- row10end -->
<g id="node28" class="node"><title>row10end</title>
<ellipse fill="none" stroke="black" cx="729" cy="-126" rx="27" ry="18"/>
<text text-anchor="middle" x="729" y="-121.8" font-family="Times,serif" font-size="14.00">high</text>
</g>
<!-- row9end&#45;&gt;row10end -->
<g id="edge19" class="edge"><title>row9end&#45;&gt;row10end</title>
<path fill="none" stroke="none" d="M729,-161.79C729,-159.308 729,-156.826 729,-154.344"/>
<polygon fill="none" stroke="none" points="732.5,-154.141 729,-144.141 725.5,-154.141 732.5,-154.141"/>
</g>
<!-- row11end -->
<g id="node29" class="node"><title>row11end</title>
<ellipse fill="none" stroke="black" cx="729" cy="-72" rx="27" ry="18"/>
<text text-anchor="middle" x="729" y="-67.8" font-family="Times,serif" font-size="14.00">high</text>
</g>
<!-- row10end&#45;&gt;row11end -->
<g id="edge20" class="edge"><title>row10end&#45;&gt;row11end</title>
<path fill="none" stroke="none" d="M729,-107.79C729,-105.308 729,-102.826 729,-100.344"/>
<polygon fill="none" stroke="none" points="732.5,-100.141 729,-90.1406 725.5,-100.141 732.5,-100.141"/>
</g>
<!-- simplicity&#45;&gt;row1end -->
<g id="edge28" class="edge"><title>simplicity&#45;&gt;row1end</title>
<path fill="none" stroke="black" d="M296.983,-612C389.227,-612 623.247,-612 701.818,-612"/>
</g>
<!-- maturity&#45;&gt;row2end -->
<g id="edge30" class="edge"><title>maturity&#45;&gt;row2end</title>
<path fill="none" stroke="black" d="M421.8,-558C487.444,-558 640.14,-558 701.637,-558"/>
</g>
<!-- sexiness&#45;&gt;row3end -->
<g id="edge32" class="edge"><title>sexiness&#45;&gt;row3end</title>
<path fill="none" stroke="black" d="M540.312,-504C583.248,-504 661.065,-504 701.697,-504"/>
</g>
<!-- adaptability&#45;&gt;row4end -->
<g id="edge34" class="edge"><title>adaptability&#45;&gt;row4end</title>
<path fill="none" stroke="black" d="M666.313,-450C678.23,-450 690.961,-450 701.745,-450"/>
</g>
<!-- correspondence&#45;&gt;row5end -->
<g id="edge36" class="edge"><title>correspondence&#45;&gt;row5end</title>
<path fill="none" stroke="black" d="M310.084,-396C409.678,-396 626.622,-396 701.759,-396"/>
</g>
<!-- security&#45;&gt;row6end -->
<g id="edge38" class="edge"><title>security&#45;&gt;row6end</title>
<path fill="none" stroke="black" d="M420.317,-342C485.172,-342 639.944,-342 701.801,-342"/>
</g>
<!-- price&#45;&gt;row7end -->
<g id="edge40" class="edge"><title>price&#45;&gt;row7end</title>
<path fill="none" stroke="black" d="M536.296,-288C578.31,-288 660.092,-288 701.95,-288"/>
</g>
<!-- autonomy&#45;&gt;row8end -->
<g id="edge42" class="edge"><title>autonomy&#45;&gt;row8end</title>
<path fill="none" stroke="black" d="M661.103,-234C674.472,-234 689.461,-234 701.857,-234"/>
</g>
<!-- maintenance&#45;&gt;row9end -->
<g id="edge44" class="edge"><title>maintenance&#45;&gt;row9end</title>
<path fill="none" stroke="black" d="M169.465,-180C219.882,-180 311.062,-180 389,-180 389,-180 389,-180 510,-180 579.26,-180 660.898,-180 701.826,-180"/>
</g>
<!-- knowledge&#45;&gt;row10end -->
<g id="edge46" class="edge"><title>knowledge&#45;&gt;row10end</title>
<path fill="none" stroke="black" d="M547.973,-126C592.011,-126 663.446,-126 701.752,-126"/>
</g>
<!-- performance&#45;&gt;row11end -->
<g id="edge48" class="edge"><title>performance&#45;&gt;row11end</title>
<path fill="none" stroke="black" d="M433.34,-72C503.875,-72 643.423,-72 701.584,-72"/>
</g>
</g>
</svg>
