<?xml version="1.0" encoding="UTF-8" standalone="no"?>
<!DOCTYPE svg PUBLIC "-//W3C//DTD SVG 1.1//EN"
 "http://www.w3.org/Graphics/SVG/1.1/DTD/svg11.dtd">
<!-- Generated by graphviz version 2.36.0 (20140111.2315)
 -->
<!-- Title: %3 Pages: 1 -->
<svg width="469pt" height="204pt"
 viewBox="0.00 0.00 469.00 204.00" xmlns="http://www.w3.org/2000/svg" xmlns:xlink="http://www.w3.org/1999/xlink">
<g id="graph0" class="graph" transform="scale(1 1) rotate(0) translate(4 200)">
<title>%3</title>
<!-- Component -->
<g id="node1" class="node"><title>Component</title>
<ellipse fill="none" stroke="black" cx="212" cy="-178" rx="51.0631" ry="18"/>
<text text-anchor="middle" x="212" y="-173.8" font-family="Times,serif" font-size="14.00">Component</text>
</g>
<!-- View -->
<g id="node2" class="node"><title>View</title>
<ellipse fill="none" stroke="black" cx="133" cy="-98" rx="53.4492" ry="25.4118"/>
<text text-anchor="middle" x="133" y="-100.8" font-family="Times,serif" font-size="14.00">View</text>
<text text-anchor="middle" x="133" y="-86.8" font-family="Times,serif" font-size="14.00">(metadata)</text>
</g>
<!-- Component&#45;&gt;View -->
<g id="edge1" class="edge"><title>Component&#45;&gt;View</title>
<path fill="none" stroke="black" d="M195.631,-160.838C186.14,-151.468 173.899,-139.381 162.759,-128.383"/>
<polygon fill="black" stroke="black" points="165.213,-125.887 155.638,-121.352 160.295,-130.868 165.213,-125.887"/>
</g>
<!-- Model -->
<g id="node3" class="node"><title>Model</title>
<ellipse fill="none" stroke="black" cx="291" cy="-98" rx="37.2399" ry="25.4118"/>
<text text-anchor="middle" x="291" y="-100.8" font-family="Times,serif" font-size="14.00">Model</text>
<text text-anchor="middle" x="291" y="-86.8" font-family="Times,serif" font-size="14.00">(class)</text>
</g>
<!-- Component&#45;&gt;Model -->
<g id="edge2" class="edge"><title>Component&#45;&gt;Model</title>
<path fill="none" stroke="black" d="M228.369,-160.838C238.379,-150.955 251.449,-138.051 263.058,-126.588"/>
<polygon fill="black" stroke="black" points="265.772,-128.827 270.429,-119.311 260.854,-123.846 265.772,-128.827"/>
</g>
<!-- selector -->
<g id="node7" class="node"><title>selector</title>
<ellipse fill="none" stroke="black" cx="37" cy="-18" rx="37.4062" ry="18"/>
<text text-anchor="middle" x="37" y="-13.8" font-family="Times,serif" font-size="14.00">selector</text>
</g>
<!-- View&#45;&gt;selector -->
<g id="edge6" class="edge"><title>View&#45;&gt;selector</title>
<path fill="none" stroke="black" d="M106.768,-75.6862C93.2513,-64.7042 76.8136,-51.3485 63.2892,-40.36"/>
<polygon fill="black" stroke="black" points="65.2652,-37.4559 55.297,-33.8663 60.8511,-42.8887 65.2652,-37.4559"/>
</g>
<!-- template -->
<g id="node8" class="node"><title>template</title>
<ellipse fill="none" stroke="black" cx="133" cy="-18" rx="40.3303" ry="18"/>
<text text-anchor="middle" x="133" y="-13.8" font-family="Times,serif" font-size="14.00">template</text>
</g>
<!-- View&#45;&gt;template -->
<g id="edge7" class="edge"><title>View&#45;&gt;template</title>
<path fill="none" stroke="black" d="M133,-72.3203C133,-64.0355 133,-54.7495 133,-46.2772"/>
<polygon fill="black" stroke="black" points="136.5,-46.1174 133,-36.1174 129.5,-46.1175 136.5,-46.1174"/>
</g>
<!-- properties -->
<g id="node4" class="node"><title>properties</title>
<ellipse fill="none" stroke="black" cx="237" cy="-18" rx="45.2018" ry="18"/>
<text text-anchor="middle" x="237" y="-13.8" font-family="Times,serif" font-size="14.00">properties</text>
</g>
<!-- Model&#45;&gt;properties -->
<g id="edge3" class="edge"><title>Model&#45;&gt;properties</title>
<path fill="none" stroke="black" d="M275.381,-74.4392C268.799,-64.9316 261.112,-53.8286 254.354,-44.0666"/>
<polygon fill="black" stroke="black" points="257.036,-41.7924 248.466,-35.5627 251.281,-45.7769 257.036,-41.7924"/>
</g>
<!-- methods -->
<g id="node5" class="node"><title>methods</title>
<ellipse fill="none" stroke="black" cx="341" cy="-18" rx="40.1117" ry="18"/>
<text text-anchor="middle" x="341" y="-13.8" font-family="Times,serif" font-size="14.00">methods</text>
</g>
<!-- Model&#45;&gt;methods -->
<g id="edge4" class="edge"><title>Model&#45;&gt;methods</title>
<path fill="none" stroke="black" d="M305.462,-74.4392C311.557,-64.9316 318.674,-53.8286 324.932,-44.0666"/>
<polygon fill="black" stroke="black" points="327.933,-45.8703 330.383,-35.5627 322.04,-42.0926 327.933,-45.8703"/>
</g>
<!-- hooks -->
<g id="node6" class="node"><title>hooks</title>
<ellipse fill="none" stroke="black" cx="430" cy="-18" rx="31.3538" ry="18"/>
<text text-anchor="middle" x="430" y="-13.8" font-family="Times,serif" font-size="14.00">hooks</text>
</g>
<!-- Model&#45;&gt;hooks -->
<g id="edge5" class="edge"><title>Model&#45;&gt;hooks</title>
<path fill="none" stroke="black" d="M319.129,-81.2155C342.379,-68.1684 375.343,-49.671 399.279,-36.2389"/>
<polygon fill="black" stroke="black" points="401.283,-39.1281 408.291,-31.1821 397.857,-33.0236 401.283,-39.1281"/>
</g>
<!-- properties&#45;&gt;template -->
<g id="edge8" class="edge"><title>properties&#45;&gt;template</title>
<path fill="none" stroke="red" d="M191.449,-18C188.85,-18 186.25,-18 183.651,-18"/>
<polygon fill="red" stroke="red" points="183.625,-14.5001 173.625,-18 183.625,-21.5001 183.625,-14.5001"/>
</g>
<!-- methods&#45;&gt;properties -->
<g id="edge10" class="edge"><title>methods&#45;&gt;properties</title>
<path fill="none" stroke="red" d="M300.781,-18C298.115,-18 295.449,-18 292.783,-18"/>
<polygon fill="red" stroke="red" points="292.5,-14.5001 282.5,-18 292.5,-21.5001 292.5,-14.5001"/>
</g>
<!-- template&#45;&gt;methods -->
<g id="edge9" class="edge"><title>template&#45;&gt;methods</title>
<path fill="none" stroke="red" d="M152.722,-33.8212C163.616,-41.5408 177.791,-50.0074 192,-54 230.509,-64.8207 243.491,-64.8207 282,-54 292.768,-50.9743 303.516,-45.3794 312.831,-39.4872"/>
<polygon fill="red" stroke="red" points="314.923,-42.2987 321.278,-33.8212 311.023,-36.4856 314.923,-42.2987"/>
</g>
</g>
</svg>
