<?xml version="1.0" encoding="UTF-8" standalone="no"?>
<!DOCTYPE svg PUBLIC "-//W3C//DTD SVG 1.1//EN"
 "http://www.w3.org/Graphics/SVG/1.1/DTD/svg11.dtd">
<!-- Generated by graphviz version 2.36.0 (20140111.2315)
 -->
<!-- Title: %3 Pages: 1 -->
<svg width="382pt" height="152pt"
 viewBox="0.00 0.00 382.00 152.00" xmlns="http://www.w3.org/2000/svg" xmlns:xlink="http://www.w3.org/1999/xlink">
<g id="graph0" class="graph" transform="scale(1 1) rotate(0) translate(4 148)">
<title>%3</title>
<g id="clust1" class="cluster"><title>cluster_app</title>
<polygon fill="none" stroke="black" points="8,-8 8,-136 78,-136 78,-8 8,-8"/>
<text text-anchor="middle" x="43" y="-120.8" font-family="Times,serif" font-size="14.00">Parent</text>
</g>
<g id="clust2" class="cluster"><title>cluster_scene</title>
<polygon fill="none" stroke="black" points="246,-8 246,-136 374,-136 374,-8 246,-8"/>
<text text-anchor="middle" x="310" y="-120.8" font-family="Times,serif" font-size="14.00">ConfirmComponent</text>
</g>
<!-- player -->
<g id="node1" class="node"><title>player</title>
<ellipse fill="none" stroke="none" cx="43" cy="-88" rx="27" ry="18"/>
<text text-anchor="middle" x="43" y="-83.8" font-family="Times,serif" font-size="14.00" fill="#fffffe"> </text>
</g>
<!-- disabled -->
<g id="node5" class="node"><title>disabled</title>
<ellipse fill="none" stroke="black" cx="162" cy="-88" rx="39.6558" ry="18"/>
<text text-anchor="middle" x="162" y="-83.8" font-family="Times,serif" font-size="14.00">disabled</text>
</g>
<!-- player&#45;&gt;disabled -->
<g id="edge1" class="edge"><title>player&#45;&gt;disabled</title>
<path fill="none" stroke="black" d="M77.7473,-88C91.7039,-88 107.965,-88 122.393,-88"/>
</g>
<!-- bogus1 -->
<g id="node2" class="node"><title>bogus1</title>
<ellipse fill="none" stroke="none" cx="43" cy="-34" rx="27" ry="18"/>
<text text-anchor="middle" x="43" y="-29.8" font-family="Times,serif" font-size="14.00" fill="#fffffe"> </text>
</g>
<!-- bogus3 -->
<g id="node3" class="node"><title>bogus3</title>
<ellipse fill="none" stroke="black" stroke-dasharray="5,2" cx="310" cy="-88" rx="29.5104" ry="18"/>
<text text-anchor="middle" x="310" y="-83.8" font-family="Times,serif" font-size="14.00">mode</text>
</g>
<!-- bogus2 -->
<g id="node4" class="node"><title>bogus2</title>
<ellipse fill="none" stroke="none" cx="310" cy="-34" rx="27" ry="18"/>
<text text-anchor="middle" x="310" y="-29.8" font-family="Times,serif" font-size="14.00" fill="#fffffe"> </text>
</g>
<!-- link -->
<g id="node6" class="node"><title>link</title>
<ellipse fill="none" stroke="black" cx="162" cy="-34" rx="55.1008" ry="18"/>
<text text-anchor="middle" x="162" y="-29.8" font-family="Times,serif" font-size="14.00">confirmation</text>
</g>
<!-- bogus2&#45;&gt;link -->
<g id="edge3" class="edge"><title>bogus2&#45;&gt;link</title>
<path fill="none" stroke="black" d="M246.331,-34C236.691,-34 226.805,-34 217.365,-34"/>
</g>
<!-- disabled&#45;&gt;bogus3 -->
<g id="edge2" class="edge"><title>disabled&#45;&gt;bogus3</title>
<path fill="none" stroke="black" d="M201.742,-88C212.253,-88 223.989,-88 235.735,-88"/>
<polygon fill="black" stroke="black" points="236.029,-91.5001 246.029,-88 236.029,-84.5001 236.029,-91.5001"/>
</g>
<!-- link&#45;&gt;bogus1 -->
<g id="edge4" class="edge"><title>link&#45;&gt;bogus1</title>
<path fill="none" stroke="black" d="M106.589,-34C97.6958,-34 88.6761,-34 80.3572,-34"/>
<polygon fill="black" stroke="black" points="88.0001,-30.5004 78,-34 87.9999,-37.5004 88.0001,-30.5004"/>
</g>
</g>
</svg>
