<?xml version="1.0" encoding="UTF-8" standalone="no"?>
<!DOCTYPE svg PUBLIC "-//W3C//DTD SVG 1.1//EN"
 "http://www.w3.org/Graphics/SVG/1.1/DTD/svg11.dtd">
<!-- Generated by graphviz version 2.36.0 (20140111.2315)
 -->
<!-- Title: %3 Pages: 1 -->
<svg width="630pt" height="260pt"
 viewBox="0.00 0.00 630.00 260.00" xmlns="http://www.w3.org/2000/svg" xmlns:xlink="http://www.w3.org/1999/xlink">
<g id="graph0" class="graph" transform="scale(1 1) rotate(0) translate(4 256)">
<title>%3</title>
<!-- page1_1 -->
<g id="node1" class="node"><title>page1_1</title>
<ellipse fill="none" stroke="black" cx="337" cy="-162" rx="40.0987" ry="18"/>
<text text-anchor="middle" x="337" y="-157.8" font-family="Times,serif" font-size="14.00">page1_1</text>
</g>
<!-- page1_2 -->
<g id="node2" class="node"><title>page1_2</title>
<ellipse fill="none" stroke="black" cx="337" cy="-90" rx="40.0987" ry="18"/>
<text text-anchor="middle" x="337" y="-85.8" font-family="Times,serif" font-size="14.00">page1_2</text>
</g>
<!-- page1_1&#45;&gt;page1_2 -->
<g id="edge8" class="edge"><title>page1_1&#45;&gt;page1_2</title>
<path fill="none" stroke="black" d="M337,-143.697C337,-135.983 337,-126.712 337,-118.112"/>
<polygon fill="black" stroke="black" points="340.5,-118.104 337,-108.104 333.5,-118.104 340.5,-118.104"/>
</g>
<!-- page1_3 -->
<!-- page1_2&#45;&gt;page1_3 -->
<g id="edge12" class="edge"><title>page1_2&#45;&gt;page1_3</title>
<path fill="none" stroke="black" stroke-dasharray="5,2" d="M337,-71.6966C337,-63.9827 337,-54.7125 337,-46.1124"/>
<polygon fill="black" stroke="black" points="340.5,-46.1043 337,-36.1043 333.5,-46.1044 340.5,-46.1043"/>
</g>
<!-- page2_1 -->
<g id="node4" class="node"><title>page2_1</title>
<ellipse fill="none" stroke="black" cx="437" cy="-162" rx="40.0987" ry="18"/>
<text text-anchor="middle" x="437" y="-157.8" font-family="Times,serif" font-size="14.00">page2_1</text>
</g>
<!-- page2_2 -->
<g id="node5" class="node"><title>page2_2</title>
<ellipse fill="none" stroke="black" cx="437" cy="-90" rx="40.0987" ry="18"/>
<text text-anchor="middle" x="437" y="-85.8" font-family="Times,serif" font-size="14.00">page2_2</text>
</g>
<!-- page2_1&#45;&gt;page2_2 -->
<g id="edge10" class="edge"><title>page2_1&#45;&gt;page2_2</title>
<path fill="none" stroke="black" d="M437,-143.697C437,-135.983 437,-126.712 437,-118.112"/>
<polygon fill="black" stroke="black" points="440.5,-118.104 437,-108.104 433.5,-118.104 440.5,-118.104"/>
</g>
<!-- page2_3 -->
<!-- page2_2&#45;&gt;page2_3 -->
<g id="edge11" class="edge"><title>page2_2&#45;&gt;page2_3</title>
<path fill="none" stroke="black" stroke-dasharray="5,2" d="M437,-71.6966C437,-63.9827 437,-54.7125 437,-46.1124"/>
<polygon fill="black" stroke="black" points="440.5,-46.1043 437,-36.1043 433.5,-46.1044 440.5,-46.1043"/>
</g>
<!-- Title -->
<g id="node6" class="node"><title>Title</title>
<ellipse fill="none" stroke="black" cx="27" cy="-234" rx="27" ry="18"/>
<text text-anchor="middle" x="27" y="-229.8" font-family="Times,serif" font-size="14.00">Title</text>
</g>
<!-- Motivation -->
<g id="node7" class="node"><title>Motivation</title>
<ellipse fill="none" stroke="black" stroke-dasharray="5,2" cx="121" cy="-234" rx="49.1158" ry="18"/>
<text text-anchor="middle" x="121" y="-229.8" font-family="Times,serif" font-size="14.00">Motivation</text>
</g>
<!-- Title&#45;&gt;Motivation -->
<g id="edge1" class="edge"><title>Title&#45;&gt;Motivation</title>
<path fill="none" stroke="black" d="M54.1719,-234C56.6314,-234 59.091,-234 61.5505,-234"/>
<polygon fill="black" stroke="black" points="61.6621,-237.5 71.662,-234 61.662,-230.5 61.6621,-237.5"/>
</g>
<!-- Overview -->
<g id="node8" class="node"><title>Overview</title>
<ellipse fill="none" stroke="black" cx="233" cy="-234" rx="44.4635" ry="18"/>
<text text-anchor="middle" x="233" y="-229.8" font-family="Times,serif" font-size="14.00">Overview</text>
</g>
<!-- Motivation&#45;&gt;Overview -->
<g id="edge2" class="edge"><title>Motivation&#45;&gt;Overview</title>
<path fill="none" stroke="black" d="M170.438,-234C172.912,-234 175.386,-234 177.861,-234"/>
<polygon fill="black" stroke="black" points="178.033,-237.5 188.033,-234 178.033,-230.5 178.033,-237.5"/>
</g>
<!-- Section1 -->
<g id="node9" class="node"><title>Section1</title>
<ellipse fill="none" stroke="black" cx="337" cy="-234" rx="41.082" ry="18"/>
<text text-anchor="middle" x="337" y="-229.8" font-family="Times,serif" font-size="14.00">Section1</text>
</g>
<!-- Overview&#45;&gt;Section1 -->
<g id="edge3" class="edge"><title>Overview&#45;&gt;Section1</title>
<path fill="none" stroke="black" d="M277.688,-234C280.323,-234 282.958,-234 285.594,-234"/>
<polygon fill="black" stroke="black" points="285.759,-237.5 295.759,-234 285.759,-230.5 285.759,-237.5"/>
</g>
<!-- Section1&#45;&gt;page1_1 -->
<g id="edge7" class="edge"><title>Section1&#45;&gt;page1_1</title>
<path fill="none" stroke="black" d="M337,-215.697C337,-207.983 337,-198.712 337,-190.112"/>
<polygon fill="black" stroke="black" points="340.5,-190.104 337,-180.104 333.5,-190.104 340.5,-190.104"/>
</g>
<!-- Section2 -->
<g id="node10" class="node"><title>Section2</title>
<ellipse fill="none" stroke="black" cx="437" cy="-234" rx="41.082" ry="18"/>
<text text-anchor="middle" x="437" y="-229.8" font-family="Times,serif" font-size="14.00">Section2</text>
</g>
<!-- Section1&#45;&gt;Section2 -->
<g id="edge4" class="edge"><title>Section1&#45;&gt;Section2</title>
<path fill="none" stroke="black" d="M378.406,-234C380.852,-234 383.299,-234 385.745,-234"/>
<polygon fill="black" stroke="black" points="385.801,-237.5 395.801,-234 385.801,-230.5 385.801,-237.5"/>
</g>
<!-- Section2&#45;&gt;page2_1 -->
<g id="edge9" class="edge"><title>Section2&#45;&gt;page2_1</title>
<path fill="none" stroke="black" d="M437,-215.697C437,-207.983 437,-198.712 437,-190.112"/>
<polygon fill="black" stroke="black" points="440.5,-190.104 437,-180.104 433.5,-190.104 440.5,-190.104"/>
</g>
<!-- rest -->
<g id="node11" class="node"><title>rest</title>
<ellipse fill="none" stroke="black" stroke-dasharray="5,2" cx="523" cy="-234" rx="27" ry="18"/>
<text text-anchor="middle" x="523" y="-229.8" font-family="Times,serif" font-size="14.00">...</text>
</g>
<!-- Section2&#45;&gt;rest -->
<g id="edge5" class="edge"><title>Section2&#45;&gt;rest</title>
<path fill="none" stroke="black" d="M478.32,-234C480.775,-234 483.229,-234 485.683,-234"/>
<polygon fill="black" stroke="black" points="485.773,-237.5 495.773,-234 485.773,-230.5 485.773,-237.5"/>
</g>
<!-- End -->
<g id="node12" class="node"><title>End</title>
<ellipse fill="none" stroke="black" cx="595" cy="-234" rx="27" ry="18"/>
<text text-anchor="middle" x="595" y="-229.8" font-family="Times,serif" font-size="14.00">End</text>
</g>
<!-- rest&#45;&gt;End -->
<g id="edge6" class="edge"><title>rest&#45;&gt;End</title>
<path fill="none" stroke="black" d="M550,-234C552.615,-234 555.229,-234 557.844,-234"/>
<polygon fill="black" stroke="black" points="557.93,-237.5 567.93,-234 557.93,-230.5 557.93,-237.5"/>
</g>
</g>
</svg>
