<?xml version="1.0" encoding="UTF-8" standalone="no"?>
<!DOCTYPE svg PUBLIC "-//W3C//DTD SVG 1.1//EN"
 "http://www.w3.org/Graphics/SVG/1.1/DTD/svg11.dtd">
<!-- Generated by graphviz version 2.36.0 (20140111.2315)
 -->
<!-- Title: %3 Pages: 1 -->
<svg width="371pt" height="116pt"
 viewBox="0.00 0.00 371.00 116.00" xmlns="http://www.w3.org/2000/svg" xmlns:xlink="http://www.w3.org/1999/xlink">
<g id="graph0" class="graph" transform="scale(1 1) rotate(0) translate(4 112)">
<title>%3</title>
<!-- Chapter1 -->
<g id="node1" class="node"><title>Chapter1</title>
<ellipse fill="none" stroke="black" cx="42" cy="-18" rx="42.2841" ry="18"/>
<text text-anchor="middle" x="42" y="-13.8" font-family="Times,serif" font-size="14.00">Chapter1</text>
</g>
<!-- Chapter2 -->
<g id="node2" class="node"><title>Chapter2</title>
<ellipse fill="none" stroke="black" cx="145" cy="-18" rx="42.2841" ry="18"/>
<text text-anchor="middle" x="145" y="-13.8" font-family="Times,serif" font-size="14.00">Chapter2</text>
</g>
<!-- Chapter3 -->
<g id="node3" class="node"><title>Chapter3</title>
<ellipse fill="none" stroke="black" cx="248" cy="-18" rx="42.2841" ry="18"/>
<text text-anchor="middle" x="248" y="-13.8" font-family="Times,serif" font-size="14.00">Chapter3</text>
</g>
<!-- rest -->
<g id="node4" class="node"><title>rest</title>
<ellipse fill="none" stroke="black" cx="336" cy="-18" rx="27" ry="18"/>
<text text-anchor="middle" x="336" y="-13.8" font-family="Times,serif" font-size="14.00">...</text>
</g>
<!-- Index -->
<g id="node5" class="node"><title>Index</title>
<ellipse fill="none" stroke="black" cx="196" cy="-90" rx="30.3641" ry="18"/>
<text text-anchor="middle" x="196" y="-85.8" font-family="Times,serif" font-size="14.00">Index</text>
</g>
<!-- Index&#45;&gt;Chapter1 -->
<g id="edge1" class="edge"><title>Index&#45;&gt;Chapter1</title>
<path fill="none" stroke="black" d="M172.611,-78.3685C147.815,-67.0977 108.295,-49.1339 79.2136,-35.9153"/>
<polygon fill="black" stroke="black" points="80.3399,-32.5827 69.7879,-31.6309 77.4433,-38.9552 80.3399,-32.5827"/>
</g>
<!-- Index&#45;&gt;Chapter2 -->
<g id="edge2" class="edge"><title>Index&#45;&gt;Chapter2</title>
<path fill="none" stroke="black" d="M184.427,-73.1159C178.063,-64.3803 170.028,-53.3528 162.876,-43.5352"/>
<polygon fill="black" stroke="black" points="165.598,-41.3284 156.881,-35.307 159.941,-45.4504 165.598,-41.3284"/>
</g>
<!-- Index&#45;&gt;Chapter3 -->
<g id="edge3" class="edge"><title>Index&#45;&gt;Chapter3</title>
<path fill="none" stroke="black" d="M207.8,-73.1159C214.289,-64.3803 222.481,-53.3528 229.774,-43.5352"/>
<polygon fill="black" stroke="black" points="232.733,-45.4216 235.886,-35.307 227.113,-41.2473 232.733,-45.4216"/>
</g>
<!-- Index&#45;&gt;rest -->
<g id="edge4" class="edge"><title>Index&#45;&gt;rest</title>
<path fill="none" stroke="black" d="M218.493,-77.7533C242.175,-65.9127 279.59,-47.205 305.824,-34.0882"/>
<polygon fill="black" stroke="black" points="307.557,-37.1345 314.936,-29.5318 304.427,-30.8735 307.557,-37.1345"/>
</g>
</g>
</svg>
