<?xml version="1.0" encoding="UTF-8" standalone="no"?>
<!DOCTYPE svg PUBLIC "-//W3C//DTD SVG 1.1//EN"
 "http://www.w3.org/Graphics/SVG/1.1/DTD/svg11.dtd">
<!-- Generated by graphviz version 2.36.0 (20140111.2315)
 -->
<!-- Title: %3 Pages: 1 -->
<svg width="399pt" height="220pt"
 viewBox="0.00 0.00 399.00 220.00" xmlns="http://www.w3.org/2000/svg" xmlns:xlink="http://www.w3.org/1999/xlink">
<g id="graph0" class="graph" transform="scale(1 1) rotate(0) translate(4 216)">
<title>%3</title>
<!-- comb -->
<g id="node1" class="node"><title>comb</title>
<ellipse fill="none" stroke="black" cx="186" cy="-186" rx="59.8773" ry="25.4118"/>
<text text-anchor="middle" x="186" y="-188.8" font-family="Times,serif" font-size="14.00">description</text>
<text text-anchor="middle" x="186" y="-174.8" font-family="Times,serif" font-size="14.00">combinators</text>
</g>
<!-- descendant -->
<g id="node2" class="node"><title>descendant</title>
<ellipse fill="none" stroke="black" cx="49" cy="-98" rx="49.09" ry="18"/>
<text text-anchor="middle" x="49" y="-93.8" font-family="Times,serif" font-size="14.00">descendant</text>
</g>
<!-- comb&#45;&gt;descendant -->
<g id="edge1" class="edge"><title>comb&#45;&gt;descendant</title>
<path fill="none" stroke="black" d="M153.185,-164.401C131.478,-150.774 103.137,-132.984 81.4953,-119.399"/>
<polygon fill="black" stroke="black" points="83.2968,-116.397 72.9664,-114.045 79.5751,-122.326 83.2968,-116.397"/>
</g>
<!-- child -->
<g id="node4" class="node"><title>child</title>
<ellipse fill="none" stroke="black" cx="144" cy="-98" rx="27.1887" ry="18"/>
<text text-anchor="middle" x="144" y="-93.8" font-family="Times,serif" font-size="14.00">child</text>
</g>
<!-- comb&#45;&gt;child -->
<g id="edge3" class="edge"><title>comb&#45;&gt;child</title>
<path fill="none" stroke="black" d="M174.077,-160.586C168.544,-149.257 161.971,-135.798 156.383,-124.355"/>
<polygon fill="black" stroke="black" points="159.498,-122.758 151.965,-115.309 153.208,-125.83 159.498,-122.758"/>
</g>
<!-- adjsibl -->
<g id="node6" class="node"><title>adjsibl</title>
<ellipse fill="none" stroke="black" cx="228" cy="-98" rx="37.9022" ry="25.4118"/>
<text text-anchor="middle" x="228" y="-100.8" font-family="Times,serif" font-size="14.00">prior</text>
<text text-anchor="middle" x="228" y="-86.8" font-family="Times,serif" font-size="14.00">sibling</text>
</g>
<!-- comb&#45;&gt;adjsibl -->
<g id="edge5" class="edge"><title>comb&#45;&gt;adjsibl</title>
<path fill="none" stroke="black" d="M197.923,-160.586C202.289,-151.647 207.302,-141.382 211.968,-131.827"/>
<polygon fill="black" stroke="black" points="215.238,-133.107 216.482,-122.585 208.948,-130.035 215.238,-133.107"/>
</g>
<!-- anysibl -->
<g id="node8" class="node"><title>anysibl</title>
<ellipse fill="none" stroke="black" cx="338" cy="-98" rx="53.0372" ry="25.4118"/>
<text text-anchor="middle" x="338" y="-100.8" font-family="Times,serif" font-size="14.00">any earlier</text>
<text text-anchor="middle" x="338" y="-86.8" font-family="Times,serif" font-size="14.00">sibling</text>
</g>
<!-- comb&#45;&gt;anysibl -->
<g id="edge7" class="edge"><title>comb&#45;&gt;anysibl</title>
<path fill="none" stroke="black" d="M221.254,-165.054C243.397,-152.526 272.091,-136.29 295.491,-123.051"/>
<polygon fill="black" stroke="black" points="297.522,-125.924 304.502,-117.953 294.075,-119.831 297.522,-125.924"/>
</g>
<!-- descfoo -->
<g id="node3" class="node"><title>descfoo</title>
<polygon fill="none" stroke="black" points="76,-36 22,-36 22,-0 76,-0 76,-36"/>
<text text-anchor="middle" x="49" y="-13.8" font-family="Times,serif" font-size="14.00">div p</text>
</g>
<!-- descendant&#45;&gt;descfoo -->
<g id="edge2" class="edge"><title>descendant&#45;&gt;descfoo</title>
<path fill="none" stroke="black" d="M49,-79.6893C49,-66.7633 49,-49.1766 49,-36.2623"/>
</g>
<!-- childfoo -->
<g id="node5" class="node"><title>childfoo</title>
<polygon fill="none" stroke="black" points="171.341,-36 116.659,-36 116.659,-0 171.341,-0 171.341,-36"/>
<text text-anchor="middle" x="144" y="-13.8" font-family="Times,serif" font-size="14.00">div &gt; p</text>
</g>
<!-- child&#45;&gt;childfoo -->
<g id="edge4" class="edge"><title>child&#45;&gt;childfoo</title>
<path fill="none" stroke="black" d="M144,-79.6893C144,-66.7633 144,-49.1766 144,-36.2623"/>
</g>
<!-- adjsiblfoo -->
<g id="node7" class="node"><title>adjsiblfoo</title>
<polygon fill="none" stroke="black" points="255.341,-36 200.659,-36 200.659,-0 255.341,-0 255.341,-36"/>
<text text-anchor="middle" x="228" y="-13.8" font-family="Times,serif" font-size="14.00">div + p</text>
</g>
<!-- adjsibl&#45;&gt;adjsiblfoo -->
<g id="edge6" class="edge"><title>adjsibl&#45;&gt;adjsiblfoo</title>
<path fill="none" stroke="black" d="M228,-72.3203C228,-60.5375 228,-46.7295 228,-36.1174"/>
</g>
<!-- anysiblfoo -->
<g id="node9" class="node"><title>anysiblfoo</title>
<polygon fill="none" stroke="black" points="365.597,-36 310.403,-36 310.403,-0 365.597,-0 365.597,-36"/>
<text text-anchor="middle" x="338" y="-13.8" font-family="Times,serif" font-size="14.00">div ~ p</text>
</g>
<!-- anysibl&#45;&gt;anysiblfoo -->
<g id="edge8" class="edge"><title>anysibl&#45;&gt;anysiblfoo</title>
<path fill="none" stroke="black" d="M338,-72.3203C338,-60.5375 338,-46.7295 338,-36.1174"/>
</g>
</g>
</svg>
