<?xml version="1.0" encoding="UTF-8" standalone="no"?>
<!DOCTYPE svg PUBLIC "-//W3C//DTD SVG 1.1//EN"
 "http://www.w3.org/Graphics/SVG/1.1/DTD/svg11.dtd">
<!-- Generated by graphviz version 2.36.0 (20140111.2315)
 -->
<!-- Title: %3 Pages: 1 -->
<svg width="529pt" height="204pt"
 viewBox="0.00 0.00 529.00 204.00" xmlns="http://www.w3.org/2000/svg" xmlns:xlink="http://www.w3.org/1999/xlink">
<g id="graph0" class="graph" transform="scale(1 1) rotate(0) translate(4 200)">
<title>%3</title>
<!-- desc -->
<g id="node1" class="node"><title>desc</title>
<ellipse fill="none" stroke="black" cx="249" cy="-170" rx="54.9523" ry="25.4118"/>
<text text-anchor="middle" x="249" y="-172.8" font-family="Times,serif" font-size="14.00">element</text>
<text text-anchor="middle" x="249" y="-158.8" font-family="Times,serif" font-size="14.00">description</text>
</g>
<!-- type -->
<g id="node2" class="node"><title>type</title>
<ellipse fill="none" stroke="black" cx="54" cy="-90" rx="27" ry="18"/>
<text text-anchor="middle" x="54" y="-85.8" font-family="Times,serif" font-size="14.00">type</text>
</g>
<!-- desc&#45;&gt;type -->
<g id="edge1" class="edge"><title>desc&#45;&gt;type</title>
<path fill="none" stroke="black" d="M208.122,-152.649C171.732,-138.093 119.239,-117.096 85.8774,-103.751"/>
<polygon fill="black" stroke="black" points="87.1755,-100.501 76.5908,-100.036 84.5757,-107 87.1755,-100.501"/>
</g>
<!-- class -->
<g id="node4" class="node"><title>class</title>
<ellipse fill="none" stroke="black" cx="159" cy="-90" rx="26.9483" ry="18"/>
<text text-anchor="middle" x="159" y="-85.8" font-family="Times,serif" font-size="14.00">class</text>
</g>
<!-- desc&#45;&gt;class -->
<g id="edge3" class="edge"><title>desc&#45;&gt;class</title>
<path fill="none" stroke="black" d="M223.93,-147.273C211.045,-136.105 195.428,-122.571 182.739,-111.574"/>
<polygon fill="black" stroke="black" points="184.731,-108.668 174.881,-104.764 180.146,-113.958 184.731,-108.668"/>
</g>
<!-- id -->
<g id="node6" class="node"><title>id</title>
<ellipse fill="none" stroke="black" cx="249" cy="-90" rx="27" ry="18"/>
<text text-anchor="middle" x="249" y="-85.8" font-family="Times,serif" font-size="14.00">id</text>
</g>
<!-- desc&#45;&gt;id -->
<g id="edge5" class="edge"><title>desc&#45;&gt;id</title>
<path fill="none" stroke="black" d="M249,-144.32C249,-136.036 249,-126.749 249,-118.277"/>
<polygon fill="black" stroke="black" points="252.5,-118.117 249,-108.117 245.5,-118.117 252.5,-118.117"/>
</g>
<!-- attr -->
<g id="node8" class="node"><title>attr</title>
<ellipse fill="none" stroke="black" cx="345" cy="-90" rx="39.3599" ry="18"/>
<text text-anchor="middle" x="345" y="-85.8" font-family="Times,serif" font-size="14.00">attribute</text>
</g>
<!-- desc&#45;&gt;attr -->
<g id="edge7" class="edge"><title>desc&#45;&gt;attr</title>
<path fill="none" stroke="black" d="M275.487,-147.48C288.907,-136.576 305.156,-123.373 318.569,-112.475"/>
<polygon fill="black" stroke="black" points="320.949,-115.051 326.503,-106.029 316.534,-109.619 320.949,-115.051"/>
</g>
<!-- pseudo -->
<g id="node10" class="node"><title>pseudo</title>
<ellipse fill="none" stroke="black" cx="460" cy="-90" rx="35.241" ry="18"/>
<text text-anchor="middle" x="460" y="-85.8" font-family="Times,serif" font-size="14.00">pseudo</text>
</g>
<!-- desc&#45;&gt;pseudo -->
<g id="edge9" class="edge"><title>desc&#45;&gt;pseudo</title>
<path fill="none" stroke="black" d="M291.192,-153.403C329.557,-139.221 385.647,-118.486 422.481,-104.87"/>
<polygon fill="black" stroke="black" points="424.162,-107.98 432.328,-101.229 421.735,-101.414 424.162,-107.98"/>
</g>
<!-- typefoo -->
<g id="node3" class="node"><title>typefoo</title>
<polygon fill="none" stroke="black" points="76.4727,-36 -0.47271,-36 -0.47271,-0 76.4727,-0 76.4727,-36"/>
<text text-anchor="middle" x="38" y="-20.8" font-family="Times,serif" font-size="14.00">ex: div,</text>
<text text-anchor="middle" x="38" y="-6.8" font-family="Times,serif" font-size="14.00">body, table</text>
</g>
<!-- type&#45;&gt;typefoo -->
<g id="edge2" class="edge"><title>type&#45;&gt;typefoo</title>
<path fill="none" stroke="black" d="M50.1268,-72.055C47.6482,-61.2111 44.4418,-47.183 41.9486,-36.2753"/>
</g>
<!-- classfoo -->
<g id="node5" class="node"><title>classfoo</title>
<polygon fill="none" stroke="black" points="188.905,-36 95.0947,-36 95.0947,-0 188.905,-0 188.905,-36"/>
<text text-anchor="middle" x="142" y="-13.8" font-family="Times,serif" font-size="14.00">ex: .important</text>
</g>
<!-- class&#45;&gt;classfoo -->
<g id="edge4" class="edge"><title>class&#45;&gt;classfoo</title>
<path fill="none" stroke="black" d="M154.885,-72.055C152.251,-61.2111 148.844,-47.183 146.195,-36.2753"/>
</g>
<!-- idfoo -->
<g id="node7" class="node"><title>idfoo</title>
<polygon fill="none" stroke="black" points="291.023,-36 206.977,-36 206.977,-0 291.023,-0 291.023,-36"/>
<text text-anchor="middle" x="249" y="-13.8" font-family="Times,serif" font-size="14.00">ex: #sidebar</text>
</g>
<!-- id&#45;&gt;idfoo -->
<g id="edge6" class="edge"><title>id&#45;&gt;idfoo</title>
<path fill="none" stroke="black" d="M249,-71.6966C249,-60.8463 249,-46.9167 249,-36.1043"/>
</g>
<!-- attrfoo -->
<g id="node9" class="node"><title>attrfoo</title>
<polygon fill="none" stroke="black" points="405.062,-36 308.938,-36 308.938,-0 405.062,-0 405.062,-36"/>
<text text-anchor="middle" x="357" y="-20.8" font-family="Times,serif" font-size="14.00">ex: [disabled],</text>
<text text-anchor="middle" x="357" y="-6.8" font-family="Times,serif" font-size="14.00">[href^=http]</text>
</g>
<!-- attr&#45;&gt;attrfoo -->
<g id="edge8" class="edge"><title>attr&#45;&gt;attrfoo</title>
<path fill="none" stroke="black" d="M347.966,-71.6966C349.826,-60.8463 352.214,-46.9167 354.068,-36.1043"/>
</g>
<!-- pseudofoo -->
<g id="node11" class="node"><title>pseudofoo</title>
<polygon fill="none" stroke="black" points="521.326,-36 422.674,-36 422.674,-0 521.326,-0 521.326,-36"/>
<text text-anchor="middle" x="472" y="-20.8" font-family="Times,serif" font-size="14.00">ex: :first&#45;child,</text>
<text text-anchor="middle" x="472" y="-6.8" font-family="Times,serif" font-size="14.00">:nth&#45;child(3)</text>
</g>
<!-- pseudo&#45;&gt;pseudofoo -->
<g id="edge10" class="edge"><title>pseudo&#45;&gt;pseudofoo</title>
<path fill="none" stroke="black" d="M462.905,-72.055C464.764,-61.2111 467.169,-47.183 469.039,-36.2753"/>
</g>
</g>
</svg>
