<?xml version="1.0" encoding="UTF-8" standalone="no"?>
<!DOCTYPE svg PUBLIC "-//W3C//DTD SVG 1.1//EN"
 "http://www.w3.org/Graphics/SVG/1.1/DTD/svg11.dtd">
<!-- Generated by graphviz version 2.36.0 (20140111.2315)
 -->
<!-- Title: %3 Pages: 1 -->
<svg width="251pt" height="220pt"
 viewBox="0.00 0.00 251.00 220.00" xmlns="http://www.w3.org/2000/svg" xmlns:xlink="http://www.w3.org/1999/xlink">
<g id="graph0" class="graph" transform="scale(1 1) rotate(0) translate(4 216)">
<title>%3</title>
<!-- CSSsel -->
<g id="node1" class="node"><title>CSSsel</title>
<ellipse fill="none" stroke="black" cx="124" cy="-186" rx="42.1425" ry="25.4118"/>
<text text-anchor="middle" x="124" y="-188.8" font-family="Times,serif" font-size="14.00">CSS</text>
<text text-anchor="middle" x="124" y="-174.8" font-family="Times,serif" font-size="14.00">selector</text>
</g>
<!-- desc -->
<g id="node2" class="node"><title>desc</title>
<ellipse fill="none" stroke="black" cx="59" cy="-98" rx="59.23" ry="25.4118"/>
<text text-anchor="middle" x="59" y="-100.8" font-family="Times,serif" font-size="14.00">element</text>
<text text-anchor="middle" x="59" y="-86.8" font-family="Times,serif" font-size="14.00">descriptions</text>
</g>
<!-- CSSsel&#45;&gt;desc -->
<g id="edge1" class="edge"><title>CSSsel:w&#45;&gt;desc</title>
<path fill="none" stroke="black" d="M81,-186C58.3706,-186 54.338,-157.993 55.084,-133.76"/>
<polygon fill="black" stroke="black" points="58.5827,-133.881 55.6561,-123.698 51.594,-133.483 58.5827,-133.881"/>
</g>
<!-- combinators -->
<g id="node3" class="node"><title>combinators</title>
<ellipse fill="none" stroke="black" cx="190" cy="-98" rx="53.2368" ry="18"/>
<text text-anchor="middle" x="190" y="-93.8" font-family="Times,serif" font-size="14.00">combinators</text>
</g>
<!-- CSSsel&#45;&gt;combinators -->
<g id="edge2" class="edge"><title>CSSsel:e&#45;&gt;combinators</title>
<path fill="none" stroke="black" d="M167,-186C192.016,-186 194.736,-151.963 193.265,-126.468"/>
<polygon fill="black" stroke="black" points="196.728,-125.872 192.43,-116.188 189.751,-126.439 196.728,-125.872"/>
</g>
<!-- descfoo -->
<g id="node4" class="node"><title>descfoo</title>
<polygon fill="none" stroke="black" points="107.438,-36 10.5615,-36 10.5615,-0 107.438,-0 107.438,-36"/>
<text text-anchor="middle" x="59" y="-20.8" font-family="Times,serif" font-size="14.00">describes a</text>
<text text-anchor="middle" x="59" y="-6.8" font-family="Times,serif" font-size="14.00">single element</text>
</g>
<!-- desc&#45;&gt;descfoo -->
<g id="edge3" class="edge"><title>desc&#45;&gt;descfoo</title>
<path fill="none" stroke="black" d="M59,-72.3203C59,-60.5375 59,-46.7295 59,-36.1174"/>
</g>
<!-- combfoo -->
<g id="node5" class="node"><title>combfoo</title>
<polygon fill="none" stroke="black" points="242.194,-36 137.806,-36 137.806,-0 242.194,-0 242.194,-36"/>
<text text-anchor="middle" x="190" y="-20.8" font-family="Times,serif" font-size="14.00">combines many</text>
<text text-anchor="middle" x="190" y="-6.8" font-family="Times,serif" font-size="14.00">descriptions</text>
</g>
<!-- combinators&#45;&gt;combfoo -->
<g id="edge4" class="edge"><title>combinators&#45;&gt;combfoo</title>
<path fill="none" stroke="black" d="M190,-79.6893C190,-66.7633 190,-49.1766 190,-36.2623"/>
</g>
</g>
</svg>
