<?xml version="1.0" encoding="UTF-8" standalone="no"?>
<!DOCTYPE svg PUBLIC "-//W3C//DTD SVG 1.1//EN"
 "http://www.w3.org/Graphics/SVG/1.1/DTD/svg11.dtd">
<!-- Generated by graphviz version 2.36.0 (20140111.2315)
 -->
<!-- Title: %3 Pages: 1 -->
<svg width="758pt" height="98pt"
 viewBox="0.00 0.00 758.00 98.00" xmlns="http://www.w3.org/2000/svg" xmlns:xlink="http://www.w3.org/1999/xlink">
<g id="graph0" class="graph" transform="scale(1 1) rotate(0) translate(4 94)">
<title>%3</title>
<!-- col0 -->
<g id="node1" class="node"><title>col0</title>
<ellipse fill="none" stroke="none" cx="34" cy="-18" rx="27" ry="18"/>
</g>
<!-- col1 -->
<g id="node2" class="node"><title>col1</title>
<ellipse fill="none" stroke="none" cx="131" cy="-18" rx="27" ry="18"/>
</g>
<!-- col0&#45;&gt;col1 -->
<g id="edge1" class="edge"><title>col0&#45;&gt;col1</title>
<path fill="none" stroke="none" d="M61.2106,-18C71.2826,-18 82.9647,-18 93.8114,-18"/>
<polygon fill="none" stroke="none" points="93.8749,-21.5001 103.875,-18 93.8749,-14.5001 93.8749,-21.5001"/>
</g>
<!-- col2 -->
<g id="node3" class="node"><title>col2</title>
<ellipse fill="none" stroke="none" cx="221" cy="-18" rx="27" ry="18"/>
</g>
<!-- col1&#45;&gt;col2 -->
<g id="edge2" class="edge"><title>col1&#45;&gt;col2</title>
<path fill="none" stroke="none" d="M158.403,-18C166.393,-18 175.311,-18 183.824,-18"/>
<polygon fill="none" stroke="none" points="183.919,-21.5001 193.919,-18 183.919,-14.5001 183.919,-21.5001"/>
</g>
<!-- col3 -->
<g id="node4" class="node"><title>col3</title>
<ellipse fill="none" stroke="none" cx="311" cy="-18" rx="27" ry="18"/>
</g>
<!-- col2&#45;&gt;col3 -->
<g id="edge3" class="edge"><title>col2&#45;&gt;col3</title>
<path fill="none" stroke="none" d="M248.403,-18C256.393,-18 265.311,-18 273.824,-18"/>
<polygon fill="none" stroke="none" points="273.919,-21.5001 283.919,-18 273.919,-14.5001 273.919,-21.5001"/>
</g>
<!-- col4 -->
<g id="node5" class="node"><title>col4</title>
<ellipse fill="none" stroke="none" cx="405" cy="-18" rx="27" ry="18"/>
</g>
<!-- col3&#45;&gt;col4 -->
<g id="edge4" class="edge"><title>col3&#45;&gt;col4</title>
<path fill="none" stroke="none" d="M338.117,-18C347.343,-18 357.891,-18 367.802,-18"/>
<polygon fill="none" stroke="none" points="367.817,-21.5001 377.817,-18 367.817,-14.5001 367.817,-21.5001"/>
</g>
<!-- col5 -->
<g id="node6" class="node"><title>col5</title>
<ellipse fill="none" stroke="none" cx="499" cy="-18" rx="27" ry="18"/>
</g>
<!-- col4&#45;&gt;col5 -->
<g id="edge5" class="edge"><title>col4&#45;&gt;col5</title>
<path fill="none" stroke="none" d="M432.117,-18C441.343,-18 451.891,-18 461.802,-18"/>
<polygon fill="none" stroke="none" points="461.817,-21.5001 471.817,-18 461.817,-14.5001 461.817,-21.5001"/>
</g>
<!-- col6 -->
<g id="node7" class="node"><title>col6</title>
<ellipse fill="none" stroke="none" cx="589" cy="-18" rx="27" ry="18"/>
</g>
<!-- col5&#45;&gt;col6 -->
<g id="edge6" class="edge"><title>col5&#45;&gt;col6</title>
<path fill="none" stroke="none" d="M526.403,-18C534.393,-18 543.311,-18 551.824,-18"/>
<polygon fill="none" stroke="none" points="551.919,-21.5001 561.919,-18 551.919,-14.5001 551.919,-21.5001"/>
</g>
<!-- col7 -->
<g id="node8" class="node"><title>col7</title>
<ellipse fill="none" stroke="none" cx="701" cy="-18" rx="27" ry="18"/>
</g>
<!-- col6&#45;&gt;col7 -->
<g id="edge7" class="edge"><title>col6&#45;&gt;col7</title>
<path fill="none" stroke="none" d="M616.068,-18C630.212,-18 647.925,-18 663.428,-18"/>
<polygon fill="none" stroke="none" points="663.737,-21.5001 673.737,-18 663.737,-14.5001 663.737,-21.5001"/>
</g>
<!-- React -->
<g id="node9" class="node"><title>React</title>
<polygon fill="none" stroke="black" points="158,-90 104,-90 104,-54 158,-54 158,-90"/>
<text text-anchor="middle" x="131" y="-67.8" font-family="Times,serif" font-size="14.00">React</text>
</g>
<!-- Angular -->
<g id="node10" class="node"><title>Angular</title>
<polygon fill="none" stroke="black" points="435.876,-90 374.124,-90 374.124,-54 435.876,-54 435.876,-90"/>
<text text-anchor="middle" x="405" y="-67.8" font-family="Times,serif" font-size="14.00">Angular</text>
</g>
<!-- React&#45;&gt;Angular -->
<g id="edge9" class="edge"><title>React&#45;&gt;Angular</title>
<path fill="none" stroke="black" d="M158.081,-72C208.741,-72 320.181,-72 373.891,-72"/>
</g>
<!-- Ember -->
<g id="node11" class="node"><title>Ember</title>
<polygon fill="none" stroke="black" points="616,-90 562,-90 562,-54 616,-54 616,-90"/>
<text text-anchor="middle" x="589" y="-67.8" font-family="Times,serif" font-size="14.00">Ember</text>
</g>
<!-- Angular&#45;&gt;Ember -->
<g id="edge10" class="edge"><title>Angular&#45;&gt;Ember</title>
<path fill="none" stroke="black" d="M436.054,-72C471.088,-72 528.427,-72 561.745,-72"/>
</g>
<!-- framework -->
<g id="node13" class="node"><title>framework</title>
<ellipse fill="none" stroke="black" cx="701" cy="-72" rx="48.8014" ry="18"/>
<text text-anchor="middle" x="701" y="-67.8" font-family="Times,serif" font-size="14.00">framework</text>
</g>
<!-- Ember&#45;&gt;framework -->
<g id="edge11" class="edge"><title>Ember&#45;&gt;framework</title>
<path fill="none" stroke="black" d="M616.068,-72C626.742,-72 639.447,-72 651.702,-72"/>
</g>
<!-- library -->
<g id="node12" class="node"><title>library</title>
<ellipse fill="none" stroke="black" cx="34" cy="-72" rx="33.8596" ry="18"/>
<text text-anchor="middle" x="34" y="-67.8" font-family="Times,serif" font-size="14.00">library</text>
</g>
<!-- library&#45;&gt;React -->
<g id="edge8" class="edge"><title>library&#45;&gt;React</title>
<path fill="none" stroke="black" d="M67.6936,-72C79.5015,-72 92.6657,-72 103.84,-72"/>
</g>
</g>
</svg>
