<?xml version="1.0" encoding="UTF-8" standalone="no"?>
<!DOCTYPE svg PUBLIC "-//W3C//DTD SVG 1.1//EN"
 "http://www.w3.org/Graphics/SVG/1.1/DTD/svg11.dtd">
<!-- Generated by graphviz version 2.36.0 (20140111.2315)
 -->
<!-- Title: %3 Pages: 1 -->
<svg width="272pt" height="130pt"
 viewBox="0.00 0.00 272.00 130.00" xmlns="http://www.w3.org/2000/svg" xmlns:xlink="http://www.w3.org/1999/xlink">
<g id="graph0" class="graph" transform="scale(1 1) rotate(0) translate(4 126)">
<title>%3</title>
<!-- html -->
<g id="node1" class="node"><title>html</title>
<ellipse fill="none" stroke="black" cx="43" cy="-97" rx="42.7925" ry="25.4118"/>
<text text-anchor="middle" x="43" y="-99.8" font-family="Times,serif" font-size="14.00">HTML</text>
<text text-anchor="middle" x="43" y="-85.8" font-family="Times,serif" font-size="14.00">element</text>
</g>
<!-- attribute -->
<g id="node2" class="node"><title>attribute</title>
<polygon fill="none" stroke="black" points="77.0967,-36 8.90325,-36 8.90325,-0 77.0967,-0 77.0967,-36"/>
<text text-anchor="middle" x="43" y="-13.8" font-family="Times,serif" font-size="14.00">attributes</text>
</g>
<!-- html&#45;&gt;attribute -->
<g id="edge1" class="edge"><title>html&#45;&gt;attribute</title>
<path fill="none" stroke="black" d="M43,-71.353C43,-59.6377 43,-47.9223 43,-36.207"/>
</g>
<!-- dom -->
<g id="node3" class="node"><title>dom</title>
<ellipse fill="none" stroke="black" cx="228" cy="-97" rx="34.3285" ry="25.4118"/>
<text text-anchor="middle" x="228" y="-99.8" font-family="Times,serif" font-size="14.00">DOM</text>
<text text-anchor="middle" x="228" y="-85.8" font-family="Times,serif" font-size="14.00">node</text>
</g>
<!-- html&#45;&gt;dom -->
<g id="edge3" class="edge"><title>html&#45;&gt;dom</title>
<path fill="none" stroke="black" d="M85.9839,-97C115.152,-97 153.926,-97 183.433,-97"/>
<polygon fill="black" stroke="black" points="183.452,-100.5 193.452,-97 183.452,-93.5001 183.452,-100.5"/>
<text text-anchor="middle" x="139" y="-99.8" font-family="Times,serif" font-size="14.00">spawns</text>
</g>
<!-- property -->
<g id="node4" class="node"><title>property</title>
<polygon fill="none" stroke="black" points="263.979,-36 192.021,-36 192.021,-0 263.979,-0 263.979,-36"/>
<text text-anchor="middle" x="228" y="-13.8" font-family="Times,serif" font-size="14.00">properties</text>
</g>
<!-- attribute&#45;&gt;property -->
<g id="edge4" class="edge"><title>attribute&#45;&gt;property</title>
<path fill="none" stroke="black" d="M77.1399,-18C106.416,-18 149.373,-18 181.798,-18"/>
<polygon fill="black" stroke="black" points="181.925,-21.5001 191.925,-18 181.925,-14.5001 181.925,-21.5001"/>
<text text-anchor="middle" x="139" y="-34.8" font-family="Times,serif" font-size="14.00">initializes</text>
<text text-anchor="middle" x="139" y="-20.8" font-family="Times,serif" font-size="14.00">(sometimes)</text>
</g>
<!-- dom&#45;&gt;property -->
<g id="edge2" class="edge"><title>dom&#45;&gt;property</title>
<path fill="none" stroke="black" d="M228,-71.353C228,-59.6377 228,-47.9223 228,-36.207"/>
</g>
</g>
</svg>
