<?xml version="1.0" encoding="UTF-8" standalone="no"?>
<!DOCTYPE svg PUBLIC "-//W3C//DTD SVG 1.1//EN"
 "http://www.w3.org/Graphics/SVG/1.1/DTD/svg11.dtd">
<!-- Generated by graphviz version 2.36.0 (20140111.2315)
 -->
<!-- Title: %3 Pages: 1 -->
<svg width="900pt" height="227pt"
 viewBox="0.00 0.00 900.00 227.00" xmlns="http://www.w3.org/2000/svg" xmlns:xlink="http://www.w3.org/1999/xlink">
<g id="graph0" class="graph" transform="scale(1 1) rotate(0) translate(4 223)">
<title>%3</title>
<!-- EC3 -->
<g id="node1" class="node"><title>EC3</title>
<ellipse fill="none" stroke="black" cx="64" cy="-136" rx="63.3276" ry="18"/>
<text text-anchor="middle" x="64" y="-131.8" font-family="Times,serif" font-size="14.00">ECMAScript 3</text>
</g>
<!-- EC4 -->
<g id="node2" class="node"><title>EC4</title>
<ellipse fill="none" stroke="black" stroke-dasharray="5,2" cx="248" cy="-194" rx="83.695" ry="25.4118"/>
<text text-anchor="middle" x="248" y="-196.8" font-family="Times,serif" font-size="14.00">ECMAScript 4</text>
<text text-anchor="middle" x="248" y="-182.8" font-family="Times,serif" font-size="14.00">(never completed)</text>
</g>
<!-- EC3&#45;&gt;EC4 -->
<g id="edge1" class="edge"><title>EC3&#45;&gt;EC4</title>
<path fill="none" stroke="black" d="M106.754,-149.306C128.527,-156.245 155.681,-164.898 180.281,-172.738"/>
<polygon fill="black" stroke="black" points="179.333,-176.109 189.924,-175.811 181.459,-169.44 179.333,-176.109"/>
</g>
<!-- EC5 -->
<g id="node3" class="node"><title>EC5</title>
<ellipse fill="none" stroke="black" cx="248" cy="-79" rx="63.3276" ry="18"/>
<text text-anchor="middle" x="248" y="-74.8" font-family="Times,serif" font-size="14.00">ECMAScript 5</text>
</g>
<!-- EC3&#45;&gt;EC5 -->
<g id="edge2" class="edge"><title>EC3&#45;&gt;EC5</title>
<path fill="none" stroke="black" d="M107.212,-122.78C133.419,-114.572 167.292,-103.964 195.13,-95.2451"/>
<polygon fill="black" stroke="black" points="196.205,-98.5759 204.702,-92.2471 194.113,-91.8959 196.205,-98.5759"/>
</g>
<!-- EC3desc -->
<g id="node7" class="node"><title>EC3desc</title>
<polygon fill="none" stroke="black" points="117.637,-100 10.3632,-100 10.3632,-64 117.637,-64 117.637,-100"/>
<text text-anchor="middle" x="64" y="-77.8" font-family="Times,serif" font-size="14.00">&quot;old&quot; JavaScript</text>
</g>
<!-- EC3&#45;&gt;EC3desc -->
<g id="edge6" class="edge"><title>EC3&#45;&gt;EC3desc</title>
<path fill="none" stroke="black" d="M64,-117.79C64,-111.907 64,-106.024 64,-100.141"/>
</g>
<!-- EC4desc -->
<g id="node8" class="node"><title>EC4desc</title>
<polygon fill="none" stroke="black" points="306.297,-151 189.703,-151 189.703,-115 306.297,-115 306.297,-151"/>
<text text-anchor="middle" x="248" y="-135.8" font-family="Times,serif" font-size="14.00">too many features</text>
<text text-anchor="middle" x="248" y="-121.8" font-family="Times,serif" font-size="14.00">to count</text>
</g>
<!-- EC4&#45;&gt;EC4desc -->
<g id="edge7" class="edge"><title>EC4&#45;&gt;EC4desc</title>
<path fill="none" stroke="black" d="M248,-168.534C248,-162.726 248,-156.917 248,-151.109"/>
</g>
<!-- EC6 -->
<g id="node4" class="node"><title>EC6</title>
<ellipse fill="none" stroke="black" cx="481" cy="-79" rx="112.539" ry="25.4118"/>
<text text-anchor="middle" x="481" y="-81.8" font-family="Times,serif" font-size="14.00">ECMAScript 2015</text>
<text text-anchor="middle" x="481" y="-67.8" font-family="Times,serif" font-size="14.00">(ES6, ES.next, Harmony)</text>
</g>
<!-- EC5&#45;&gt;EC6 -->
<g id="edge3" class="edge"><title>EC5&#45;&gt;EC6</title>
<path fill="none" stroke="black" d="M311.512,-79C326.007,-79 341.924,-79 358.009,-79"/>
<polygon fill="black" stroke="black" points="358.035,-82.5001 368.035,-79 358.035,-75.5001 358.035,-82.5001"/>
</g>
<!-- EC5desc -->
<g id="node9" class="node"><title>EC5desc</title>
<polygon fill="none" stroke="black" points="304.986,-43 191.014,-43 191.014,-7 304.986,-7 304.986,-43"/>
<text text-anchor="middle" x="248" y="-27.8" font-family="Times,serif" font-size="14.00">strict mode,</text>
<text text-anchor="middle" x="248" y="-13.8" font-family="Times,serif" font-size="14.00">static methods, ...</text>
</g>
<!-- EC5&#45;&gt;EC5desc -->
<g id="edge8" class="edge"><title>EC5&#45;&gt;EC5desc</title>
<path fill="none" stroke="black" d="M248,-60.7902C248,-54.907 248,-49.0238 248,-43.1406"/>
</g>
<!-- EC7 -->
<g id="node5" class="node"><title>EC7</title>
<ellipse fill="none" stroke="black" cx="716" cy="-79" rx="85.6712" ry="25.4118"/>
<text text-anchor="middle" x="716" y="-81.8" font-family="Times,serif" font-size="14.00">ECMAScript 2016</text>
<text text-anchor="middle" x="716" y="-67.8" font-family="Times,serif" font-size="14.00">(ES7)</text>
</g>
<!-- EC6&#45;&gt;EC7 -->
<g id="edge4" class="edge"><title>EC6&#45;&gt;EC7</title>
<path fill="none" stroke="black" d="M594.064,-79C602.684,-79 611.336,-79 619.832,-79"/>
<polygon fill="black" stroke="black" points="620.104,-82.5001 630.104,-79 620.104,-75.5001 620.104,-82.5001"/>
</g>
<!-- EC6desc -->
<g id="node10" class="node"><title>EC6desc</title>
<polygon fill="none" stroke="black" points="541.752,-36 420.248,-36 420.248,-0 541.752,-0 541.752,-36"/>
<text text-anchor="middle" x="481" y="-20.8" font-family="Times,serif" font-size="14.00">modules, classes,</text>
<text text-anchor="middle" x="481" y="-6.8" font-family="Times,serif" font-size="14.00">arrow functions, ...</text>
</g>
<!-- EC6&#45;&gt;EC6desc -->
<g id="edge9" class="edge"><title>EC6&#45;&gt;EC6desc</title>
<path fill="none" stroke="black" d="M481,-53.5337C481,-47.7256 481,-41.9175 481,-36.1094"/>
</g>
<!-- EC8 -->
<g id="node6" class="node"><title>EC8</title>
<ellipse fill="none" stroke="none" stroke-dasharray="5,2" cx="865" cy="-79" rx="27" ry="18"/>
<text text-anchor="middle" x="865" y="-74.8" font-family="Times,serif" font-size="14.00" fill="#fffffe">.</text>
</g>
<!-- EC7&#45;&gt;EC8 -->
<g id="edge5" class="edge"><title>EC7&#45;&gt;EC8</title>
<path fill="none" stroke="black" stroke-dasharray="5,2" d="M802.085,-79C810.99,-79 819.662,-79 827.561,-79"/>
<polygon fill="black" stroke="black" points="827.801,-82.5001 837.801,-79 827.801,-75.5001 827.801,-82.5001"/>
</g>
<!-- EC7desc -->
<g id="node11" class="node"><title>EC7desc</title>
<polygon fill="none" stroke="black" points="774.563,-36 657.437,-36 657.437,-0 774.563,-0 774.563,-36"/>
<text text-anchor="middle" x="716" y="-13.8" font-family="Times,serif" font-size="14.00">very small release</text>
</g>
<!-- EC7&#45;&gt;EC7desc -->
<g id="edge10" class="edge"><title>EC7&#45;&gt;EC7desc</title>
<path fill="none" stroke="black" d="M716,-53.5337C716,-47.7256 716,-41.9175 716,-36.1094"/>
</g>
</g>
</svg>
