<?xml version="1.0" encoding="UTF-8" standalone="no"?>
<!DOCTYPE svg PUBLIC "-//W3C//DTD SVG 1.1//EN"
 "http://www.w3.org/Graphics/SVG/1.1/DTD/svg11.dtd">
<!-- Generated by graphviz version 2.36.0 (20140111.2315)
 -->
<!-- Title: %3 Pages: 1 -->
<svg width="1032pt" height="256pt"
 viewBox="0.00 0.00 1032.00 256.00" xmlns="http://www.w3.org/2000/svg" xmlns:xlink="http://www.w3.org/1999/xlink">
<g id="graph0" class="graph" transform="scale(1 1) rotate(0) translate(4 252)">
<title>%3</title>
<!-- start -->
<g id="node1" class="node"><title>start</title>
<ellipse fill="none" stroke="black" cx="51" cy="-212" rx="51.2492" ry="18"/>
<text text-anchor="middle" x="51" y="-207.8" font-family="Times,serif" font-size="14.00">import path</text>
</g>
<!-- iscore -->
<g id="node2" class="node"><title>iscore</title>
<polygon fill="none" stroke="black" points="193,-230 140.334,-212 193,-194 245.666,-212 193,-230"/>
<text text-anchor="middle" x="193" y="-207.8" font-family="Times,serif" font-size="14.00">is core?</text>
</g>
<!-- start&#45;&gt;iscore -->
<g id="edge1" class="edge"><title>start&#45;&gt;iscore</title>
<path fill="none" stroke="black" d="M102.148,-212C111.252,-212 120.844,-212 130.235,-212"/>
<polygon fill="black" stroke="black" points="130.315,-215.5 140.315,-212 130.315,-208.5 130.315,-215.5"/>
</g>
<!-- ispath -->
<g id="node3" class="node"><title>ispath</title>
<polygon fill="none" stroke="black" points="410,-248 296.361,-212 410,-176 523.639,-212 410,-248"/>
<text text-anchor="middle" x="410" y="-214.8" font-family="Times,serif" font-size="14.00">path begins</text>
<text text-anchor="middle" x="410" y="-200.8" font-family="Times,serif" font-size="14.00">with &#39;./&#39;, &#39;/&#39; or &#39;../&#39;?</text>
</g>
<!-- iscore&#45;&gt;ispath -->
<g id="edge2" class="edge"><title>iscore&#45;&gt;ispath</title>
<path fill="none" stroke="black" d="M245.771,-212C258.17,-212 271.935,-212 286.064,-212"/>
<polygon fill="black" stroke="black" points="286.401,-215.5 296.401,-212 286.401,-208.5 286.401,-215.5"/>
<text text-anchor="middle" x="271" y="-214.8" font-family="Times,serif" font-size="14.00">no</text>
</g>
<!-- loadcore -->
<g id="node9" class="node"><title>loadcore</title>
<ellipse fill="none" stroke="black" cx="193" cy="-133" rx="47.7332" ry="25.4118"/>
<text text-anchor="middle" x="193" y="-135.8" font-family="Times,serif" font-size="14.00">load core</text>
<text text-anchor="middle" x="193" y="-121.8" font-family="Times,serif" font-size="14.00">module</text>
</g>
<!-- iscore&#45;&gt;loadcore -->
<g id="edge3" class="edge"><title>iscore&#45;&gt;loadcore</title>
<path fill="none" stroke="black" d="M193,-193.876C193,-186.325 193,-177.283 193,-168.506"/>
<polygon fill="black" stroke="black" points="196.5,-168.431 193,-158.431 189.5,-168.431 196.5,-168.431"/>
<text text-anchor="middle" x="183" y="-171.8" font-family="Times,serif" font-size="14.00">yes</text>
</g>
<!-- isfile -->
<g id="node4" class="node"><title>isfile</title>
<polygon fill="none" stroke="black" points="410,-140 362.911,-122 410,-104 457.089,-122 410,-140"/>
<text text-anchor="middle" x="410" y="-117.8" font-family="Times,serif" font-size="14.00">is file?</text>
</g>
<!-- ispath&#45;&gt;isfile -->
<g id="edge5" class="edge"><title>ispath&#45;&gt;isfile</title>
<path fill="none" stroke="black" d="M410,-175.961C410,-167.426 410,-158.444 410,-150.309"/>
<polygon fill="black" stroke="black" points="413.5,-150.213 410,-140.213 406.5,-150.213 413.5,-150.213"/>
<text text-anchor="middle" x="400" y="-153.8" font-family="Times,serif" font-size="14.00">yes</text>
</g>
<!-- module -->
<g id="node7" class="node"><title>module</title>
<polygon fill="none" stroke="black" points="731.649,-230 606.351,-230 606.351,-194 731.649,-194 731.649,-230"/>
<text text-anchor="middle" x="669" y="-214.8" font-family="Times,serif" font-size="14.00">set path to</text>
<text text-anchor="middle" x="669" y="-200.8" font-family="Times,serif" font-size="14.00">node_modules/path</text>
</g>
<!-- ispath&#45;&gt;module -->
<g id="edge4" class="edge"><title>ispath:e&#45;&gt;module:w</title>
<path fill="none" stroke="black" d="M524,-212C556.344,-212 566.893,-212 594.81,-212"/>
<polygon fill="black" stroke="black" points="595,-215.5 605,-212 595,-208.5 595,-215.5"/>
<text text-anchor="middle" x="549" y="-214.8" font-family="Times,serif" font-size="14.00">no</text>
</g>
<!-- ispack -->
<g id="node5" class="node"><title>ispack</title>
<polygon fill="none" stroke="black" points="669,-158 574.185,-122 669,-86 763.815,-122 669,-158"/>
<text text-anchor="middle" x="669" y="-124.8" font-family="Times,serif" font-size="14.00">dir has</text>
<text text-anchor="middle" x="669" y="-110.8" font-family="Times,serif" font-size="14.00">package.json?</text>
</g>
<!-- isfile&#45;&gt;ispack -->
<g id="edge7" class="edge"><title>isfile&#45;&gt;ispack</title>
<path fill="none" stroke="black" d="M457.243,-122C486.899,-122 526.638,-122 563.614,-122"/>
<polygon fill="black" stroke="black" points="563.959,-125.5 573.959,-122 563.959,-118.5 563.959,-125.5"/>
<text text-anchor="middle" x="549" y="-124.8" font-family="Times,serif" font-size="14.00">no</text>
</g>
<!-- loadfile -->
<g id="node8" class="node"><title>loadfile</title>
<ellipse fill="none" stroke="black" cx="410" cy="-43" rx="43.4645" ry="25.4118"/>
<text text-anchor="middle" x="410" y="-45.8" font-family="Times,serif" font-size="14.00">load file</text>
<text text-anchor="middle" x="410" y="-31.8" font-family="Times,serif" font-size="14.00">at path</text>
</g>
<!-- isfile&#45;&gt;loadfile -->
<g id="edge8" class="edge"><title>isfile&#45;&gt;loadfile</title>
<path fill="none" stroke="black" d="M410,-103.876C410,-96.325 410,-87.2829 410,-78.5064"/>
<polygon fill="black" stroke="black" points="413.5,-78.4309 410,-68.4309 406.5,-78.431 413.5,-78.4309"/>
<text text-anchor="middle" x="400" y="-81.8" font-family="Times,serif" font-size="14.00">yes</text>
</g>
<!-- ismain -->
<g id="node6" class="node"><title>ismain</title>
<polygon fill="none" stroke="black" points="922,-158 820.158,-122 922,-86 1023.84,-122 922,-158"/>
<text text-anchor="middle" x="922" y="-124.8" font-family="Times,serif" font-size="14.00">package.json</text>
<text text-anchor="middle" x="922" y="-110.8" font-family="Times,serif" font-size="14.00">specifies main?</text>
</g>
<!-- ispack&#45;&gt;ismain -->
<g id="edge9" class="edge"><title>ispack:e&#45;&gt;ismain:w</title>
<path fill="none" stroke="black" d="M764,-122C785,-122 792.711,-122 809.558,-122"/>
<polygon fill="black" stroke="black" points="810,-125.5 820,-122 810,-118.5 810,-125.5"/>
<text text-anchor="middle" x="792" y="-124.8" font-family="Times,serif" font-size="14.00">yes</text>
</g>
<!-- loadindex -->
<g id="node11" class="node"><title>loadindex</title>
<ellipse fill="none" stroke="black" cx="669" cy="-25" rx="61.8074" ry="25.4118"/>
<text text-anchor="middle" x="669" y="-27.8" font-family="Times,serif" font-size="14.00">load index.js</text>
<text text-anchor="middle" x="669" y="-13.8" font-family="Times,serif" font-size="14.00">at path</text>
</g>
<!-- ispack&#45;&gt;loadindex -->
<g id="edge10" class="edge"><title>ispack&#45;&gt;loadindex</title>
<path fill="none" stroke="black" d="M669,-85.9379C669,-77.5887 669,-68.7122 669,-60.392"/>
<polygon fill="black" stroke="black" points="672.5,-60.2324 669,-50.2324 665.5,-60.2324 672.5,-60.2324"/>
<text text-anchor="middle" x="659" y="-63.8" font-family="Times,serif" font-size="14.00">no</text>
</g>
<!-- loadmain -->
<g id="node10" class="node"><title>loadmain</title>
<ellipse fill="none" stroke="black" cx="922" cy="-25" rx="85.5812" ry="25.4118"/>
<text text-anchor="middle" x="922" y="-27.8" font-family="Times,serif" font-size="14.00">load file</text>
<text text-anchor="middle" x="922" y="-13.8" font-family="Times,serif" font-size="14.00">specified in `main`</text>
</g>
<!-- ismain&#45;&gt;loadmain -->
<g id="edge11" class="edge"><title>ismain&#45;&gt;loadmain</title>
<path fill="none" stroke="black" d="M922,-85.9379C922,-77.5887 922,-68.7122 922,-60.392"/>
<polygon fill="black" stroke="black" points="925.5,-60.2324 922,-50.2324 918.5,-60.2324 925.5,-60.2324"/>
<text text-anchor="middle" x="912" y="-63.8" font-family="Times,serif" font-size="14.00">yes</text>
</g>
<!-- ismain&#45;&gt;loadindex -->
<g id="edge12" class="edge"><title>ismain&#45;&gt;loadindex</title>
<path fill="none" stroke="black" d="M872.548,-103.276C829.987,-86.8275 768.14,-62.9265 724,-45.8686"/>
<polygon fill="black" stroke="black" points="725.174,-42.57 714.585,-42.2299 722.651,-49.0994 725.174,-42.57"/>
<text text-anchor="middle" x="792" y="-76.8" font-family="Times,serif" font-size="14.00">no</text>
</g>
<!-- module&#45;&gt;isfile -->
<g id="edge6" class="edge"><title>module&#45;&gt;isfile</title>
<path fill="none" stroke="black" d="M616.289,-193.891C565.193,-175.997 488.514,-149.145 444.772,-133.827"/>
<polygon fill="black" stroke="black" points="445.773,-130.469 435.178,-130.467 443.459,-137.075 445.773,-130.469"/>
</g>
<!-- module&#45;&gt;ispack -->
<g id="edge14" class="edge"><title>module&#45;&gt;ispack</title>
<path fill="none" stroke="none" d="M669,-193.93C669,-185.372 669,-176.815 669,-168.257"/>
<polygon fill="none" stroke="none" points="672.5,-168.211 669,-158.211 665.5,-168.211 672.5,-168.211"/>
</g>
<!-- bogus -->
<g id="node12" class="node"><title>bogus</title>
<ellipse fill="none" stroke="none" cx="922" cy="-212" rx="27" ry="18"/>
<text text-anchor="middle" x="922" y="-207.8" font-family="Times,serif" font-size="14.00" fill="#fffffe"> </text>
</g>
<!-- module&#45;&gt;bogus -->
<g id="edge15" class="edge"><title>module&#45;&gt;bogus</title>
<path fill="none" stroke="none" d="M731.723,-212C779.825,-212 844.952,-212 884.914,-212"/>
<polygon fill="none" stroke="none" points="884.995,-215.5 894.995,-212 884.995,-208.5 884.995,-215.5"/>
</g>
<!-- loadindex&#45;&gt;loadmain -->
<g id="edge13" class="edge"><title>loadindex&#45;&gt;loadmain</title>
<path fill="none" stroke="none" d="M731.081,-25C759.625,-25 794.27,-25 826.115,-25"/>
<polygon fill="none" stroke="none" points="826.344,-28.5001 836.344,-25 826.344,-21.5001 826.344,-28.5001"/>
</g>
<!-- bogus&#45;&gt;ismain -->
<g id="edge16" class="edge"><title>bogus&#45;&gt;ismain</title>
<path fill="none" stroke="none" d="M922,-193.93C922,-185.372 922,-176.815 922,-168.257"/>
<polygon fill="none" stroke="none" points="925.5,-168.211 922,-158.211 918.5,-168.211 925.5,-168.211"/>
</g>
</g>
</svg>
