<?xml version="1.0" encoding="UTF-8" standalone="no"?>
<!DOCTYPE svg PUBLIC "-//W3C//DTD SVG 1.1//EN"
 "http://www.w3.org/Graphics/SVG/1.1/DTD/svg11.dtd">
<!-- Generated by graphviz version 2.36.0 (20140111.2315)
 -->
<!-- Title: %3 Pages: 1 -->
<svg width="490pt" height="206pt"
 viewBox="0.00 0.00 490.00 206.00" xmlns="http://www.w3.org/2000/svg" xmlns:xlink="http://www.w3.org/1999/xlink">
<g id="graph0" class="graph" transform="scale(1 1) rotate(0) translate(4 202)">
<title>%3</title>
<!-- David -->
<g id="node1" class="node"><title>David</title>
<ellipse fill="none" stroke="black" cx="180" cy="-126" rx="37.4092" ry="25.4118"/>
<text text-anchor="middle" x="180" y="-128.8" font-family="Times,serif" font-size="14.00">David</text>
<text text-anchor="middle" x="180" y="-114.8" font-family="Times,serif" font-size="14.00">Waller</text>
</g>
<!-- teacher -->
<g id="node5" class="node"><title>teacher</title>
<ellipse fill="none" stroke="black" cx="308" cy="-180" rx="35.7627" ry="18"/>
<text text-anchor="middle" x="308" y="-175.8" font-family="Times,serif" font-size="14.00">teacher</text>
</g>
<!-- David&#45;&gt;teacher -->
<g id="edge4" class="edge"><title>David&#45;&gt;teacher</title>
<path fill="none" stroke="black" d="M212.146,-139.348C229.895,-146.955 252.221,-156.523 270.753,-164.466"/>
<polygon fill="black" stroke="black" points="269.484,-167.73 280.054,-168.452 272.242,-161.296 269.484,-167.73"/>
</g>
<!-- programmer -->
<g id="node6" class="node"><title>programmer</title>
<ellipse fill="none" stroke="black" cx="308" cy="-72" rx="53.6299" ry="18"/>
<text text-anchor="middle" x="308" y="-67.8" font-family="Times,serif" font-size="14.00">programmer</text>
</g>
<!-- David&#45;&gt;programmer -->
<g id="edge5" class="edge"><title>David&#45;&gt;programmer</title>
<path fill="none" stroke="black" d="M212.146,-112.652C228.01,-105.853 247.531,-97.4867 264.732,-90.115"/>
<polygon fill="black" stroke="black" points="266.198,-93.2945 274.011,-86.1383 263.441,-86.8605 266.198,-93.2945"/>
</g>
<!-- singing -->
<g id="node2" class="node"><title>singing</title>
<ellipse fill="none" stroke="black" cx="53" cy="-180" rx="36.2992" ry="18"/>
<text text-anchor="middle" x="53" y="-175.8" font-family="Times,serif" font-size="14.00">singing</text>
</g>
<!-- singing&#45;&gt;David -->
<g id="edge1" class="edge"><title>singing&#45;&gt;David</title>
<path fill="none" stroke="black" d="M80.8156,-168.416C97.6306,-161.152 119.628,-151.649 138.538,-143.48"/>
<polygon fill="black" stroke="black" points="140.027,-146.649 147.819,-139.47 137.251,-140.223 140.027,-146.649"/>
</g>
<!-- boardgames -->
<g id="node3" class="node"><title>boardgames</title>
<ellipse fill="none" stroke="black" cx="53" cy="-126" rx="52.6693" ry="18"/>
<text text-anchor="middle" x="53" y="-121.8" font-family="Times,serif" font-size="14.00">boardgames</text>
</g>
<!-- boardgames&#45;&gt;David -->
<g id="edge2" class="edge"><title>boardgames&#45;&gt;David</title>
<path fill="none" stroke="black" d="M105.925,-126C114.604,-126 123.564,-126 132.108,-126"/>
<polygon fill="black" stroke="black" points="132.276,-129.5 142.276,-126 132.276,-122.5 132.276,-129.5"/>
</g>
<!-- metal -->
<g id="node4" class="node"><title>metal</title>
<ellipse fill="none" stroke="black" cx="53" cy="-72" rx="30.0018" ry="18"/>
<text text-anchor="middle" x="53" y="-67.8" font-family="Times,serif" font-size="14.00">metal</text>
</g>
<!-- metal&#45;&gt;David -->
<g id="edge3" class="edge"><title>metal&#45;&gt;David</title>
<path fill="none" stroke="black" d="M77.8058,-82.2841C95.0503,-89.7337 118.774,-99.9824 138.917,-108.684"/>
<polygon fill="black" stroke="black" points="137.61,-111.932 148.178,-112.685 140.386,-105.506 137.61,-111.932"/>
</g>
<!-- Edument -->
<g id="node7" class="node"><title>Edument</title>
<ellipse fill="none" stroke="black" cx="440" cy="-126" rx="42.0697" ry="18"/>
<text text-anchor="middle" x="440" y="-121.8" font-family="Times,serif" font-size="14.00">Edument</text>
</g>
<!-- teacher&#45;&gt;Edument -->
<g id="edge6" class="edge"><title>teacher&#45;&gt;Edument</title>
<path fill="none" stroke="black" d="M335.936,-168.811C354.298,-161.184 378.917,-150.957 399.489,-142.412"/>
<polygon fill="black" stroke="black" points="401.025,-145.564 408.918,-138.496 398.34,-139.1 401.025,-145.564"/>
</g>
<!-- subs -->
<g id="node9" class="node"><title>subs</title>
<polygon fill="none" stroke="black" points="361.89,-144 254.11,-144 254.11,-108 361.89,-108 361.89,-144"/>
<text text-anchor="middle" x="308" y="-128.8" font-family="Times,serif" font-size="14.00">maths, Swedish,</text>
<text text-anchor="middle" x="308" y="-114.8" font-family="Times,serif" font-size="14.00">programming</text>
</g>
<!-- teacher&#45;&gt;subs -->
<g id="edge9" class="edge"><title>teacher&#45;&gt;subs</title>
<path fill="none" stroke="black" d="M308,-161.79C308,-155.907 308,-150.024 308,-144.141"/>
</g>
<!-- programmer&#45;&gt;Edument -->
<g id="edge7" class="edge"><title>programmer&#45;&gt;Edument</title>
<path fill="none" stroke="black" d="M342.478,-85.9063C360.032,-93.1978 381.632,-102.17 399.945,-109.777"/>
<polygon fill="black" stroke="black" points="398.605,-113.011 409.183,-113.614 401.291,-106.546 398.605,-113.011"/>
</g>
<!-- JS -->
<g id="node8" class="node"><title>JS</title>
<polygon fill="none" stroke="black" points="335,-36 281,-36 281,-0 335,-0 335,-36"/>
<text text-anchor="middle" x="308" y="-13.8" font-family="Times,serif" font-size="14.00">JS</text>
</g>
<!-- programmer&#45;&gt;JS -->
<g id="edge8" class="edge"><title>programmer&#45;&gt;JS</title>
<path fill="none" stroke="black" d="M308,-53.7902C308,-47.907 308,-42.0238 308,-36.1406"/>
</g>
</g>
</svg>
