<?xml version="1.0" encoding="UTF-8" standalone="no"?>
<!DOCTYPE svg PUBLIC "-//W3C//DTD SVG 1.1//EN"
 "http://www.w3.org/Graphics/SVG/1.1/DTD/svg11.dtd">
<!-- Generated by graphviz version 2.36.0 (20140111.2315)
 -->
<!-- Title: %3 Pages: 1 -->
<svg width="450pt" height="118pt"
 viewBox="0.00 0.00 450.00 118.00" xmlns="http://www.w3.org/2000/svg" xmlns:xlink="http://www.w3.org/1999/xlink">
<g id="graph0" class="graph" transform="scale(1 1) rotate(0) translate(4 114)">
<title>%3</title>
<!-- Module1 -->
<g id="node1" class="node"><title>Module1</title>
<polygon fill="none" stroke="black" points="132.916,-110 67.0838,-110 67.0838,-74 132.916,-74 132.916,-110"/>
<text text-anchor="middle" x="100" y="-87.8" font-family="Times,serif" font-size="14.00">Module1</text>
</g>
<!-- CompA -->
<g id="node4" class="node"><title>CompA</title>
<ellipse fill="none" stroke="black" cx="38" cy="-18" rx="38.1712" ry="18"/>
<text text-anchor="middle" x="38" y="-13.8" font-family="Times,serif" font-size="14.00">CompA</text>
</g>
<!-- Module1&#45;&gt;CompA -->
<g id="edge1" class="edge"><title>Module1&#45;&gt;CompA</title>
<path fill="none" stroke="black" d="M85.3069,-73.937C77.2823,-64.6181 67.2197,-52.9326 58.4404,-42.7373"/>
<polygon fill="black" stroke="black" points="60.9156,-40.2479 51.7382,-34.954 55.6112,-44.8156 60.9156,-40.2479"/>
</g>
<!-- CompB -->
<g id="node5" class="node"><title>CompB</title>
<ellipse fill="none" stroke="black" cx="132" cy="-18" rx="37.4385" ry="18"/>
<text text-anchor="middle" x="132" y="-13.8" font-family="Times,serif" font-size="14.00">CompB</text>
</g>
<!-- Module1&#45;&gt;CompB -->
<g id="edge2" class="edge"><title>Module1&#45;&gt;CompB</title>
<path fill="none" stroke="red" stroke-dasharray="5,2" d="M107.584,-73.937C111.409,-65.329 116.133,-54.7016 120.402,-45.0947"/>
<polygon fill="red" stroke="red" points="123.608,-46.5001 124.471,-35.9405 117.211,-43.6571 123.608,-46.5001"/>
</g>
<!-- Module2 -->
<g id="node2" class="node"><title>Module2</title>
<polygon fill="none" stroke="black" points="437.916,-110 372.084,-110 372.084,-74 437.916,-74 437.916,-110"/>
<text text-anchor="middle" x="405" y="-87.8" font-family="Times,serif" font-size="14.00">Module2</text>
</g>
<!-- CompC -->
<g id="node6" class="node"><title>CompC</title>
<ellipse fill="none" stroke="black" cx="405" cy="-18" rx="37.4385" ry="18"/>
<text text-anchor="middle" x="405" y="-13.8" font-family="Times,serif" font-size="14.00">CompC</text>
</g>
<!-- Module2&#45;&gt;CompC -->
<g id="edge3" class="edge"><title>Module2&#45;&gt;CompC</title>
<path fill="none" stroke="black" d="M405,-73.937C405,-65.8072 405,-55.8761 405,-46.7047"/>
<polygon fill="black" stroke="black" points="408.5,-46.4406 405,-36.4407 401.5,-46.4407 408.5,-46.4406"/>
</g>
<!-- RootModule -->
<g id="node3" class="node"><title>RootModule</title>
<polygon fill="none" stroke="black" points="311.085,-110 224.915,-110 224.915,-74 311.085,-74 311.085,-110"/>
<text text-anchor="middle" x="268" y="-87.8" font-family="Times,serif" font-size="14.00">RootModule</text>
</g>
<!-- RootModule&#45;&gt;Module1 -->
<g id="edge5" class="edge"><title>RootModule&#45;&gt;Module1</title>
<path fill="none" stroke="black" d="M224.678,-92C199.724,-92 168.455,-92 143.475,-92"/>
<polygon fill="black" stroke="black" points="143.191,-88.5001 133.191,-92 143.191,-95.5001 143.191,-88.5001"/>
<text text-anchor="middle" x="178.805" y="-97.8" font-family="Times,serif" font-size="14.00">imports</text>
</g>
<!-- RootModule&#45;&gt;Module2 -->
<g id="edge6" class="edge"><title>RootModule&#45;&gt;Module2</title>
<path fill="none" stroke="black" d="M311.348,-92C327.424,-92 345.647,-92 361.718,-92"/>
<polygon fill="black" stroke="black" points="361.924,-95.5001 371.923,-92 361.923,-88.5001 361.924,-95.5001"/>
<text text-anchor="middle" x="341.362" y="-97.8" font-family="Times,serif" font-size="14.00">imports</text>
</g>
<!-- RootComp -->
<g id="node7" class="node"><title>RootComp</title>
<ellipse fill="none" stroke="black" cx="268" cy="-18" rx="48.3906" ry="18"/>
<text text-anchor="middle" x="268" y="-13.8" font-family="Times,serif" font-size="14.00">RootComp</text>
</g>
<!-- RootModule&#45;&gt;RootComp -->
<g id="edge4" class="edge"><title>RootModule&#45;&gt;RootComp</title>
<path fill="none" stroke="black" d="M268,-73.937C268,-65.8072 268,-55.8761 268,-46.7047"/>
<polygon fill="black" stroke="black" points="271.5,-46.4406 268,-36.4407 264.5,-46.4407 271.5,-46.4406"/>
</g>
</g>
</svg>
