<?xml version="1.0" encoding="UTF-8" standalone="no"?>
<!DOCTYPE svg PUBLIC "-//W3C//DTD SVG 1.1//EN"
 "http://www.w3.org/Graphics/SVG/1.1/DTD/svg11.dtd">
<!-- Generated by graphviz version 2.36.0 (20140111.2315)
 -->
<!-- Title: %3 Pages: 1 -->
<svg width="476pt" height="118pt"
 viewBox="0.00 0.00 476.00 118.00" xmlns="http://www.w3.org/2000/svg" xmlns:xlink="http://www.w3.org/1999/xlink">
<g id="graph0" class="graph" transform="scale(1 1) rotate(0) translate(4 114)">
<title>%3</title>
<!-- Module1 -->
<g id="node1" class="node"><title>Module1</title>
<polygon fill="none" stroke="black" points="150.916,-110 85.0838,-110 85.0838,-74 150.916,-74 150.916,-110"/>
<text text-anchor="middle" x="118" y="-87.8" font-family="Times,serif" font-size="14.00">Module1</text>
</g>
<!-- CompA -->
<g id="node4" class="node"><title>CompA</title>
<ellipse fill="none" stroke="black" cx="38" cy="-18" rx="38.1712" ry="18"/>
<text text-anchor="middle" x="38" y="-13.8" font-family="Times,serif" font-size="14.00">CompA</text>
</g>
<!-- Module1&#45;&gt;CompA -->
<g id="edge1" class="edge"><title>Module1&#45;&gt;CompA</title>
<path fill="none" stroke="black" d="M99.0411,-73.937C88.154,-64.1386 74.3597,-51.7237 62.6397,-41.1758"/>
<polygon fill="black" stroke="black" points="64.6929,-38.3149 54.9186,-34.2267 60.0101,-43.5179 64.6929,-38.3149"/>
</g>
<!-- CompB -->
<g id="node5" class="node"><title>CompB</title>
<ellipse fill="none" stroke="black" cx="149" cy="-18" rx="37.4385" ry="18"/>
<text text-anchor="middle" x="149" y="-13.8" font-family="Times,serif" font-size="14.00">CompB</text>
</g>
<!-- Module1&#45;&gt;CompB -->
<g id="edge2" class="edge"><title>Module1&#45;&gt;CompB</title>
<path fill="none" stroke="black" d="M125.347,-73.937C129.014,-65.4186 133.533,-54.9227 137.635,-45.3952"/>
<polygon fill="black" stroke="black" points="140.966,-46.5095 141.706,-35.9405 134.537,-43.7412 140.966,-46.5095"/>
</g>
<!-- Module2 -->
<g id="node2" class="node"><title>Module2</title>
<polygon fill="none" stroke="black" points="463.916,-110 398.084,-110 398.084,-74 463.916,-74 463.916,-110"/>
<text text-anchor="middle" x="431" y="-87.8" font-family="Times,serif" font-size="14.00">Module2</text>
</g>
<!-- CompC -->
<g id="node6" class="node"><title>CompC</title>
<ellipse fill="none" stroke="black" cx="431" cy="-18" rx="37.4385" ry="18"/>
<text text-anchor="middle" x="431" y="-13.8" font-family="Times,serif" font-size="14.00">CompC</text>
</g>
<!-- Module2&#45;&gt;CompC -->
<g id="edge3" class="edge"><title>Module2&#45;&gt;CompC</title>
<path fill="none" stroke="black" d="M431,-73.937C431,-65.8072 431,-55.8761 431,-46.7047"/>
<polygon fill="black" stroke="black" points="434.5,-46.4406 431,-36.4407 427.5,-46.4407 434.5,-46.4406"/>
</g>
<!-- RootModule -->
<g id="node3" class="node"><title>RootModule</title>
<polygon fill="none" stroke="black" points="337.085,-110 250.915,-110 250.915,-74 337.085,-74 337.085,-110"/>
<text text-anchor="middle" x="294" y="-87.8" font-family="Times,serif" font-size="14.00">RootModule</text>
</g>
<!-- RootModule&#45;&gt;Module1 -->
<g id="edge5" class="edge"><title>RootModule&#45;&gt;Module1</title>
<path fill="none" stroke="black" d="M250.725,-92C223.453,-92 188.374,-92 161.13,-92"/>
<polygon fill="black" stroke="black" points="161.104,-88.5001 151.104,-92 161.104,-95.5001 161.104,-88.5001"/>
<text text-anchor="middle" x="200.805" y="-97.8" font-family="Times,serif" font-size="14.00">imports</text>
</g>
<!-- RootModule&#45;&gt;Module2 -->
<g id="edge6" class="edge"><title>RootModule&#45;&gt;Module2</title>
<path fill="none" stroke="black" d="M337.348,-92C353.424,-92 371.647,-92 387.718,-92"/>
<polygon fill="black" stroke="black" points="387.924,-95.5001 397.923,-92 387.923,-88.5001 387.924,-95.5001"/>
<text text-anchor="middle" x="367.362" y="-97.8" font-family="Times,serif" font-size="14.00">imports</text>
</g>
<!-- RootComp -->
<g id="node7" class="node"><title>RootComp</title>
<ellipse fill="none" stroke="black" cx="294" cy="-18" rx="48.3906" ry="18"/>
<text text-anchor="middle" x="294" y="-13.8" font-family="Times,serif" font-size="14.00">RootComp</text>
</g>
<!-- RootModule&#45;&gt;RootComp -->
<g id="edge4" class="edge"><title>RootModule&#45;&gt;RootComp</title>
<path fill="none" stroke="black" d="M294,-73.937C294,-65.8072 294,-55.8761 294,-46.7047"/>
<polygon fill="black" stroke="black" points="297.5,-46.4406 294,-36.4407 290.5,-46.4407 297.5,-46.4406"/>
</g>
<!-- CompA&#45;&gt;CompB -->
<g id="edge10" class="edge"><title>CompA&#45;&gt;CompB</title>
<path fill="none" stroke="red" stroke-dasharray="1,5" d="M86.3554,-18C91.3201,-18 96.2847,-18 101.249,-18"/>
<polygon fill="red" stroke="red" points="86.1563,-14.5001 76.1562,-18 86.1562,-21.5001 86.1563,-14.5001"/>
<polygon fill="red" stroke="red" points="101.44,-21.5001 111.44,-18 101.44,-14.5001 101.44,-21.5001"/>
</g>
<!-- RootComp&#45;&gt;CompA -->
<g id="edge7" class="edge"><title>RootComp&#45;&gt;CompA</title>
<path fill="none" stroke="red" stroke-dasharray="1,5" d="M263.742,-32.1917C227.337,-47.4086 164.437,-67.769 111,-55 96.5737,-51.5528 81.7743,-44.7645 69.3049,-37.9333"/>
<polygon fill="red" stroke="red" points="70.6851,-34.6903 60.2684,-32.7556 67.205,-40.764 70.6851,-34.6903"/>
</g>
<!-- RootComp&#45;&gt;CompB -->
<g id="edge8" class="edge"><title>RootComp&#45;&gt;CompB</title>
<path fill="none" stroke="red" stroke-dasharray="1,5" d="M245.236,-18C228.99,-18 212.744,-18 196.498,-18"/>
<polygon fill="red" stroke="red" points="196.383,-14.5001 186.383,-18 196.383,-21.5001 196.383,-14.5001"/>
</g>
<!-- RootComp&#45;&gt;CompC -->
<g id="edge9" class="edge"><title>RootComp&#45;&gt;CompC</title>
<path fill="none" stroke="red" stroke-dasharray="1,5" d="M342.699,-18C356.167,-18 369.636,-18 383.104,-18"/>
<polygon fill="red" stroke="red" points="383.403,-21.5001 393.403,-18 383.403,-14.5001 383.403,-21.5001"/>
</g>
</g>
</svg>
