<?xml version="1.0" encoding="UTF-8" standalone="no"?>
<!DOCTYPE svg PUBLIC "-//W3C//DTD SVG 1.1//EN"
 "http://www.w3.org/Graphics/SVG/1.1/DTD/svg11.dtd">
<!-- Generated by graphviz version 2.36.0 (20140111.2315)
 -->
<!-- Title: %3 Pages: 1 -->
<svg width="387pt" height="116pt"
 viewBox="0.00 0.00 387.00 116.00" xmlns="http://www.w3.org/2000/svg" xmlns:xlink="http://www.w3.org/1999/xlink">
<g id="graph0" class="graph" transform="scale(1 1) rotate(0) translate(4 112)">
<title>%3</title>
<!-- Module1 -->
<g id="node1" class="node"><title>Module1</title>
<polygon fill="none" stroke="black" points="117.916,-108 52.0838,-108 52.0838,-72 117.916,-72 117.916,-108"/>
<text text-anchor="middle" x="85" y="-85.8" font-family="Times,serif" font-size="14.00">Module1</text>
</g>
<!-- CompA -->
<g id="node4" class="node"><title>CompA</title>
<ellipse fill="none" stroke="black" cx="38" cy="-18" rx="38.1712" ry="18"/>
<text text-anchor="middle" x="38" y="-13.8" font-family="Times,serif" font-size="14.00">CompA</text>
</g>
<!-- Module1&#45;&gt;CompA -->
<g id="edge1" class="edge"><title>Module1&#45;&gt;CompA</title>
<path fill="none" stroke="black" d="M73.382,-71.6966C67.7788,-63.3514 60.9525,-53.1846 54.7961,-44.0155"/>
<polygon fill="black" stroke="black" points="57.6409,-41.9735 49.1607,-35.6223 51.8293,-45.8756 57.6409,-41.9735"/>
</g>
<!-- CompB -->
<g id="node5" class="node"><title>CompB</title>
<ellipse fill="none" stroke="black" cx="132" cy="-18" rx="37.4385" ry="18"/>
<text text-anchor="middle" x="132" y="-13.8" font-family="Times,serif" font-size="14.00">CompB</text>
</g>
<!-- Module1&#45;&gt;CompB -->
<g id="edge2" class="edge"><title>Module1&#45;&gt;CompB</title>
<path fill="none" stroke="black" d="M96.618,-71.6966C102.221,-63.3514 109.047,-53.1846 115.204,-44.0155"/>
<polygon fill="black" stroke="black" points="118.171,-45.8756 120.839,-35.6223 112.359,-41.9735 118.171,-45.8756"/>
</g>
<!-- Module2 -->
<g id="node2" class="node"><title>Module2</title>
<polygon fill="none" stroke="black" points="374.916,-108 309.084,-108 309.084,-72 374.916,-72 374.916,-108"/>
<text text-anchor="middle" x="342" y="-85.8" font-family="Times,serif" font-size="14.00">Module2</text>
</g>
<!-- CompC -->
<g id="node6" class="node"><title>CompC</title>
<ellipse fill="none" stroke="black" cx="342" cy="-18" rx="37.4385" ry="18"/>
<text text-anchor="middle" x="342" y="-13.8" font-family="Times,serif" font-size="14.00">CompC</text>
</g>
<!-- Module2&#45;&gt;CompC -->
<g id="edge3" class="edge"><title>Module2&#45;&gt;CompC</title>
<path fill="none" stroke="black" d="M342,-71.6966C342,-63.9827 342,-54.7125 342,-46.1124"/>
<polygon fill="black" stroke="black" points="345.5,-46.1043 342,-36.1043 338.5,-46.1044 345.5,-46.1043"/>
</g>
<!-- RootModule -->
<g id="node3" class="node"><title>RootModule</title>
<polygon fill="none" stroke="black" points="280.085,-108 193.915,-108 193.915,-72 280.085,-72 280.085,-108"/>
<text text-anchor="middle" x="237" y="-85.8" font-family="Times,serif" font-size="14.00">RootModule</text>
</g>
<!-- RootModule&#45;&gt;Module1 -->
<g id="edge5" class="edge"><title>RootModule&#45;&gt;Module1</title>
<path fill="none" stroke="none" d="M193.753,-90C171.842,-90 149.931,-90 128.02,-90"/>
<polygon fill="none" stroke="none" points="127.953,-86.5001 117.953,-90 127.953,-93.5001 127.953,-86.5001"/>
</g>
<!-- RootModule&#45;&gt;Module2 -->
<g id="edge6" class="edge"><title>RootModule&#45;&gt;Module2</title>
<path fill="none" stroke="none" d="M280.477,-90C286.532,-90 292.588,-90 298.644,-90"/>
<polygon fill="none" stroke="none" points="298.835,-93.5001 308.835,-90 298.835,-86.5001 298.835,-93.5001"/>
</g>
<!-- RootComp -->
<g id="node7" class="node"><title>RootComp</title>
<ellipse fill="none" stroke="black" cx="237" cy="-18" rx="48.3906" ry="18"/>
<text text-anchor="middle" x="237" y="-13.8" font-family="Times,serif" font-size="14.00">RootComp</text>
</g>
<!-- RootModule&#45;&gt;RootComp -->
<g id="edge4" class="edge"><title>RootModule&#45;&gt;RootComp</title>
<path fill="none" stroke="black" d="M237,-71.6966C237,-63.9827 237,-54.7125 237,-46.1124"/>
<polygon fill="black" stroke="black" points="240.5,-46.1043 237,-36.1043 233.5,-46.1044 240.5,-46.1043"/>
</g>
</g>
</svg>
