<?xml version="1.0" encoding="UTF-8" standalone="no"?>
<!DOCTYPE svg PUBLIC "-//W3C//DTD SVG 1.1//EN"
 "http://www.w3.org/Graphics/SVG/1.1/DTD/svg11.dtd">
<!-- Generated by graphviz version 2.36.0 (20140111.2315)
 -->
<!-- Title: %3 Pages: 1 -->
<svg width="461pt" height="118pt"
 viewBox="0.00 0.00 461.00 118.00" xmlns="http://www.w3.org/2000/svg" xmlns:xlink="http://www.w3.org/1999/xlink">
<g id="graph0" class="graph" transform="scale(1 1) rotate(0) translate(4 114)">
<title>%3</title>
<!-- Module1 -->
<g id="node1" class="node"><title>Module1</title>
<polygon fill="none" stroke="black" points="139.916,-110 74.0838,-110 74.0838,-74 139.916,-74 139.916,-110"/>
<text text-anchor="middle" x="107" y="-87.8" font-family="Times,serif" font-size="14.00">Module1</text>
</g>
<!-- CompA -->
<g id="node4" class="node"><title>CompA</title>
<ellipse fill="none" stroke="black" cx="38" cy="-18" rx="38.1712" ry="18"/>
<text text-anchor="middle" x="38" y="-13.8" font-family="Times,serif" font-size="14.00">CompA</text>
</g>
<!-- Module1&#45;&gt;CompA -->
<g id="edge1" class="edge"><title>Module1&#45;&gt;CompA</title>
<path fill="none" stroke="black" d="M90.648,-73.937C81.629,-64.5259 70.2968,-52.701 60.4584,-42.4349"/>
<polygon fill="black" stroke="black" points="62.7353,-39.7522 53.2893,-34.954 57.6814,-44.5956 62.7353,-39.7522"/>
</g>
<!-- CompB -->
<g id="node5" class="node"><title>CompB</title>
<ellipse fill="none" stroke="black" cx="149" cy="-18" rx="37.4385" ry="18"/>
<text text-anchor="middle" x="149" y="-13.8" font-family="Times,serif" font-size="14.00">CompB</text>
</g>
<!-- Module1&#45;&gt;CompB -->
<g id="edge2" class="edge"><title>Module1&#45;&gt;CompB</title>
<path fill="none" stroke="black" stroke-dasharray="5,2" d="M116.953,-73.937C122.101,-65.1132 128.486,-54.1676 134.198,-44.3744"/>
<polygon fill="black" stroke="black" points="137.392,-45.8463 139.407,-35.4449 131.345,-42.3192 137.392,-45.8463"/>
</g>
<!-- Module2 -->
<g id="node2" class="node"><title>Module2</title>
<polygon fill="none" stroke="black" points="448.916,-110 383.084,-110 383.084,-74 448.916,-74 448.916,-110"/>
<text text-anchor="middle" x="416" y="-87.8" font-family="Times,serif" font-size="14.00">Module2</text>
</g>
<!-- CompC -->
<g id="node6" class="node"><title>CompC</title>
<ellipse fill="none" stroke="black" cx="416" cy="-18" rx="37.4385" ry="18"/>
<text text-anchor="middle" x="416" y="-13.8" font-family="Times,serif" font-size="14.00">CompC</text>
</g>
<!-- Module2&#45;&gt;CompC -->
<g id="edge3" class="edge"><title>Module2&#45;&gt;CompC</title>
<path fill="none" stroke="black" d="M416,-73.937C416,-65.8072 416,-55.8761 416,-46.7047"/>
<polygon fill="black" stroke="black" points="419.5,-46.4406 416,-36.4407 412.5,-46.4407 419.5,-46.4406"/>
</g>
<!-- RootModule -->
<g id="node3" class="node"><title>RootModule</title>
<polygon fill="none" stroke="black" points="322.085,-110 235.915,-110 235.915,-74 322.085,-74 322.085,-110"/>
<text text-anchor="middle" x="279" y="-87.8" font-family="Times,serif" font-size="14.00">RootModule</text>
</g>
<!-- RootModule&#45;&gt;Module1 -->
<g id="edge5" class="edge"><title>RootModule&#45;&gt;Module1</title>
<path fill="none" stroke="black" d="M235.833,-92C209.654,-92 176.363,-92 150.181,-92"/>
<polygon fill="black" stroke="black" points="150.163,-88.5001 140.163,-92 150.163,-95.5001 150.163,-88.5001"/>
<text text-anchor="middle" x="187.805" y="-97.8" font-family="Times,serif" font-size="14.00">imports</text>
</g>
<!-- RootModule&#45;&gt;Module2 -->
<g id="edge6" class="edge"><title>RootModule&#45;&gt;Module2</title>
<path fill="none" stroke="black" d="M322.348,-92C338.424,-92 356.647,-92 372.718,-92"/>
<polygon fill="black" stroke="black" points="372.924,-95.5001 382.923,-92 372.923,-88.5001 372.924,-95.5001"/>
<text text-anchor="middle" x="352.362" y="-97.8" font-family="Times,serif" font-size="14.00">imports</text>
</g>
<!-- RootComp -->
<g id="node7" class="node"><title>RootComp</title>
<ellipse fill="none" stroke="black" cx="279" cy="-18" rx="48.3906" ry="18"/>
<text text-anchor="middle" x="279" y="-13.8" font-family="Times,serif" font-size="14.00">RootComp</text>
</g>
<!-- RootModule&#45;&gt;RootComp -->
<g id="edge4" class="edge"><title>RootModule&#45;&gt;RootComp</title>
<path fill="none" stroke="black" d="M279,-73.937C279,-65.8072 279,-55.8761 279,-46.7047"/>
<polygon fill="black" stroke="black" points="282.5,-46.4406 279,-36.4407 275.5,-46.4407 282.5,-46.4406"/>
</g>
<!-- CompA&#45;&gt;CompB -->
<g id="edge9" class="edge"><title>CompA&#45;&gt;CompB</title>
<path fill="none" stroke="red" stroke-dasharray="1,5" d="M86.3554,-18C91.3201,-18 96.2847,-18 101.249,-18"/>
<polygon fill="red" stroke="red" points="86.1563,-14.5001 76.1562,-18 86.1562,-21.5001 86.1563,-14.5001"/>
<polygon fill="red" stroke="red" points="101.44,-21.5001 111.44,-18 101.44,-14.5001 101.44,-21.5001"/>
</g>
<!-- RootComp&#45;&gt;CompA -->
<g id="edge7" class="edge"><title>RootComp&#45;&gt;CompA</title>
<path fill="none" stroke="red" stroke-dasharray="1,5" d="M250.535,-32.5947C232.549,-40.981 208.527,-50.6833 186,-55 153.262,-61.2732 143.421,-62.747 111,-55 96.5737,-51.5528 81.7743,-44.7645 69.3049,-37.9333"/>
<polygon fill="red" stroke="red" points="70.6851,-34.6903 60.2684,-32.7556 67.205,-40.764 70.6851,-34.6903"/>
</g>
<!-- RootComp&#45;&gt;CompC -->
<g id="edge8" class="edge"><title>RootComp&#45;&gt;CompC</title>
<path fill="none" stroke="red" stroke-dasharray="1,5" d="M327.699,-18C341.167,-18 354.636,-18 368.104,-18"/>
<polygon fill="red" stroke="red" points="368.403,-21.5001 378.403,-18 368.403,-14.5001 368.403,-21.5001"/>
</g>
</g>
</svg>
