<?xml version="1.0" encoding="UTF-8" standalone="no"?>
<!DOCTYPE svg PUBLIC "-//W3C//DTD SVG 1.1//EN"
 "http://www.w3.org/Graphics/SVG/1.1/DTD/svg11.dtd">
<!-- Generated by graphviz version 2.36.0 (20140111.2315)
 -->
<!-- Title: %3 Pages: 1 -->
<svg width="429pt" height="172pt"
 viewBox="0.00 0.00 429.00 172.00" xmlns="http://www.w3.org/2000/svg" xmlns:xlink="http://www.w3.org/1999/xlink">
<g id="graph0" class="graph" transform="scale(1 1) rotate(0) translate(4 168)">
<title>%3</title>
<g id="clust1" class="cluster"><title>cluster_before</title>
<polygon fill="none" stroke="black" points="8,-8 8,-156 168,-156 168,-8 8,-8"/>
<text text-anchor="middle" x="88" y="-140.8" font-family="Times,serif" font-size="14.00">before</text>
</g>
<g id="clust3" class="cluster"><title>cluster_now</title>
<polygon fill="none" stroke="black" points="240,-8 240,-156 413,-156 413,-8 240,-8"/>
<text text-anchor="middle" x="326.5" y="-140.8" font-family="Times,serif" font-size="14.00">now</text>
</g>
<!-- input -->
<g id="node1" class="node"><title>input</title>
<ellipse fill="none" stroke="black" cx="88" cy="-108" rx="27.9317" ry="18"/>
<text text-anchor="middle" x="88" y="-103.8" font-family="Times,serif" font-size="14.00">input</text>
</g>
<!-- event -->
<g id="node2" class="node"><title>event</title>
<polygon fill="none" stroke="black" points="70,-52 16,-52 16,-16 70,-16 70,-52"/>
<text text-anchor="middle" x="43" y="-29.8" font-family="Times,serif" font-size="14.00">event</text>
</g>
<!-- input&#45;&gt;event -->
<g id="edge1" class="edge"><title>input&#45;&gt;event</title>
<path fill="none" stroke="black" d="M78.013,-91.0209C72.4456,-82.1129 65.3794,-70.807 59.0551,-60.6881"/>
<polygon fill="black" stroke="black" points="62.0127,-58.8164 53.7447,-52.1915 56.0767,-62.5265 62.0127,-58.8164"/>
</g>
<!-- value -->
<g id="node3" class="node"><title>value</title>
<polygon fill="none" stroke="black" points="160,-52 106,-52 106,-16 160,-16 160,-52"/>
<text text-anchor="middle" x="133" y="-29.8" font-family="Times,serif" font-size="14.00">value</text>
</g>
<!-- input&#45;&gt;value -->
<g id="edge2" class="edge"><title>input&#45;&gt;value</title>
<path fill="none" stroke="black" d="M103.399,-82.3619C109.606,-72.4311 116.616,-61.2152 122.255,-52.1915"/>
<polygon fill="black" stroke="black" points="100.319,-80.6859 97.987,-91.0209 106.255,-84.3959 100.319,-80.6859"/>
</g>
<!-- event&#45;&gt;value -->
<g id="edge3" class="edge"><title>event&#45;&gt;value</title>
<path fill="none" stroke="black" stroke-dasharray="5,2" d="M70.0703,-34C78.6689,-34 87.2674,-34 95.866,-34"/>
<polygon fill="black" stroke="black" points="95.9599,-37.5001 105.96,-34 95.9599,-30.5001 95.9599,-37.5001"/>
</g>
<!-- invis -->
<g id="node4" class="node"><title>invis</title>
<ellipse fill="none" stroke="none" cx="203" cy="-108" rx="27" ry="18"/>
<text text-anchor="middle" x="203" y="-103.8" font-family="Times,serif" font-size="14.00" fill="#fffffe"> </text>
</g>
<!-- input2 -->
<g id="node5" class="node"><title>input2</title>
<ellipse fill="none" stroke="black" cx="377" cy="-108" rx="27.9317" ry="18"/>
<text text-anchor="middle" x="377" y="-103.8" font-family="Times,serif" font-size="14.00">input</text>
</g>
<!-- value2 -->
<g id="node6" class="node"><title>value2</title>
<polygon fill="none" stroke="black" points="404,-52 350,-52 350,-16 404,-16 404,-52"/>
<text text-anchor="middle" x="377" y="-29.8" font-family="Times,serif" font-size="14.00">value</text>
</g>
<!-- input2&#45;&gt;value2 -->
<g id="edge4" class="edge"><title>input2&#45;&gt;value2</title>
<path fill="none" stroke="black" d="M377,-79.7193C377,-70.572 377,-60.6255 377,-52.4407"/>
<polygon fill="black" stroke="black" points="373.5,-79.937 377,-89.937 380.5,-79.937 373.5,-79.937"/>
</g>
<!-- event2 -->
<g id="node7" class="node"><title>event2</title>
<polygon fill="none" stroke="black" points="308,-52 254,-52 254,-16 308,-16 308,-52"/>
<text text-anchor="middle" x="281" y="-29.8" font-family="Times,serif" font-size="14.00">event</text>
</g>
<!-- event2&#45;&gt;value2 -->
<g id="edge6" class="edge"><title>event2&#45;&gt;value2</title>
<path fill="none" stroke="black" stroke-dasharray="5,2" d="M308.375,-34C318.871,-34 329.367,-34 339.862,-34"/>
<polygon fill="black" stroke="black" points="339.925,-37.5001 349.925,-34 339.925,-30.5001 339.925,-37.5001"/>
</g>
<!-- button -->
<g id="node8" class="node"><title>button</title>
<ellipse fill="none" stroke="black" cx="281" cy="-108" rx="32.5607" ry="18"/>
<text text-anchor="middle" x="281" y="-103.8" font-family="Times,serif" font-size="14.00">button</text>
</g>
<!-- button&#45;&gt;input2 -->
<g id="edge7" class="edge"><title>button&#45;&gt;input2</title>
<path fill="none" stroke="red" d="M323.664,-108C332.146,-108 340.853,-108 348.708,-108"/>
<polygon fill="red" stroke="red" points="323.501,-104.5 313.501,-108 323.501,-111.5 323.501,-104.5"/>
<text text-anchor="middle" x="330.857" y="-113.8" font-family="Times,serif" font-size="14.00" fill="red">?</text>
</g>
<!-- button&#45;&gt;event2 -->
<g id="edge5" class="edge"><title>button&#45;&gt;event2</title>
<path fill="none" stroke="black" d="M281,-89.937C281,-81.8072 281,-71.8761 281,-62.7047"/>
<polygon fill="black" stroke="black" points="284.5,-62.4406 281,-52.4407 277.5,-62.4407 284.5,-62.4406"/>
</g>
</g>
</svg>
