<?xml version="1.0" encoding="UTF-8" standalone="no"?>
<!DOCTYPE svg PUBLIC "-//W3C//DTD SVG 1.1//EN"
 "http://www.w3.org/Graphics/SVG/1.1/DTD/svg11.dtd">
<!-- Generated by graphviz version 2.36.0 (20140111.2315)
 -->
<!-- Title: %3 Pages: 1 -->
<svg width="370pt" height="152pt"
 viewBox="0.00 0.00 370.00 152.00" xmlns="http://www.w3.org/2000/svg" xmlns:xlink="http://www.w3.org/1999/xlink">
<g id="graph0" class="graph" transform="scale(1 1) rotate(0) translate(4 148)">
<title>%3</title>
<g id="clust1" class="cluster"><title>cluster_view</title>
<polygon fill="none" stroke="black" points="8,-8 8,-136 118,-136 118,-8 8,-8"/>
<text text-anchor="middle" x="63" y="-120.8" font-family="Times,serif" font-size="14.00">view</text>
</g>
<g id="clust2" class="cluster"><title>cluster_model</title>
<polygon fill="none" stroke="black" points="258,-8 258,-136 354,-136 354,-8 258,-8"/>
<text text-anchor="middle" x="306" y="-120.8" font-family="Times,serif" font-size="14.00">model</text>
</g>
<!-- input -->
<g id="node1" class="node"><title>input</title>
<ellipse fill="none" stroke="black" cx="63" cy="-88" rx="28.0736" ry="18"/>
<text text-anchor="middle" x="63" y="-83.8" font-family="Times,serif" font-size="14.00">input</text>
</g>
<!-- ngModel -->
<g id="node5" class="node"><title>ngModel</title>
<ellipse fill="none" stroke="black" cx="188" cy="-88" rx="42.0784" ry="18"/>
<text text-anchor="middle" x="188" y="-83.8" font-family="Times,serif" font-size="14.00">ngModel</text>
</g>
<!-- input&#45;&gt;ngModel -->
<g id="edge1" class="edge"><title>input&#45;&gt;ngModel</title>
<path fill="none" stroke="black" d="M101.545,-88C115.523,-88 131.457,-88 145.749,-88"/>
<polygon fill="black" stroke="black" points="101.298,-84.5001 91.2977,-88 101.298,-91.5001 101.298,-84.5001"/>
</g>
<!-- otherElem -->
<g id="node2" class="node"><title>otherElem</title>
<ellipse fill="none" stroke="black" stroke-dasharray="5,2" cx="63" cy="-34" rx="46.8805" ry="18"/>
<text text-anchor="middle" x="63" y="-29.8" font-family="Times,serif" font-size="14.00">otherElem</text>
</g>
<!-- value -->
<g id="node3" class="node"><title>value</title>
<ellipse fill="none" stroke="black" cx="306" cy="-88" rx="29.0172" ry="18"/>
<text text-anchor="middle" x="306" y="-83.8" font-family="Times,serif" font-size="14.00">value</text>
</g>
<!-- otherVal -->
<g id="node4" class="node"><title>otherVal</title>
<ellipse fill="none" stroke="black" stroke-dasharray="5,2" cx="306" cy="-34" rx="40.1317" ry="18"/>
<text text-anchor="middle" x="306" y="-29.8" font-family="Times,serif" font-size="14.00">otherVal</text>
</g>
<!-- ngModel&#45;&gt;value -->
<g id="edge2" class="edge"><title>ngModel&#45;&gt;value</title>
<path fill="none" stroke="black" d="M230.224,-88C241.99,-88 254.765,-88 266.37,-88"/>
<polygon fill="black" stroke="black" points="266.637,-91.5001 276.637,-88 266.637,-84.5001 266.637,-91.5001"/>
</g>
</g>
</svg>
