<?xml version="1.0" encoding="UTF-8" standalone="no"?>
<!DOCTYPE svg PUBLIC "-//W3C//DTD SVG 1.1//EN"
 "http://www.w3.org/Graphics/SVG/1.1/DTD/svg11.dtd">
<!-- Generated by graphviz version 2.36.0 (20140111.2315)
 -->
<!-- Title: %3 Pages: 1 -->
<svg width="206pt" height="58pt"
 viewBox="0.00 0.00 206.00 58.14" xmlns="http://www.w3.org/2000/svg" xmlns:xlink="http://www.w3.org/1999/xlink">
<g id="graph0" class="graph" transform="scale(1 1) rotate(0) translate(4 54.1425)">
<title>%3</title>
<!-- Parent -->
<g id="node1" class="node"><title>Parent</title>
<ellipse fill="none" stroke="black" cx="33" cy="-20.1425" rx="32.8994" ry="18"/>
<text text-anchor="middle" x="33" y="-15.9425" font-family="Times,serif" font-size="14.00">Parent</text>
</g>
<!-- Child -->
<g id="node2" class="node"><title>Child</title>
<ellipse fill="none" stroke="black" cx="168" cy="-20.1425" rx="29.5275" ry="18"/>
<text text-anchor="middle" x="168" y="-15.9425" font-family="Times,serif" font-size="14.00">Child</text>
</g>
<!-- Parent&#45;&gt;Child -->
<g id="edge3" class="edge"><title>Parent&#45;&gt;Child</title>
<path fill="none" stroke="black" d="M60.9218,-29.7823C68.3056,-31.9944 76.3783,-34.0239 84,-35.1425 99.8304,-37.4659 104.19,-37.6042 120,-35.1425 124.189,-34.4902 128.516,-33.5294 132.77,-32.4037"/>
<polygon fill="black" stroke="black" points="133.863,-35.7303 142.465,-29.5455 131.884,-29.016 133.863,-35.7303"/>
<text text-anchor="middle" x="102" y="-38.9425" font-family="Times,serif" font-size="14.00">input</text>
</g>
<!-- Child&#45;&gt;Parent -->
<g id="edge1" class="edge"><title>Child&#45;&gt;Parent</title>
<path fill="none" stroke="none" d="M138.124,-20.1425C119.982,-20.1425 96.2711,-20.1425 76.0593,-20.1425"/>
<polygon fill="none" stroke="none" points="75.8568,-16.6426 65.8568,-20.1425 75.8568,-23.6426 75.8568,-16.6426"/>
<text text-anchor="middle" x="102" y="-22.9425" font-family="Times,serif" font-size="14.00"> </text>
</g>
<!-- Child&#45;&gt;Parent -->
<g id="edge2" class="edge"><title>Child&#45;&gt;Parent</title>
<path fill="none" stroke="lightgray" d="M144.06,-9.43534C136.559,-6.45982 128.076,-3.63618 120,-2.14253 104.267,0.767171 99.7618,0.608185 84,-2.14253 78.9601,-3.02208 73.7576,-4.36517 68.6993,-5.92971"/>
<polygon fill="lightgray" stroke="lightgray" points="67.5725,-2.61598 59.2306,-9.14768 69.825,-9.24369 67.5725,-2.61598"/>
<text text-anchor="middle" x="102" y="-4.94253" font-family="Times,serif" font-size="14.00" fill="lightgray">output</text>
</g>
</g>
</svg>
