<?xml version="1.0" encoding="UTF-8" standalone="no"?>
<!DOCTYPE svg PUBLIC "-//W3C//DTD SVG 1.1//EN"
 "http://www.w3.org/Graphics/SVG/1.1/DTD/svg11.dtd">
<!-- Generated by graphviz version 2.36.0 (20140111.2315)
 -->
<!-- Title: %3 Pages: 1 -->
<svg width="314pt" height="58pt"
 viewBox="0.00 0.00 314.00 58.00" xmlns="http://www.w3.org/2000/svg" xmlns:xlink="http://www.w3.org/1999/xlink">
<g id="graph0" class="graph" transform="scale(1 1) rotate(0) translate(4 54)">
<title>%3</title>
<!-- string -->
<g id="node1" class="node"><title>string</title>
<ellipse fill="none" stroke="black" cx="31" cy="-25" rx="30.0035" ry="18"/>
<text text-anchor="middle" x="31" y="-20.8" font-family="Times,serif" font-size="14.00">string</text>
</g>
<!-- pipe -->
<g id="node2" class="node"><title>pipe</title>
<polygon fill="none" stroke="black" points="152,-43 98,-43 98,-7 152,-7 152,-43"/>
<text text-anchor="middle" x="125" y="-20.8" font-family="Times,serif" font-size="14.00">pipe</text>
</g>
<!-- string&#45;&gt;pipe -->
<g id="edge1" class="edge"><title>string&#45;&gt;pipe</title>
<path fill="none" stroke="black" d="M61.3623,-25C69.662,-25 78.7968,-25 87.4632,-25"/>
<polygon fill="black" stroke="black" points="87.7145,-28.5001 97.7144,-25 87.7144,-21.5001 87.7145,-28.5001"/>
</g>
<!-- trans -->
<g id="node3" class="node"><title>trans</title>
<ellipse fill="none" stroke="black" cx="247" cy="-25" rx="59.2874" ry="25.4118"/>
<text text-anchor="middle" x="247" y="-27.8" font-family="Times,serif" font-size="14.00">transformed</text>
<text text-anchor="middle" x="247" y="-13.8" font-family="Times,serif" font-size="14.00">string</text>
</g>
<!-- pipe&#45;&gt;trans -->
<g id="edge2" class="edge"><title>pipe&#45;&gt;trans</title>
<path fill="none" stroke="black" d="M152.038,-25C159.651,-25 168.351,-25 177.315,-25"/>
<polygon fill="black" stroke="black" points="177.505,-28.5001 187.505,-25 177.505,-21.5001 177.505,-28.5001"/>
</g>
</g>
</svg>
