<?xml version="1.0" encoding="UTF-8" standalone="no"?>
<!DOCTYPE svg PUBLIC "-//W3C//DTD SVG 1.1//EN"
 "http://www.w3.org/Graphics/SVG/1.1/DTD/svg11.dtd">
<!-- Generated by graphviz version 2.36.0 (20140111.2315)
 -->
<!-- Title: %3 Pages: 1 -->
<svg width="544pt" height="126pt"
 viewBox="0.00 0.00 544.00 126.00" xmlns="http://www.w3.org/2000/svg" xmlns:xlink="http://www.w3.org/1999/xlink">
<g id="graph0" class="graph" transform="scale(1 1) rotate(0) translate(4 122)">
<title>%3</title>
<!-- Level1 -->
<g id="node1" class="node"><title>Level1</title>
<ellipse fill="none" stroke="black" cx="71" cy="-100" rx="34.8198" ry="18"/>
<text text-anchor="middle" x="71" y="-95.8" font-family="Times,serif" font-size="14.00">Level1</text>
</g>
<!-- Level2 -->
<g id="node2" class="node"><title>Level2</title>
<ellipse fill="none" stroke="black" cx="254" cy="-100" rx="34.8198" ry="18"/>
<text text-anchor="middle" x="254" y="-95.8" font-family="Times,serif" font-size="14.00">Level2</text>
</g>
<!-- Level1&#45;&gt;Level2 -->
<g id="edge1" class="edge"><title>Level1&#45;&gt;Level2</title>
<path fill="none" stroke="black" d="M106.045,-100C135.118,-100 177.134,-100 208.8,-100"/>
<polygon fill="black" stroke="black" points="209.108,-103.5 219.108,-100 209.108,-96.5001 209.108,-103.5"/>
</g>
<!-- Level1desc -->
<g id="node4" class="node"><title>Level1desc</title>
<polygon fill="none" stroke="black" points="141.495,-64 0.504883,-64 0.504883,-14 141.495,-14 141.495,-64"/>
<text text-anchor="middle" x="71" y="-48.8" font-family="Times,serif" font-size="14.00">Copy &amp; paste,</text>
<text text-anchor="middle" x="71" y="-34.8" font-family="Times,serif" font-size="14.00">doesn&#39;t understand all,</text>
<text text-anchor="middle" x="71" y="-20.8" font-family="Times,serif" font-size="14.00">but gets stuff done</text>
</g>
<!-- Level1&#45;&gt;Level1desc -->
<g id="edge3" class="edge"><title>Level1&#45;&gt;Level1desc</title>
<path fill="none" stroke="black" d="M71,-81.8497C71,-75.9857 71,-70.1218 71,-64.2578"/>
</g>
<!-- Level3 -->
<g id="node3" class="node"><title>Level3</title>
<ellipse fill="none" stroke="black" cx="451" cy="-100" rx="34.8198" ry="18"/>
<text text-anchor="middle" x="451" y="-95.8" font-family="Times,serif" font-size="14.00">Level3</text>
</g>
<!-- Level2&#45;&gt;Level3 -->
<g id="edge2" class="edge"><title>Level2&#45;&gt;Level3</title>
<path fill="none" stroke="black" d="M288.966,-100C321.442,-100 370.576,-100 406.027,-100"/>
<polygon fill="black" stroke="black" points="406.096,-103.5 416.096,-100 406.096,-96.5001 406.096,-103.5"/>
</g>
<!-- Level2desc -->
<g id="node5" class="node"><title>Level2desc</title>
<polygon fill="none" stroke="black" points="329.421,-64 178.579,-64 178.579,-14 329.421,-14 329.421,-64"/>
<text text-anchor="middle" x="254" y="-48.8" font-family="Times,serif" font-size="14.00">Applies design patterns,</text>
<text text-anchor="middle" x="254" y="-34.8" font-family="Times,serif" font-size="14.00">abstracts out helpers,</text>
<text text-anchor="middle" x="254" y="-20.8" font-family="Times,serif" font-size="14.00">likes to feel clever</text>
</g>
<!-- Level2&#45;&gt;Level2desc -->
<g id="edge4" class="edge"><title>Level2&#45;&gt;Level2desc</title>
<path fill="none" stroke="black" d="M254,-81.8497C254,-75.9857 254,-70.1218 254,-64.2578"/>
</g>
<!-- Level3desc -->
<g id="node6" class="node"><title>Level3desc</title>
<polygon fill="none" stroke="black" points="536.342,-64 365.658,-64 365.658,-0 536.342,-0 536.342,-64"/>
<text text-anchor="middle" x="451" y="-48.8" font-family="Times,serif" font-size="14.00">Sees the big picture,</text>
<text text-anchor="middle" x="451" y="-34.8" font-family="Times,serif" font-size="14.00">makes pragmatic decisions,</text>
<text text-anchor="middle" x="451" y="-20.8" font-family="Times,serif" font-size="14.00">values readability</text>
<text text-anchor="middle" x="451" y="-6.8" font-family="Times,serif" font-size="14.00">and maintainability</text>
</g>
<!-- Level3&#45;&gt;Level3desc -->
<g id="edge5" class="edge"><title>Level3&#45;&gt;Level3desc</title>
<path fill="none" stroke="black" d="M451,-81.7902C451,-75.907 451,-70.0238 451,-64.1406"/>
</g>
</g>
</svg>
