<?xml version="1.0" encoding="UTF-8" standalone="no"?>
<!DOCTYPE svg PUBLIC "-//W3C//DTD SVG 1.1//EN"
 "http://www.w3.org/Graphics/SVG/1.1/DTD/svg11.dtd">
<!-- Generated by graphviz version 2.36.0 (20140111.2315)
 -->
<!-- Title: %3 Pages: 1 -->
<svg width="362pt" height="152pt"
 viewBox="0.00 0.00 362.00 152.00" xmlns="http://www.w3.org/2000/svg" xmlns:xlink="http://www.w3.org/1999/xlink">
<g id="graph0" class="graph" transform="scale(1 1) rotate(0) translate(4 148)">
<title>%3</title>
<g id="clust1" class="cluster"><title>cluster_app</title>
<polygon fill="none" stroke="black" points="8,-8 8,-136 118,-136 118,-8 8,-8"/>
<text text-anchor="middle" x="63" y="-120.8" font-family="Times,serif" font-size="14.00">AppComponent</text>
</g>
<g id="clust2" class="cluster"><title>cluster_scene</title>
<polygon fill="none" stroke="black" points="240,-8 240,-136 354,-136 354,-8 240,-8"/>
<text text-anchor="middle" x="297" y="-120.8" font-family="Times,serif" font-size="14.00">SceneComponent</text>
</g>
<!-- player -->
<g id="node1" class="node"><title>player</title>
<ellipse fill="none" stroke="black" stroke-dasharray="5,2" cx="63" cy="-88" rx="46.8805" ry="18"/>
<text text-anchor="middle" x="63" y="-83.8" font-family="Times,serif" font-size="14.00">gameState</text>
</g>
<!-- scene -->
<g id="node5" class="node"><title>scene</title>
<ellipse fill="none" stroke="black" cx="179" cy="-88" rx="29.9931" ry="18"/>
<text text-anchor="middle" x="179" y="-83.8" font-family="Times,serif" font-size="14.00">scene</text>
</g>
<!-- player&#45;&gt;scene -->
<g id="edge1" class="edge"><title>player&#45;&gt;scene</title>
<path fill="none" stroke="black" d="M117.545,-88C128.453,-88 139.531,-88 149.172,-88"/>
</g>
<!-- bogus1 -->
<g id="node2" class="node"><title>bogus1</title>
<ellipse fill="none" stroke="none" cx="63" cy="-34" rx="27" ry="18"/>
<text text-anchor="middle" x="63" y="-29.8" font-family="Times,serif" font-size="14.00" fill="#fffffe"> </text>
</g>
<!-- bogus3 -->
<g id="node3" class="node"><title>bogus3</title>
<ellipse fill="none" stroke="none" cx="297" cy="-88" rx="27" ry="18"/>
<text text-anchor="middle" x="297" y="-83.8" font-family="Times,serif" font-size="14.00" fill="#fffffe"> </text>
</g>
<!-- bogus2 -->
<g id="node4" class="node"><title>bogus2</title>
<ellipse fill="none" stroke="none" cx="297" cy="-34" rx="27" ry="18"/>
<text text-anchor="middle" x="297" y="-29.8" font-family="Times,serif" font-size="14.00" fill="#fffffe"> </text>
</g>
<!-- link -->
<g id="node6" class="node"><title>link</title>
<ellipse fill="none" stroke="black" cx="179" cy="-34" rx="32.9168" ry="18"/>
<text text-anchor="middle" x="179" y="-29.8" font-family="Times,serif" font-size="14.00">option</text>
</g>
<!-- bogus2&#45;&gt;link -->
<g id="edge3" class="edge"><title>bogus2&#45;&gt;link</title>
<path fill="none" stroke="black" d="M240.447,-34C230.69,-34 220.84,-34 212.005,-34"/>
</g>
<!-- scene&#45;&gt;bogus3 -->
<g id="edge2" class="edge"><title>scene&#45;&gt;bogus3</title>
<path fill="none" stroke="black" d="M208.972,-88C215.548,-88 222.794,-88 230.214,-88"/>
<polygon fill="black" stroke="black" points="230.392,-91.5001 240.392,-88 230.392,-84.5001 230.392,-91.5001"/>
</g>
<!-- link&#45;&gt;bogus1 -->
<g id="edge4" class="edge"><title>link&#45;&gt;bogus1</title>
<path fill="none" stroke="black" d="M146.281,-34C140.446,-34 134.167,-34 127.773,-34"/>
<polygon fill="black" stroke="black" points="127.678,-30.5001 117.678,-34 127.678,-37.5001 127.678,-30.5001"/>
</g>
</g>
</svg>
