<?xml version="1.0" encoding="UTF-8" standalone="no"?>
<!DOCTYPE svg PUBLIC "-//W3C//DTD SVG 1.1//EN"
 "http://www.w3.org/Graphics/SVG/1.1/DTD/svg11.dtd">
<!-- Generated by graphviz version 2.36.0 (20140111.2315)
 -->
<!-- Title: %3 Pages: 1 -->
<svg width="134pt" height="188pt"
 viewBox="0.00 0.00 134.00 188.00" xmlns="http://www.w3.org/2000/svg" xmlns:xlink="http://www.w3.org/1999/xlink">
<g id="graph0" class="graph" transform="scale(1 1) rotate(0) translate(4 184)">
<title>%3</title>
<!-- arg1 -->
<g id="node1" class="node"><title>arg1</title>
<ellipse fill="none" stroke="black" cx="27" cy="-162" rx="27" ry="18"/>
<text text-anchor="middle" x="27" y="-157.8" font-family="Times,serif" font-size="14.00">arg1</text>
</g>
<!-- someFunction -->
<g id="node2" class="node"><title>someFunction</title>
<polygon fill="none" stroke="black" points="110.498,-108 15.5023,-108 15.5023,-72 110.498,-72 110.498,-108"/>
<text text-anchor="middle" x="63" y="-85.8" font-family="Times,serif" font-size="14.00">someFunction</text>
</g>
<!-- arg1&#45;&gt;someFunction -->
<g id="edge1" class="edge"><title>arg1&#45;&gt;someFunction</title>
<path fill="none" stroke="black" d="M35.3496,-144.765C39.5428,-136.611 44.7279,-126.529 49.4709,-117.307"/>
<polygon fill="black" stroke="black" points="52.7324,-118.618 54.1934,-108.124 46.5074,-115.416 52.7324,-118.618"/>
</g>
<!-- result -->
<g id="node3" class="node"><title>result</title>
<ellipse fill="none" stroke="black" cx="63" cy="-18" rx="29.1364" ry="18"/>
<text text-anchor="middle" x="63" y="-13.8" font-family="Times,serif" font-size="14.00">result</text>
</g>
<!-- someFunction&#45;&gt;result -->
<g id="edge2" class="edge"><title>someFunction&#45;&gt;result</title>
<path fill="none" stroke="black" d="M63,-71.6966C63,-63.9827 63,-54.7125 63,-46.1124"/>
<polygon fill="black" stroke="black" points="66.5001,-46.1043 63,-36.1043 59.5001,-46.1044 66.5001,-46.1043"/>
</g>
<!-- arg2 -->
<g id="node4" class="node"><title>arg2</title>
<ellipse fill="none" stroke="black" cx="99" cy="-162" rx="27" ry="18"/>
<text text-anchor="middle" x="99" y="-157.8" font-family="Times,serif" font-size="14.00">arg2</text>
</g>
<!-- arg2&#45;&gt;someFunction -->
<g id="edge3" class="edge"><title>arg2&#45;&gt;someFunction</title>
<path fill="none" stroke="black" d="M90.6504,-144.765C86.4572,-136.611 81.2721,-126.529 76.5291,-117.307"/>
<polygon fill="black" stroke="black" points="79.4926,-115.416 71.8066,-108.124 73.2676,-118.618 79.4926,-115.416"/>
</g>
</g>
</svg>
