<?xml version="1.0" encoding="UTF-8" standalone="no"?>
<!DOCTYPE svg PUBLIC "-//W3C//DTD SVG 1.1//EN"
 "http://www.w3.org/Graphics/SVG/1.1/DTD/svg11.dtd">
<!-- Generated by graphviz version 2.36.0 (20140111.2315)
 -->
<!-- Title: %3 Pages: 1 -->
<svg width="296pt" height="226pt"
 viewBox="0.00 0.00 296.00 226.00" xmlns="http://www.w3.org/2000/svg" xmlns:xlink="http://www.w3.org/1999/xlink">
<g id="graph0" class="graph" transform="scale(1 1) rotate(0) translate(4 222)">
<title>%3</title>
<g id="clust1" class="cluster"><title>cluster_input</title>
<polygon fill="none" stroke="black" stroke-dasharray="1,5" points="8,-136 8,-210 150,-210 150,-136 8,-136"/>
<text text-anchor="middle" x="79" y="-194.8" font-family="Times,serif" font-size="14.00">inputs</text>
</g>
<g id="clust2" class="cluster"><title>cluster_deps</title>
<polygon fill="none" stroke="black" stroke-dasharray="1,5" points="158,-136 158,-210 280,-210 280,-136 158,-136"/>
<text text-anchor="middle" x="219" y="-194.8" font-family="Times,serif" font-size="14.00">dependencies</text>
</g>
<!-- arg2 -->
<g id="node1" class="node"><title>arg2</title>
<ellipse fill="none" stroke="black" cx="115" cy="-162" rx="27" ry="18"/>
<text text-anchor="middle" x="115" y="-157.8" font-family="Times,serif" font-size="14.00">arg2</text>
</g>
<!-- someFunction -->
<g id="node4" class="node"><title>someFunction</title>
<polygon fill="none" stroke="black" points="162.498,-108 67.5023,-108 67.5023,-72 162.498,-72 162.498,-108"/>
<text text-anchor="middle" x="115" y="-85.8" font-family="Times,serif" font-size="14.00">someFunction</text>
</g>
<!-- arg2&#45;&gt;someFunction -->
<g id="edge1" class="edge"><title>arg2&#45;&gt;someFunction</title>
<path fill="none" stroke="black" d="M115,-143.697C115,-135.983 115,-126.712 115,-118.112"/>
<polygon fill="black" stroke="black" points="118.5,-118.104 115,-108.104 111.5,-118.104 118.5,-118.104"/>
</g>
<!-- arg1 -->
<g id="node2" class="node"><title>arg1</title>
<ellipse fill="none" stroke="black" cx="43" cy="-162" rx="27" ry="18"/>
<text text-anchor="middle" x="43" y="-157.8" font-family="Times,serif" font-size="14.00">arg1</text>
</g>
<!-- arg1&#45;&gt;someFunction -->
<g id="edge2" class="edge"><title>arg1&#45;&gt;someFunction</title>
<path fill="none" stroke="black" d="M57.5703,-146.834C66.9185,-137.746 79.2978,-125.71 90.1689,-115.141"/>
<polygon fill="black" stroke="black" points="92.6681,-117.593 97.3983,-108.113 87.7886,-112.574 92.6681,-117.593"/>
</g>
<!-- complexLib -->
<g id="node3" class="node"><title>complexLib</title>
<ellipse fill="none" stroke="black" cx="219" cy="-162" rx="52.2599" ry="18"/>
<text text-anchor="middle" x="219" y="-157.8" font-family="Times,serif" font-size="14.00">complexLib</text>
</g>
<!-- complexLib&#45;&gt;someFunction -->
<g id="edge4" class="edge"><title>complexLib&#45;&gt;someFunction</title>
<path fill="none" stroke="black" d="M196.177,-145.638C182.252,-136.266 164.201,-124.116 148.658,-113.654"/>
<polygon fill="black" stroke="black" points="150.573,-110.724 140.323,-108.044 146.664,-116.532 150.573,-110.724"/>
</g>
<!-- result -->
<g id="node5" class="node"><title>result</title>
<ellipse fill="none" stroke="black" cx="115" cy="-18" rx="29.1364" ry="18"/>
<text text-anchor="middle" x="115" y="-13.8" font-family="Times,serif" font-size="14.00">result</text>
</g>
<!-- someFunction&#45;&gt;result -->
<g id="edge3" class="edge"><title>someFunction&#45;&gt;result</title>
<path fill="none" stroke="black" d="M115,-71.6966C115,-63.9827 115,-54.7125 115,-46.1124"/>
<polygon fill="black" stroke="black" points="118.5,-46.1043 115,-36.1043 111.5,-46.1044 118.5,-46.1043"/>
</g>
</g>
</svg>
