<?xml version="1.0" encoding="UTF-8" standalone="no"?>
<!DOCTYPE svg PUBLIC "-//W3C//DTD SVG 1.1//EN"
 "http://www.w3.org/Graphics/SVG/1.1/DTD/svg11.dtd">
<!-- Generated by graphviz version 2.36.0 (20140111.2315)
 -->
<!-- Title: %3 Pages: 1 -->
<svg width="267pt" height="148pt"
 viewBox="0.00 0.00 267.00 148.41" xmlns="http://www.w3.org/2000/svg" xmlns:xlink="http://www.w3.org/1999/xlink">
<g id="graph0" class="graph" transform="scale(1 1) rotate(0) translate(4 144.411)">
<title>%3</title>
<!-- statement -->
<g id="node1" class="node"><title>statement</title>
<ellipse fill="none" stroke="black" cx="43" cy="-92" rx="43.4929" ry="18"/>
<text text-anchor="middle" x="43" y="-87.8" font-family="Times,serif" font-size="14.00">statement</text>
</g>
<!-- effect -->
<g id="node2" class="node"><title>effect</title>
<polygon fill="none" stroke="black" points="80.4129,-36 5.58707,-36 5.58707,-0 80.4129,-0 80.4129,-36"/>
<text text-anchor="middle" x="43" y="-20.8" font-family="Times,serif" font-size="14.00">is an</text>
<text text-anchor="middle" x="43" y="-6.8" font-family="Times,serif" font-size="14.00">instruction</text>
</g>
<!-- statement&#45;&gt;effect -->
<g id="edge1" class="edge"><title>statement&#45;&gt;effect</title>
<path fill="none" stroke="black" d="M43,-73.937C43,-65.8072 43,-55.8761 43,-46.7047"/>
<polygon fill="black" stroke="black" points="46.5001,-46.4406 43,-36.4407 39.5001,-46.4407 46.5001,-46.4406"/>
</g>
<!-- expression -->
<g id="node3" class="node"><title>expression</title>
<ellipse fill="none" stroke="black" cx="212" cy="-92" rx="47.3944" ry="18"/>
<text text-anchor="middle" x="212" y="-87.8" font-family="Times,serif" font-size="14.00">expression</text>
</g>
<!-- statement&#45;&gt;expression -->
<g id="edge3" class="edge"><title>statement&#45;&gt;expression</title>
<path fill="none" stroke="none" d="M86.4385,-89.824C94.921,-89.4805 103.749,-89.1797 112.024,-89 125.924,-88.6981 140.909,-88.8785 154.94,-89.269"/>
<polygon fill="none" stroke="none" points="154.853,-92.7679 164.959,-89.5866 155.075,-85.7714 154.853,-92.7679"/>
</g>
<!-- statement&#45;&gt;expression -->
<g id="edge4" class="edge"><title>statement&#45;&gt;expression</title>
<path fill="none" stroke="black" stroke-dasharray="5,2" d="M86.5217,-92C107.122,-92 132.01,-92 154.171,-92"/>
<polygon fill="black" stroke="black" points="154.467,-95.5001 164.467,-92 154.467,-88.5001 154.467,-95.5001"/>
<text text-anchor="middle" x="125.035" y="-125.8" font-family="Times,serif" font-size="14.00">sometimes</text>
<text text-anchor="middle" x="125.035" y="-111.8" font-family="Times,serif" font-size="14.00">contains</text>
<text text-anchor="middle" x="125.035" y="-97.8" font-family="Times,serif" font-size="14.00">or is an</text>
</g>
<!-- statement&#45;&gt;expression -->
<g id="edge5" class="edge"><title>statement&#45;&gt;expression</title>
<path fill="none" stroke="none" d="M56.9907,-109.114C66.5154,-119.347 80.0849,-131.415 95.0941,-137 107.566,-141.641 142.405,-141.363 154.977,-137 167.449,-132.671 179.257,-124.358 188.858,-116.042"/>
<polygon fill="none" stroke="none" points="191.371,-118.486 196.369,-109.144 186.636,-113.33 191.371,-118.486"/>
</g>
<!-- value -->
<g id="node4" class="node"><title>value</title>
<polygon fill="none" stroke="black" points="239,-36 185,-36 185,-0 239,-0 239,-36"/>
<text text-anchor="middle" x="212" y="-20.8" font-family="Times,serif" font-size="14.00">has a</text>
<text text-anchor="middle" x="212" y="-6.8" font-family="Times,serif" font-size="14.00">value</text>
</g>
<!-- expression&#45;&gt;value -->
<g id="edge2" class="edge"><title>expression&#45;&gt;value</title>
<path fill="none" stroke="black" d="M212,-73.937C212,-65.8072 212,-55.8761 212,-46.7047"/>
<polygon fill="black" stroke="black" points="215.5,-46.4406 212,-36.4407 208.5,-46.4407 215.5,-46.4406"/>
</g>
</g>
</svg>
