<?xml version="1.0" encoding="UTF-8" standalone="no"?>
<!DOCTYPE svg PUBLIC "-//W3C//DTD SVG 1.1//EN"
 "http://www.w3.org/Graphics/SVG/1.1/DTD/svg11.dtd">
<!-- Generated by graphviz version 2.36.0 (20140111.2315)
 -->
<!-- Title: %3 Pages: 1 -->
<svg width="540pt" height="125pt"
 viewBox="0.00 0.00 540.00 125.00" xmlns="http://www.w3.org/2000/svg" xmlns:xlink="http://www.w3.org/1999/xlink">
<g id="graph0" class="graph" transform="scale(1 1) rotate(0) translate(4 121)">
<title>%3</title>
<g id="clust1" class="cluster"><title>cluster_SystemJS</title>
<polygon fill="none" stroke="black" points="288,-19 288,-93 392,-93 392,-19 288,-19"/>
<text text-anchor="middle" x="340" y="-77.8" font-family="Times,serif" font-size="14.00">SystemJS</text>
</g>
<!-- file4 -->
<g id="node1" class="node"><title>file4</title>
<ellipse fill="none" stroke="black" cx="27" cy="-99" rx="27" ry="18"/>
<text text-anchor="middle" x="27" y="-94.8" font-family="Times,serif" font-size="14.00">file4</text>
</g>
<!-- file2 -->
<g id="node2" class="node"><title>file2</title>
<ellipse fill="none" stroke="black" cx="117" cy="-72" rx="27" ry="18"/>
<text text-anchor="middle" x="117" y="-67.8" font-family="Times,serif" font-size="14.00">file2</text>
</g>
<!-- file4&#45;&gt;file2 -->
<g id="edge1" class="edge"><title>file4&#45;&gt;file2</title>
<path fill="none" stroke="black" d="M52.0464,-91.6221C61.4354,-88.7414 72.3623,-85.3888 82.4996,-82.2785"/>
<polygon fill="black" stroke="black" points="83.7539,-85.5548 92.2874,-79.2755 81.7006,-78.8627 83.7539,-85.5548"/>
</g>
<!-- entryfile -->
<g id="node4" class="node"><title>entryfile</title>
<ellipse fill="none" stroke="black" cx="220" cy="-45" rx="39.6558" ry="18"/>
<text text-anchor="middle" x="220" y="-40.8" font-family="Times,serif" font-size="14.00">entryfile</text>
</g>
<!-- file2&#45;&gt;entryfile -->
<g id="edge3" class="edge"><title>file2&#45;&gt;entryfile</title>
<path fill="none" stroke="black" d="M142.449,-65.4641C152.474,-62.7843 164.384,-59.6004 175.787,-56.5519"/>
<polygon fill="black" stroke="black" points="176.861,-59.8878 185.618,-53.9238 175.054,-53.1252 176.861,-59.8878"/>
</g>
<!-- file3 -->
<g id="node3" class="node"><title>file3</title>
<ellipse fill="none" stroke="black" cx="27" cy="-45" rx="27" ry="18"/>
<text text-anchor="middle" x="27" y="-40.8" font-family="Times,serif" font-size="14.00">file3</text>
</g>
<!-- file3&#45;&gt;file2 -->
<g id="edge2" class="edge"><title>file3&#45;&gt;file2</title>
<path fill="none" stroke="black" d="M52.0464,-52.3779C61.4354,-55.2586 72.3623,-58.6112 82.4996,-61.7215"/>
<polygon fill="black" stroke="black" points="81.7006,-65.1373 92.2874,-64.7245 83.7539,-58.4452 81.7006,-65.1373"/>
</g>
<!-- transpiler -->
<g id="node6" class="node"><title>transpiler</title>
<ellipse fill="none" stroke="black" cx="340" cy="-45" rx="43.506" ry="18"/>
<text text-anchor="middle" x="340" y="-40.8" font-family="Times,serif" font-size="14.00">transpiler</text>
</g>
<!-- entryfile&#45;&gt;transpiler -->
<g id="edge5" class="edge"><title>entryfile&#45;&gt;transpiler</title>
<path fill="none" stroke="black" d="M259.638,-45C268.044,-45 277.078,-45 285.933,-45"/>
<polygon fill="black" stroke="black" points="286.196,-48.5001 296.196,-45 286.196,-41.5001 286.196,-48.5001"/>
</g>
<!-- file1 -->
<g id="node5" class="node"><title>file1</title>
<ellipse fill="none" stroke="black" cx="117" cy="-18" rx="27" ry="18"/>
<text text-anchor="middle" x="117" y="-13.8" font-family="Times,serif" font-size="14.00">file1</text>
</g>
<!-- file1&#45;&gt;entryfile -->
<g id="edge4" class="edge"><title>file1&#45;&gt;entryfile</title>
<path fill="none" stroke="black" d="M142.449,-24.5359C152.474,-27.2157 164.384,-30.3996 175.787,-33.4481"/>
<polygon fill="black" stroke="black" points="175.054,-36.8748 185.618,-36.0762 176.861,-30.1122 175.054,-36.8748"/>
</g>
<!-- browsercode -->
<g id="node7" class="node"><title>browsercode</title>
<ellipse fill="none" stroke="black" cx="476" cy="-45" rx="55.075" ry="18"/>
<text text-anchor="middle" x="476" y="-40.8" font-family="Times,serif" font-size="14.00">browsercode</text>
</g>
<!-- transpiler&#45;&gt;browsercode -->
<g id="edge6" class="edge"><title>transpiler&#45;&gt;browsercode</title>
<path fill="none" stroke="black" d="M383.767,-45C392.226,-45 401.28,-45 410.28,-45"/>
<polygon fill="black" stroke="black" points="410.382,-48.5001 420.382,-45 410.382,-41.5001 410.382,-48.5001"/>
</g>
</g>
</svg>
