<?xml version="1.0" encoding="UTF-8" standalone="no"?>
<!DOCTYPE svg PUBLIC "-//W3C//DTD SVG 1.1//EN"
 "http://www.w3.org/Graphics/SVG/1.1/DTD/svg11.dtd">
<!-- Generated by graphviz version 2.36.0 (20140111.2315)
 -->
<!-- Title: %3 Pages: 1 -->
<svg width="766pt" height="126pt"
 viewBox="0.00 0.00 766.00 126.00" xmlns="http://www.w3.org/2000/svg" xmlns:xlink="http://www.w3.org/1999/xlink">
<g id="graph0" class="graph" transform="scale(1 1) rotate(0) translate(4 122)">
<title>%3</title>
<!-- stage0 -->
<g id="node1" class="node"><title>stage0</title>
<ellipse fill="none" stroke="black" cx="66" cy="-93" rx="51.4062" ry="25.4118"/>
<text text-anchor="middle" x="66" y="-95.8" font-family="Times,serif" font-size="14.00">Stage 0</text>
<text text-anchor="middle" x="66" y="-81.8" font-family="Times,serif" font-size="14.00">Strawman</text>
</g>
<!-- stage0desc -->
<g id="node2" class="node"><title>stage0desc</title>
<polygon fill="none" stroke="black" points="131.862,-50 0.137623,-50 0.137623,-0 131.862,-0 131.862,-50"/>
<text text-anchor="middle" x="66" y="-34.8" font-family="Times,serif" font-size="14.00">Idea from member</text>
<text text-anchor="middle" x="66" y="-20.8" font-family="Times,serif" font-size="14.00">or contributor,</text>
<text text-anchor="middle" x="66" y="-6.8" font-family="Times,serif" font-size="14.00">discussed at meeting</text>
</g>
<!-- stage0&#45;&gt;stage0desc -->
<g id="edge1" class="edge"><title>stage0&#45;&gt;stage0desc</title>
<path fill="none" stroke="black" d="M66,-67.6079C66,-61.8167 66,-56.0256 66,-50.2344"/>
</g>
<!-- stage1 -->
<g id="node3" class="node"><title>stage1</title>
<ellipse fill="none" stroke="black" cx="238" cy="-93" rx="45.9239" ry="25.4118"/>
<text text-anchor="middle" x="238" y="-95.8" font-family="Times,serif" font-size="14.00">Stage 1</text>
<text text-anchor="middle" x="238" y="-81.8" font-family="Times,serif" font-size="14.00">Proposal</text>
</g>
<!-- stage0&#45;&gt;stage1 -->
<g id="edge6" class="edge"><title>stage0&#45;&gt;stage1</title>
<path fill="none" stroke="black" d="M117.545,-93C137.724,-93 161.021,-93 181.653,-93"/>
<polygon fill="black" stroke="black" points="181.854,-96.5001 191.854,-93 181.854,-89.5001 181.854,-96.5001"/>
</g>
<!-- stage1desc -->
<g id="node4" class="node"><title>stage1desc</title>
<polygon fill="none" stroke="black" points="308.422,-50 167.578,-50 167.578,-0 308.422,-0 308.422,-50"/>
<text text-anchor="middle" x="238" y="-34.8" font-family="Times,serif" font-size="14.00">Gets a champion.</text>
<text text-anchor="middle" x="238" y="-20.8" font-family="Times,serif" font-size="14.00">Thorough description.</text>
<text text-anchor="middle" x="238" y="-6.8" font-family="Times,serif" font-size="14.00">Demos and polyfills.</text>
</g>
<!-- stage1&#45;&gt;stage1desc -->
<g id="edge2" class="edge"><title>stage1&#45;&gt;stage1desc</title>
<path fill="none" stroke="black" d="M238,-67.6079C238,-61.8167 238,-56.0256 238,-50.2344"/>
</g>
<!-- stage2 -->
<g id="node5" class="node"><title>stage2</title>
<ellipse fill="none" stroke="black" cx="407" cy="-93" rx="40.965" ry="25.4118"/>
<text text-anchor="middle" x="407" y="-95.8" font-family="Times,serif" font-size="14.00">Stage 2</text>
<text text-anchor="middle" x="407" y="-81.8" font-family="Times,serif" font-size="14.00">Draft</text>
</g>
<!-- stage1&#45;&gt;stage2 -->
<g id="edge7" class="edge"><title>stage1&#45;&gt;stage2</title>
<path fill="none" stroke="black" d="M284.193,-93C306.391,-93 333.201,-93 356.011,-93"/>
<polygon fill="black" stroke="black" points="356.179,-96.5001 366.179,-93 356.179,-89.5001 356.179,-96.5001"/>
</g>
<!-- stage2desc -->
<g id="node6" class="node"><title>stage2desc</title>
<polygon fill="none" stroke="black" points="469.649,-50 344.351,-50 344.351,-14 469.649,-14 469.649,-50"/>
<text text-anchor="middle" x="407" y="-34.8" font-family="Times,serif" font-size="14.00">Formal description.</text>
<text text-anchor="middle" x="407" y="-20.8" font-family="Times,serif" font-size="14.00">Implementations.</text>
</g>
<!-- stage2&#45;&gt;stage2desc -->
<g id="edge3" class="edge"><title>stage2&#45;&gt;stage2desc</title>
<path fill="none" stroke="black" d="M407,-67.5337C407,-61.7256 407,-55.9175 407,-50.1094"/>
</g>
<!-- stage3 -->
<g id="node7" class="node"><title>stage3</title>
<ellipse fill="none" stroke="black" cx="559" cy="-93" rx="51.3965" ry="25.4118"/>
<text text-anchor="middle" x="559" y="-95.8" font-family="Times,serif" font-size="14.00">Stage 3</text>
<text text-anchor="middle" x="559" y="-81.8" font-family="Times,serif" font-size="14.00">Candidate</text>
</g>
<!-- stage2&#45;&gt;stage3 -->
<g id="edge8" class="edge"><title>stage2&#45;&gt;stage3</title>
<path fill="none" stroke="black" d="M447.803,-93C462.969,-93 480.618,-93 497.289,-93"/>
<polygon fill="black" stroke="black" points="497.512,-96.5001 507.512,-93 497.512,-89.5001 497.512,-96.5001"/>
</g>
<!-- stage3desc -->
<g id="node8" class="node"><title>stage3desc</title>
<polygon fill="none" stroke="black" points="611.524,-50 506.476,-50 506.476,-14 611.524,-14 611.524,-50"/>
<text text-anchor="middle" x="559" y="-27.8" font-family="Times,serif" font-size="14.00">Spec completed</text>
</g>
<!-- stage3&#45;&gt;stage3desc -->
<g id="edge4" class="edge"><title>stage3&#45;&gt;stage3desc</title>
<path fill="none" stroke="black" d="M559,-67.5337C559,-61.7256 559,-55.9175 559,-50.1094"/>
</g>
<!-- stage4 -->
<g id="node9" class="node"><title>stage4</title>
<ellipse fill="none" stroke="black" cx="703" cy="-93" rx="45.3316" ry="25.4118"/>
<text text-anchor="middle" x="703" y="-95.8" font-family="Times,serif" font-size="14.00">Stage 4</text>
<text text-anchor="middle" x="703" y="-81.8" font-family="Times,serif" font-size="14.00">Finished</text>
</g>
<!-- stage3&#45;&gt;stage4 -->
<g id="edge9" class="edge"><title>stage3&#45;&gt;stage4</title>
<path fill="none" stroke="black" d="M610.464,-93C622.421,-93 635.229,-93 647.362,-93"/>
<polygon fill="black" stroke="black" points="647.363,-96.5001 657.363,-93 647.363,-89.5001 647.363,-96.5001"/>
</g>
<!-- stage4desc -->
<g id="node10" class="node"><title>stage4desc</title>
<polygon fill="none" stroke="black" points="757.25,-50 648.75,-50 648.75,-14 757.25,-14 757.25,-50"/>
<text text-anchor="middle" x="703" y="-34.8" font-family="Times,serif" font-size="14.00">Will be included</text>
<text text-anchor="middle" x="703" y="-20.8" font-family="Times,serif" font-size="14.00">in next release</text>
</g>
<!-- stage4&#45;&gt;stage4desc -->
<g id="edge5" class="edge"><title>stage4&#45;&gt;stage4desc</title>
<path fill="none" stroke="black" d="M703,-67.5337C703,-61.7256 703,-55.9175 703,-50.1094"/>
</g>
</g>
</svg>
