<?xml version="1.0" encoding="UTF-8" standalone="no"?>
<!DOCTYPE svg PUBLIC "-//W3C//DTD SVG 1.1//EN"
 "http://www.w3.org/Graphics/SVG/1.1/DTD/svg11.dtd">
<!-- Generated by graphviz version 2.36.0 (20140111.2315)
 -->
<!-- Title: %3 Pages: 1 -->
<svg width="493pt" height="116pt"
 viewBox="0.00 0.00 493.00 116.00" xmlns="http://www.w3.org/2000/svg" xmlns:xlink="http://www.w3.org/1999/xlink">
<g id="graph0" class="graph" transform="scale(1 1) rotate(0) translate(4 112)">
<title>%3</title>
<!-- HTML -->
<g id="node1" class="node"><title>HTML</title>
<ellipse fill="none" stroke="black" cx="39" cy="-90" rx="35.241" ry="18"/>
<text text-anchor="middle" x="39" y="-85.8" font-family="Times,serif" font-size="14.00">HTML</text>
</g>
<!-- nested -->
<g id="node2" class="node"><title>nested</title>
<polygon fill="none" stroke="black" points="77.9391,-36 0.0608743,-36 0.0608743,-0 77.9391,-0 77.9391,-36"/>
<text text-anchor="middle" x="39" y="-20.8" font-family="Times,serif" font-size="14.00">expresses</text>
<text text-anchor="middle" x="39" y="-6.8" font-family="Times,serif" font-size="14.00">nested data</text>
</g>
<!-- HTML&#45;&gt;nested -->
<g id="edge1" class="edge"><title>HTML&#45;&gt;nested</title>
<path fill="none" stroke="black" d="M39,-71.6966C39,-60.8463 39,-46.9167 39,-36.1043"/>
</g>
<!-- JS -->
<g id="node3" class="node"><title>JS</title>
<ellipse fill="none" stroke="black" cx="131" cy="-90" rx="27" ry="18"/>
<text text-anchor="middle" x="131" y="-85.8" font-family="Times,serif" font-size="14.00">JS</text>
</g>
<!-- logic -->
<g id="node4" class="node"><title>logic</title>
<polygon fill="none" stroke="black" points="165.239,-36 96.7607,-36 96.7607,-0 165.239,-0 165.239,-36"/>
<text text-anchor="middle" x="131" y="-20.8" font-family="Times,serif" font-size="14.00">expresses</text>
<text text-anchor="middle" x="131" y="-6.8" font-family="Times,serif" font-size="14.00">logic</text>
</g>
<!-- JS&#45;&gt;logic -->
<g id="edge2" class="edge"><title>JS&#45;&gt;logic</title>
<path fill="none" stroke="black" d="M131,-71.6966C131,-60.8463 131,-46.9167 131,-36.1043"/>
</g>
<!-- Template -->
<g id="node5" class="node"><title>Template</title>
<ellipse fill="none" stroke="black" cx="221" cy="-90" rx="42.3233" ry="18"/>
<text text-anchor="middle" x="221" y="-85.8" font-family="Times,serif" font-size="14.00">Template</text>
</g>
<!-- needs -->
<g id="node6" class="node"><title>needs</title>
<polygon fill="none" stroke="black" points="258.021,-36 183.979,-36 183.979,-0 258.021,-0 258.021,-36"/>
<text text-anchor="middle" x="221" y="-20.8" font-family="Times,serif" font-size="14.00">needs data</text>
<text text-anchor="middle" x="221" y="-6.8" font-family="Times,serif" font-size="14.00">and logic</text>
</g>
<!-- Template&#45;&gt;needs -->
<g id="edge3" class="edge"><title>Template&#45;&gt;needs</title>
<path fill="none" stroke="black" d="M221,-71.6966C221,-60.8463 221,-46.9167 221,-36.1043"/>
</g>
<!-- Angular -->
<g id="node7" class="node"><title>Angular</title>
<ellipse fill="none" stroke="black" cx="322" cy="-90" rx="39.1285" ry="18"/>
<text text-anchor="middle" x="322" y="-85.8" font-family="Times,serif" font-size="14.00">Angular</text>
</g>
<!-- choseng2 -->
<g id="node8" class="node"><title>choseng2</title>
<polygon fill="none" stroke="black" points="367.166,-36 276.834,-36 276.834,-0 367.166,-0 367.166,-36"/>
<text text-anchor="middle" x="322" y="-20.8" font-family="Times,serif" font-size="14.00">chose</text>
<text text-anchor="middle" x="322" y="-6.8" font-family="Times,serif" font-size="14.00">HTML+logic</text>
</g>
<!-- Angular&#45;&gt;choseng2 -->
<g id="edge4" class="edge"><title>Angular&#45;&gt;choseng2</title>
<path fill="none" stroke="black" d="M322,-71.6966C322,-60.8463 322,-46.9167 322,-36.1043"/>
</g>
<!-- React -->
<g id="node9" class="node"><title>React</title>
<ellipse fill="none" stroke="black" cx="436" cy="-90" rx="30.3576" ry="18"/>
<text text-anchor="middle" x="436" y="-85.8" font-family="Times,serif" font-size="14.00">React</text>
</g>
<!-- choser -->
<g id="node10" class="node"><title>choser</title>
<polygon fill="none" stroke="black" points="485.286,-36 386.714,-36 386.714,-0 485.286,-0 485.286,-36"/>
<text text-anchor="middle" x="436" y="-20.8" font-family="Times,serif" font-size="14.00">chose</text>
<text text-anchor="middle" x="436" y="-6.8" font-family="Times,serif" font-size="14.00">JS+nested data</text>
</g>
<!-- React&#45;&gt;choser -->
<g id="edge5" class="edge"><title>React&#45;&gt;choser</title>
<path fill="none" stroke="black" d="M436,-71.6966C436,-60.8463 436,-46.9167 436,-36.1043"/>
</g>
</g>
</svg>
