<?xml version="1.0" encoding="UTF-8" standalone="no"?>
<!DOCTYPE svg PUBLIC "-//W3C//DTD SVG 1.1//EN"
 "http://www.w3.org/Graphics/SVG/1.1/DTD/svg11.dtd">
<!-- Generated by graphviz version 2.36.0 (20140111.2315)
 -->
<!-- Title: %3 Pages: 1 -->
<svg width="258pt" height="98pt"
 viewBox="0.00 0.00 258.00 98.00" xmlns="http://www.w3.org/2000/svg" xmlns:xlink="http://www.w3.org/1999/xlink">
<g id="graph0" class="graph" transform="scale(1 1) rotate(0) translate(4 94)">
<title>%3</title>
<!-- ES6 -->
<g id="node1" class="node"><title>ES6</title>
<ellipse fill="none" stroke="black" cx="27" cy="-45" rx="27" ry="18"/>
<text text-anchor="middle" x="27" y="-40.8" font-family="Times,serif" font-size="14.00">ES6</text>
</g>
<!-- transpiler -->
<g id="node2" class="node"><title>transpiler</title>
<polygon fill="none" stroke="black" points="159.369,-63 90.6307,-63 90.6307,-27 159.369,-27 159.369,-63"/>
<text text-anchor="middle" x="125" y="-40.8" font-family="Times,serif" font-size="14.00">transpiler</text>
</g>
<!-- ES6&#45;&gt;transpiler -->
<g id="edge1" class="edge"><title>ES6&#45;&gt;transpiler</title>
<path fill="none" stroke="black" d="M54.2324,-45C62.2925,-45 71.3916,-45 80.2922,-45"/>
<polygon fill="black" stroke="black" points="80.5755,-48.5001 90.5755,-45 80.5754,-41.5001 80.5755,-48.5001"/>
</g>
<!-- ES3 -->
<g id="node3" class="node"><title>ES3</title>
<ellipse fill="none" stroke="black" cx="223" cy="-72" rx="27" ry="18"/>
<text text-anchor="middle" x="223" y="-67.8" font-family="Times,serif" font-size="14.00">ES3</text>
</g>
<!-- transpiler&#45;&gt;ES3 -->
<g id="edge2" class="edge"><title>transpiler&#45;&gt;ES3</title>
<path fill="none" stroke="black" d="M159.576,-54.4433C168.868,-57.0565 178.954,-59.8933 188.255,-62.5093"/>
<polygon fill="black" stroke="black" points="187.391,-65.9019 197.965,-65.2401 189.286,-59.1633 187.391,-65.9019"/>
</g>
<!-- ES5 -->
<g id="node4" class="node"><title>ES5</title>
<ellipse fill="none" stroke="black" cx="223" cy="-18" rx="27" ry="18"/>
<text text-anchor="middle" x="223" y="-13.8" font-family="Times,serif" font-size="14.00">ES5</text>
</g>
<!-- transpiler&#45;&gt;ES5 -->
<g id="edge3" class="edge"><title>transpiler&#45;&gt;ES5</title>
<path fill="none" stroke="black" d="M159.576,-35.5567C168.868,-32.9435 178.954,-30.1067 188.255,-27.4907"/>
<polygon fill="black" stroke="black" points="189.286,-30.8367 197.965,-24.7599 187.391,-24.0981 189.286,-30.8367"/>
</g>
</g>
</svg>
