<?xml version="1.0" encoding="UTF-8" standalone="no"?>
<!DOCTYPE svg PUBLIC "-//W3C//DTD SVG 1.1//EN"
 "http://www.w3.org/Graphics/SVG/1.1/DTD/svg11.dtd">
<!-- Generated by graphviz version 2.36.0 (20140111.2315)
 -->
<!-- Title: %3 Pages: 1 -->
<svg width="204pt" height="58pt"
 viewBox="0.00 0.00 204.00 58.17" xmlns="http://www.w3.org/2000/svg" xmlns:xlink="http://www.w3.org/1999/xlink">
<g id="graph0" class="graph" transform="scale(1 1) rotate(0) translate(4 54.171)">
<title>%3</title>
<!-- View -->
<g id="node1" class="node"><title>View</title>
<ellipse fill="none" stroke="black" cx="29" cy="-20.171" rx="28.9721" ry="18"/>
<text text-anchor="middle" x="29" y="-15.971" font-family="Times,serif" font-size="14.00">View</text>
</g>
<!-- Model -->
<g id="node2" class="node"><title>Model</title>
<ellipse fill="none" stroke="black" cx="163" cy="-20.171" rx="33.3925" ry="18"/>
<text text-anchor="middle" x="163" y="-15.971" font-family="Times,serif" font-size="14.00">Model</text>
</g>
<!-- View&#45;&gt;Model -->
<g id="edge3" class="edge"><title>View&#45;&gt;Model</title>
<path fill="none" stroke="lightgray" d="M53.9983,-29.5732C60.9827,-31.8758 68.6996,-34.0108 76,-35.171 91.8017,-37.6823 96.1696,-37.4944 112,-35.171 116.237,-34.5492 120.613,-33.6459 124.933,-32.5862"/>
<polygon fill="lightgray" stroke="lightgray" points="126.092,-35.898 134.817,-29.8888 124.249,-29.145 126.092,-35.898"/>
<text text-anchor="middle" x="94" y="-38.971" font-family="Times,serif" font-size="14.00" fill="lightgray">events</text>
</g>
<!-- Model&#45;&gt;View -->
<g id="edge1" class="edge"><title>Model&#45;&gt;View</title>
<path fill="none" stroke="none" d="M129.392,-20.171C110.812,-20.171 87.4376,-20.171 68.0255,-20.171"/>
<polygon fill="none" stroke="none" points="67.9938,-16.6711 57.9938,-20.171 67.9938,-23.6711 67.9938,-16.6711"/>
<text text-anchor="middle" x="94" y="-22.971" font-family="Times,serif" font-size="14.00"> </text>
</g>
<!-- Model&#45;&gt;View -->
<g id="edge2" class="edge"><title>Model&#45;&gt;View</title>
<path fill="none" stroke="black" d="M136.512,-9.0816C128.788,-6.24702 120.18,-3.5985 112,-2.171 96.2382,0.579716 91.7226,0.79564 76,-2.171 71.4204,-3.0351 66.7123,-4.34347 62.1365,-5.86855"/>
<polygon fill="black" stroke="black" points="60.5926,-2.70803 52.4321,-9.46502 63.0252,-9.27178 60.5926,-2.70803"/>
<text text-anchor="middle" x="94" y="-4.971" font-family="Times,serif" font-size="14.00">values</text>
</g>
</g>
</svg>
