<?xml version="1.0" encoding="UTF-8"?>
<svg width="193px" height="56px" viewBox="0 0 193 56" version="1.1" xmlns="http://www.w3.org/2000/svg" xmlns:xlink="http://www.w3.org/1999/xlink">
    <!-- Generator: Sketch 41.2 (35397) - http://www.bohemiancoding.com/sketch -->
    <title>Edument_green_logo</title>
    <desc>Created with Sketch.</desc>
    <defs>
        <polygon id="path-1" points="0.106006369 20.9653259 15.80293 20.9653259 15.80293 0.0508571255 0.106006369 0.0508571255 0.106006369 20.9653259"></polygon>
        <polygon id="path-3" points="15.946949 20.6817104 15.946949 0.0511813316 0.194286734 0.0511813316 0.194286734 20.6817104"></polygon>
    </defs>
    <g id="Page-1" stroke="none" stroke-width="1" fill="none" fill-rule="evenodd">
        <g id="Kursnavet-Copy-2" transform="translate(-592.000000, -908.000000)">
            <g id="Edument_green_logo" transform="translate(592.852902, 908.252930)">
                <g id="Page-1-Copy-5" transform="translate(65.012237, 16.885733)">
                    <polygon id="Fill-1" fill="#FFFFFF" points="0 0.216007698 0 20.8471852 13.72805 20.8471852 13.72805 17.4326468 4.21965848 17.4326468 4.21965848 11.8777 12.3217117 11.8777 12.3217117 8.57598542 4.21965848 8.57598542 4.21965848 3.65907616 13.6997301 3.65907616 13.6997301 0.216007698"></polygon>
                    <g id="Group-16" transform="translate(15.875558, 0.165280)">
                        <path d="M4.25934455,3.49399043 L4.25934455,17.2669127 L6.29901779,17.2669127 C7.94929301,17.2669127 9.21017022,16.7241917 10.0829367,15.637453 C10.9544159,14.5513626 11.39981,12.9971187 11.419119,10.9760181 L11.419119,9.88474048 C11.419119,7.78777562 10.9872412,6.19786905 10.1247728,5.1163176 C9.26166086,4.03476615 8.00078366,3.49399043 6.34085394,3.49399043 L4.25934455,3.49399043 Z M0.0396860679,20.6820994 L0.0396860679,0.0509219667 L6.34085394,0.0509219667 C8.1417393,0.0509219667 9.75210927,0.459421615 11.1726075,1.27642091 C12.5931057,2.09342021 13.7020855,3.25537476 14.4989033,4.76228457 C15.295721,6.26919439 15.6947735,7.98100244 15.6947735,9.89835713 L15.6947735,10.8482809 C15.6947735,12.7656356 15.302801,14.4709595 14.5201431,15.9636043 C13.7374853,17.456249 12.6330109,18.6130163 11.2080073,19.4352029 C9.78236003,20.2567411 8.17456459,20.6730217 6.38333372,20.6820994 L0.0396860679,20.6820994 Z" id="Fill-2" fill="#FFFFFF"></path>
                        <g id="Group-6" transform="translate(17.593362, 0.000000)">
                            <mask id="mask-2" fill="white">
                                <use xlink:href="#path-1"></use>
                            </mask>
                            <g id="Clip-5"></g>
                            <path d="M15.80293,0.0508571255 L15.80293,13.6396303 C15.80293,15.8974014 15.1020135,17.68248 13.7001807,18.9955146 C12.2983478,20.3091976 10.3828958,20.9653907 7.95446817,20.9653907 C5.56337127,20.9653907 3.66465368,20.3273531 2.25831539,19.0525749 C0.85197711,17.7771482 0.134326224,16.0251386 0.106006369,13.7952493 L0.106006369,0.0508571255 L4.32566485,0.0508571255 L4.32566485,13.6675121 C4.32566485,15.018803 4.64683776,16.003741 5.28918358,16.6223262 C5.93152939,17.2409114 6.81974305,17.550204 7.95446817,17.550204 C10.3268997,17.550204 11.5317808,16.2942296 11.5697552,13.7809842 L11.5697552,0.0508571255 L15.80293,0.0508571255 Z" id="Fill-4" fill="#FFFFFF" mask="url(#mask-2)"></path>
                        </g>
                        <polygon id="Fill-7" fill="#FFFFFF" points="39.6208035 0.0508571255 47.1738377 18.2589184 54.7551918 0.0508571255 57.0619728 0.0508571255 57.0619728 20.6820346 55.331887 20.6820346 55.331887 11.6982844 55.4728427 2.48758995 47.8490088 20.6820346 46.5128266 20.6820346 38.9173126 2.55891528 39.0582682 11.6412241 39.0582682 20.6820346 37.3275389 20.6820346 37.3275389 0.0508571255"></polygon>
                        <polygon id="Fill-9" fill="#FFFFFF" points="72.1198974 10.79148 62.5413499 10.79148 62.5413499 19.2078696 73.5545556 19.2078696 73.5545556 20.6817104 60.8112642 20.6817104 60.8112642 0.0511813316 73.4843996 0.0511813316 73.4843996 1.52437371 62.5413499 1.52437371 62.5413499 9.31763922 72.1198974 9.31763922"></polygon>
                        <polygon id="Fill-11" fill="#FFFFFF" points="92.1567746 20.6819697 90.4266888 20.6819697 78.6539961 3.02635559 78.6539961 20.6819697 76.9097505 20.6819697 76.9097505 0.0507922843 78.6539961 0.0507922843 90.4408488 17.7206715 90.4408488 0.0507922843 92.1567746 0.0507922843"></polygon>
                        <g id="Group-15" transform="translate(94.614063, 0.000000)">
                            <mask id="mask-4" fill="white">
                                <use xlink:href="#path-3"></use>
                            </mask>
                            <g id="Clip-14"></g>
                            <polygon id="Fill-13" fill="#FFFFFF" mask="url(#mask-4)" points="15.9472064 1.52437371 8.92903129 1.52437371 8.92903129 20.6817104 7.19894556 20.6817104 7.19894556 1.52437371 0.194286734 1.52437371 0.194286734 0.0511813316 15.9472064 0.0511813316"></polygon>
                        </g>
                    </g>
                </g>
                <g id="Page-1" transform="translate(0.000000, 0.000000)">
                    <path d="M34.3517957,38.3531053 C44.5205138,38.3531053 48.3991305,29.6373654 47.0144369,23.6571143 L20.9834032,32.125647 C24.3553265,35.8783323 29.3076504,38.3531053 34.3517957,38.3531053" id="Fill-3" fill="#5898AD"></path>
                    <path d="M44.7648124,18.3528328 C41.5289456,13.3472262 35.6912489,9.90456298 29.6002055,9.53037514 C23.4394582,9.15213472 14.8102567,13.6687305 16.9683949,24.3749606 C17.3457339,26.2465752 18.0970609,28.0297086 19.1231819,29.6615458 L44.7648124,18.3528328 Z" id="Fill-5" fill="#5898AD"></path>
                    <path d="M47.0618221,23.8612966 C47.0865353,23.967228 47.1056319,24.0479377 47.0618221,23.8612966" id="Fill-7" fill="#6FAD55"></path>
                    <g id="Group-11" transform="translate(0.000000, 0.200535)" fill="#FFFFFF">
                        <path d="M13.3996252,13.6464414 C16.6314706,8.82995494 22.1588512,6.06744906 28.5649024,6.06744906 C29.0273605,6.06744906 29.4945103,6.0823085 29.9623303,6.11202739 C37.1605924,6.54903015 43.0726846,11.2094924 46.1852292,15.7693157 L46.9895043,16.946589 L12.5926692,27.3049729 C10.6181738,21.6698662 11.5812933,16.7000573 13.3996252,13.6464414 L13.3996252,13.6464414 Z M52.1811001,32.545629 C51.4847319,34.6131181 50.3868964,36.4860836 48.8842424,38.1523677 L48.903679,38.1854637 L47.3735457,39.6869431 L47.3440556,39.6565488 C47.1624235,39.8105466 46.9807913,39.9577902 46.8004997,40.0976041 L46.0900567,40.6257898 L46.0759819,40.6095795 C44.982838,41.3626832 43.8099368,41.9874553 42.5773852,42.4703873 L41.7268643,42.7912162 L41.7094383,42.7804093 C41.6390643,42.8033739 41.56802,42.8256631 41.4969757,42.8479523 L41.4969757,42.8668643 L40.8052991,43.0634142 L39.3770406,43.4612421 C39.3770406,43.4612421 36.7651572,43.8881134 33.8141378,43.7050721 C33.7303592,43.6996686 33.6445698,43.6929143 33.6023454,43.6875109 C33.5440354,43.6827829 33.4857255,43.6780549 33.4260751,43.6706252 L33.4086491,43.6692743 L33.1351956,43.6415817 C32.6961954,43.5936262 32.2531739,43.5301359 31.7940669,43.4531369 L31.4334835,43.3916729 C30.8148619,43.2748236 30.2176877,43.137036 29.6593867,42.9830381 C23.222505,41.2275973 17.5181839,36.749501 14.2494759,30.9408089 L53.7916609,18.9377546 C52.7735827,17.1215252 48.6945675,8.79348176 39.3991581,3.84326033 C35.10701,1.55760754 29.2572492,0.474894349 24.8169804,0.474894349 C16.1924705,0.474894349 7.88162784,5.33730997 4.27512427,10.5604048 C0.732962703,15.7267637 -2.42448727,24.265541 2.64981835,35.6005957 C6.93459391,45.1781834 16.5001057,52.7625791 27.017343,54.9239529 C28.5059222,55.2299224 30.0802907,55.3852712 31.6968836,55.3852712 L31.6975539,55.3852712 C39.6873567,55.3852712 47.4821228,51.6899974 50.7595438,48.2128873 C54.5021039,44.2454155 55.9772785,39.3404478 55.9772785,39.3404478 C56.6776681,37.1115311 57.0717629,35.2507234 57.0717629,32.282887 L52.1811001,32.545629 Z" id="Fill-9"></path>
                    </g>
                </g>
            </g>
        </g>
    </g>
</svg>